SplineFontDB: 1.0
FontName: Norasi
FullName: Norasi
FamilyName: Norasi
Weight: Book
Copyright: The National Font Project (v.beta 1 ). Yannis Haralambous, Virach Sornlertlamvanich and Anutara Tantraporn\n\nModified by TLWG
Version: 1.1 : May 12, 2003
ItalicAngle: 0
UnderlinePosition: -100
UnderlineWidth: 50
Ascent: 800
Descent: 200
NeedsXUIDChange: 1
FSType: 0
PfmFamily: 17
TTFWeight: 400
TTFWidth: 5
Panose: 2 0 5 6 0 0 0 2 0 4
LineGap: 20
VLineGap: 0
ScriptLang: 2
 1 DFLT 1 dflt 
 1 thai 1 dflt 
LangName: 1033 "" "" "Regular" "TheOmegaProject(v.beta1).YannisHaralambous,VirachSornlertlamvanichandAnutaraTantraporn: Omega3: 1999" "" "" "" "NECTEC" "" "Yannis Haralambous, Virach Sornlertlamvanich and Anutara Tantraporn" "This font was developed under National Font Project at NECTEC as to be a free licensed font for Thai users and developers." 
Encoding: compacted
OldEncoding: iso8859_1
DisplaySize: -72
AntiAlias: 1
FitToEm: 1
WinInfo: 0 8 10
BeginPrivate: 4
BlueValues 38 [-8 0 340 347 376 385 452 461 516 517]
OtherBlues 11 [-163 -151]
ForceBold 5 false
BlueScale 8 0.039625
EndPrivate
BeginChars: 258 224
StartChar: exclam
Encoding: 33 33 1
OldEncoding: 33
Width: 255
Flags: HW
HStem: -4 21<117 139> 441 20<116.5 140.5>
VStem: 93 72<406 410 410 423>
Fore
165 406 m 1
 164 381 l 1
 133 120 l 1
 124 120 l 1
 111 264 101 334 93 404 c 1
 93 442 105 461 128 461 c 0
 153 461 165 444 165 410 c 2
 165 406 l 1
167 28 m 0
 167 9 149 -4 129 -4 c 0
 105 -4 93 7 93 28 c 0
 93 50 105 62 129 65 c 1
 154 65 166 53 167 28 c 0
EndSplineSet
Back
165.039 405.762 m 1
 164.062 380.859 l 1
 132.812 120.117 l 1
 124.023 120.117 l 1
 120.605 155.762 117.676 187.988 114.258 215.332 c 0
 111.328 243.164 108.887 268.066 106.445 290.039 c 0
 104.004 312.012 102.051 332.031 99.6094 350.586 c 0
 97.168 368.652 95.2148 386.719 92.7734 403.809 c 1
 92.7734 441.895 104.492 460.938 127.93 460.938 c 0
 152.832 460.938 165.039 443.848 165.039 410.156 c 2
 165.039 405.762 l 1
166.992 27.832 m 0
 166.992 18.5547 163.086 11.2305 155.273 4.88281 c 0
 147.949 -0.976562 139.16 -3.90625 128.906 -3.90625 c 0
 104.98 -3.90625 92.7734 6.83594 92.7734 27.832 c 0
 92.7734 49.8047 104.98 62.5 128.906 64.9414 c 1
 153.809 64.9414 166.504 52.7344 166.992 27.832 c 0
EndSplineSet
EndChar
StartChar: quotedbl
Encoding: 34 34 2
OldEncoding: 34
Width: 315
Flags: HW
HStem: 290 21<89 103 103 103 207 221 221 221> 441 20<86 105.5 204 223.5>
Fore
244 432 m 0
 244 425 241 402 234 365 c 0
 227 326 224 302 221 290 c 1
 207 290 l 1
 186 407 184 424 184 432 c 0
 184 451 194 461 214 461 c 0
 233 461 243 451 244 432 c 0
126 432 m 0
 126 425 123 402 116 365 c 0
 109 326 106 302 103 290 c 1
 89 290 l 1
 68 407 66 424 66 432 c 0
 66 451 76 461 96 461 c 0
 115 461 125 451 126 432 c 0
EndSplineSet
MinimumDistance: x8,-1 
Back
244.141 432.129 m 0
 244.141 424.805 240.723 402.344 233.887 365.234 c 0
 230.469 345.703 228.027 329.59 226.074 317.383 c 0
 224.121 305.176 222.168 295.898 221.191 290.039 c 1
 207.031 290.039 l 1
 201.66 319.336 197.266 342.773 194.336 360.352 c 0
 191.406 377.93 188.965 392.09 187.5 401.855 c 0
 186.035 412.109 185.059 418.945 184.57 422.852 c 0
 184.082 426.758 184.082 430.176 184.082 432.129 c 0
 184.082 451.172 193.848 460.938 213.867 460.938 c 0
 233.398 460.938 243.164 451.172 244.141 432.129 c 0
125.977 432.129 m 0
 125.977 424.805 122.559 402.344 116.211 365.234 c 0
 112.793 345.703 109.863 329.59 107.91 317.383 c 0
 105.957 305.176 104.492 295.898 103.027 290.039 c 1
 88.8672 290.039 l 1
 83.4961 319.336 79.5898 342.773 76.6602 360.352 c 0
 73.7305 377.93 71.2891 392.09 69.3359 401.855 c 0
 67.8711 412.109 66.8945 418.945 66.4062 422.852 c 0
 66.4062 426.758 65.918 430.176 65.918 432.129 c 0
 65.918 451.172 76.1719 460.938 96.1914 460.938 c 0
 115.234 460.938 125.488 451.172 125.977 432.129 c 0
EndSplineSet
EndChar
StartChar: numbersign
Encoding: 35 35 3
OldEncoding: 35
Width: 378
Flags: HW
HStem: 0 186<66 95 199 226> 148 38<15 88 88 88 134 220 220 220 266 334> 277 38<34 109 109 109 155 240 240 240 285 351> 277 175<149 175 280 305>
Fore
351 277 m 1
 280 277 l 1
 266 186 l 1
 334 186 l 1
 334 148 l 1
 259 148 l 1
 239 0 l 1
 199 0 l 1
 220 148 l 1
 128 148 l 1
 106 0 l 1
 66 0 l 1
 88 148 l 1
 15 148 l 1
 15 186 l 1
 95 186 l 1
 109 277 l 1
 34 277 l 1
 34 315 l 1
 115 315 l 1
 136 452 l 1
 175 452 l 1
 155 315 l 1
 246 315 l 1
 266 452 l 1
 305 452 l 1
 285 315 l 1
 351 315 l 1
 351 277 l 1
240 277 m 1
 149 277 l 1
 134 186 l 1
 226 186 l 1
 240 277 l 1
EndSplineSet
MinimumDistance: x21,-1 
Back
351.074 276.855 m 1
 279.785 276.855 l 1
 266.113 186.035 l 1
 333.984 186.035 l 1
 333.984 147.949 l 1
 258.789 147.949 l 1
 238.77 0 l 1
 199.219 0 l 1
 220.215 147.949 l 1
 127.93 147.949 l 1
 105.957 0 l 1
 65.918 0 l 1
 87.8906 147.949 l 1
 15.1367 147.949 l 1
 15.1367 186.035 l 1
 95.2148 186.035 l 1
 108.887 276.855 l 1
 34.1797 276.855 l 1
 34.1797 314.941 l 1
 115.234 314.941 l 1
 136.23 452.148 l 1
 174.805 452.148 l 1
 154.785 314.941 l 1
 246.094 314.941 l 1
 266.113 452.148 l 1
 305.176 452.148 l 1
 285.156 314.941 l 1
 351.074 314.941 l 1
 351.074 276.855 l 1
240.234 276.855 m 1
 148.926 276.855 l 1
 133.789 186.035 l 1
 226.074 186.035 l 1
 240.234 276.855 l 1
EndSplineSet
EndChar
StartChar: dollar
Encoding: 36 36 4
OldEncoding: 36
Width: 386
Flags: HW
HStem: -59 21<173 197 197 197> 0 20<149.5 173> 489 20<173 197 173 173>
VStem: 43 154<36 127 36 36> 48 52<364 374.5> 172 25<285 285 285 446> 172 137<350 428> 173 24<-59 0 20 205 465 509> 277 55<88 117>
Fore
332 122 m 0
 332 54 287 13 197 0 c 1
 197 -59 l 1
 173 -59 l 1
 173 0 l 1
 126 0 82 12 43 36 c 1
 43 127 l 1
 53 127 l 1
 69 56 109 20 173 20 c 1
 173 217 l 1
 133 240 104 259 87 275 c 0
 61 300 48 328 48 358 c 0
 48 391 61 417 87 437 c 0
 110 456 138 465 173 465 c 1
 173 509 l 1
 197 509 l 1
 197 465 l 1
 254 455 l 2
 275 451 294 442 309 428 c 1
 309 350 l 1
 299 350 l 1
 288 408 254 440 197 446 c 1
 197 274 l 1
 262 234 l 1
 298 206 l 1
 321 183 332 155 332 122 c 0
172 285 m 1
 172 446 l 1
 124 438 100 413 100 372 c 0
 100 356 107 340 120 325 c 1
 172 285 l 1
277 106 m 0
 277 128 269 147 253 164 c 0
 245 173 226 186 197 205 c 1
 197 20 l 1
 250 29 277 58 277 106 c 0
EndSplineSet
MinimumDistance: x17,-1 
Back
332.031 122.07 m 0
 332.031 54.1992 287.109 13.1836 196.777 0 c 1
 196.777 -59.082 l 1
 172.852 -59.082 l 1
 172.852 0 l 1
 125.488 0 82.5195 12.207 42.9688 36.1328 c 1
 42.9688 126.953 l 1
 53.2227 126.953 l 1
 68.8477 55.6641 108.887 20.0195 172.852 20.0195 c 1
 172.852 216.797 l 1
 152.832 228.516 135.742 238.77 121.582 248.535 c 0
 106.934 258.301 95.7031 267.09 86.9141 274.902 c 0
 61.0352 300.293 47.8516 328.125 47.8516 357.91 c 0
 47.8516 390.625 61.0352 416.992 86.9141 437.012 c 0
 109.863 455.566 138.184 464.844 172.852 464.844 c 1
 172.852 508.789 l 1
 196.777 508.789 l 1
 196.777 464.844 l 1
 253.906 455.078 l 2
 275.391 451.172 293.457 441.895 309.082 428.223 c 1
 309.082 350.098 l 1
 298.828 350.098 l 1
 288.574 408.203 254.395 439.941 196.777 445.801 c 1
 196.777 273.926 l 1
 262.207 233.887 l 1
 297.852 206.055 l 1
 320.801 183.105 332.031 155.273 332.031 122.07 c 0
171.875 285.156 m 1
 171.875 445.801 l 1
 124.023 437.988 100.098 413.574 100.098 372.07 c 0
 100.098 355.957 106.445 340.332 120.117 325.195 c 1
 171.875 285.156 l 1
276.855 105.957 m 0
 276.855 127.93 269.043 147.461 252.93 164.062 c 0
 245.117 172.852 226.562 186.523 196.777 205.078 c 1
 196.777 20.0195 l 1
 250.488 29.2969 276.855 58.1055 276.855 105.957 c 0
EndSplineSet
EndChar
StartChar: percent
Encoding: 37 37 5
OldEncoding: 37
Width: 586
Flags: HW
HStem: -7 21<143 176 176 176> 0 21<399 423> 202 24<126.5 147.5> 237 23<460.5 490.5> 453 20<418 446 418 418>
VStem: 45 53<271 291.5> 316 53<68 86.5>
Fore
446 473 m 1
 176 -7 l 1
 143 -7 l 1
 387 426 l 1
 362 414 337 408 312 408 c 0
 291 408 275 410 266 415 c 1
 271 384 l 1
 271 354 264 324 250 295 c 0
 247 287 241 277 232 266 c 1
 203 223 168 202 127 202 c 0
 76 202 45 245 45 297 c 0
 45 338 60 375 90 410 c 0
 121 445 156 463 195 463 c 0
 210 463 227 457 248 444 c 1
 271 432 292 426 309 426 c 0
 346 426 383 442 418 473 c 1
 446 473 l 1
542 183 m 0
 542 140 530 100 505 63 c 0
 478 21 444 0 402 0 c 0
 346 0 316 40 316 96 c 0
 316 135 331 172 362 207 c 0
 393 242 428 260 466 260 c 0
 517 260 542 234 542 183 c 0
253 387 m 0
 253 395 251 406 247 420 c 1
 234 423 222 428 211 435 c 2
 202 441 l 1
 199 442 l 2
 175 442 151 420 128 377 c 0
 108 338 98 305 98 278 c 0
 98 243 112 226 141 226 c 0
 172 226 200 246 223 285 c 0
 243 319 253 353 253 387 c 0
524 178 m 0
 524 210 506 237 475 237 c 0
 446 237 420 214 397 167 c 0
 378 130 369 99 369 74 c 0
 369 39 384 21 414 21 c 0
 444 21 470 40 493 79 c 0
 514 112 524 145 524 178 c 0
EndSplineSet
MinimumDistance: x16,-1 
Back
445.801 473.145 m 1
 175.781 -6.83594 l 1
 143.066 -6.83594 l 1
 387.207 425.781 l 1
 362.305 414.062 337.402 408.203 312.012 408.203 c 0
 290.527 408.203 275.391 410.156 266.113 415.039 c 1
 270.996 383.789 l 1
 270.996 354.004 264.16 324.219 250 294.922 c 0
 246.582 287.109 240.723 277.344 231.934 266.113 c 0
 203.125 223.145 168.457 202.148 126.953 202.148 c 0
 101.562 202.148 81.543 211.426 66.8945 229.98 c 0
 52.2461 248.535 44.9219 270.996 44.9219 296.875 c 0
 44.9219 337.891 60.0586 375.488 89.8438 410.156 c 0
 121.094 445.312 156.25 462.891 194.824 462.891 c 0
 209.473 462.891 227.539 456.543 248.047 443.848 c 1
 271.484 432.129 291.504 425.781 309.082 425.781 c 0
 346.191 425.781 382.812 441.895 417.969 473.145 c 1
 445.801 473.145 l 1
541.992 183.105 m 0
 541.992 139.648 529.785 99.6094 504.883 62.9883 c 0
 478.516 20.9961 443.848 0 401.855 0 c 0
 374.023 0 352.539 8.78906 337.891 26.8555 c 0
 323.242 44.9219 315.918 67.8711 315.918 96.1914 c 0
 315.918 135.254 331.543 172.363 361.816 207.031 c 0
 393.555 242.188 428.223 259.766 465.82 259.766 c 0
 516.602 259.766 541.992 234.375 541.992 183.105 c 0
252.93 387.207 m 0
 252.93 395.02 250.977 405.762 247.07 419.922 c 1
 234.375 423.34 222.168 428.223 210.938 435.059 c 2
 202.148 440.918 l 1
 199.219 441.895 l 2
 174.805 441.895 151.367 420.41 127.93 376.953 c 0
 107.91 338.379 98.1445 305.176 98.1445 277.832 c 0
 98.1445 243.164 112.305 226.074 141.113 226.074 c 0
 172.363 226.074 199.707 245.605 223.145 285.156 c 0
 243.164 318.848 252.93 353.027 252.93 387.207 c 0
523.926 178.223 m 0
 523.926 193.848 519.531 208.008 511.23 219.727 c 0
 502.441 230.957 490.234 236.816 475.098 236.816 c 0
 445.801 236.816 419.434 213.867 396.973 166.992 c 0
 378.418 130.371 369.141 99.1211 369.141 74.2188 c 0
 369.141 38.5742 383.789 20.9961 414.062 20.9961 c 0
 443.848 20.9961 470.215 40.5273 493.164 79.1016 c 0
 513.672 111.816 523.926 144.531 523.926 178.223 c 0
EndSplineSet
EndChar
StartChar: ampersand
Encoding: 38 38 6
OldEncoding: 38
Width: 572
Flags: HW
HStem: -7 33<166.5 171> 440 21<240.5 274>
VStem: 41 63<97.5 125> 312 36<364.5 398>
Fore
525 68 m 1
 522 56 513 43 501 28 c 1
 479 5 452 -7 421 -7 c 0
 386 -7 347 13 305 53 c 1
 275 28 l 1
 251 13 l 1
 220 0 188 -7 154 -7 c 0
 83 -7 41 27 41 98 c 0
 41 152 77 200 148 242 c 2
 175 257 l 1
 157 313 l 1
 150 354 l 1
 150 413 195 461 255 461 c 0
 306 461 348 430 348 379 c 0
 348 350 336 324 312 303 c 0
 300 293 277 279 242 262 c 1
 269 210 298 163 333 122 c 1
 374 175 394 216 394 245 c 0
 394 266 379 276 350 276 c 1
 350 291 l 1
 499 291 l 1
 499 276 l 1
 484 274 472 271 464 267 c 0
 455 263 445 253 434 236 c 1
 417 205 l 1
 396 169 375 134 348 102 c 1
 363 78 384 59 415 47 c 1
 424 42 435 40 449 40 c 0
 466 40 479 43 490 50 c 0
 497 53 503 61 514 76 c 1
 525 68 l 1
312 382 m 0
 312 414 290 440 258 440 c 0
 223 440 205 420 205 380 c 0
 205 352 214 320 232 284 c 1
 285 311 312 344 312 382 c 0
289 71 m 1
 257 110 221 163 184 234 c 1
 153 213 l 1
 133 194 l 1
 114 171 104 148 104 123 c 0
 104 72 141 26 192 26 c 0
 221 26 253 41 289 71 c 1
EndSplineSet
MinimumDistance: x38,-1 
Back
524.902 67.8711 m 1
 523.438 62.0117 520.996 55.6641 516.602 48.8281 c 0
 512.207 42.4805 506.836 35.1562 500.977 27.832 c 0
 479.004 4.88281 452.148 -6.83594 420.898 -6.83594 c 0
 385.742 -6.83594 347.168 13.1836 305.176 53.2227 c 1
 274.902 27.832 l 1
 250.977 13.1836 l 1
 220.215 -0.488281 187.988 -6.83594 153.809 -6.83594 c 0
 118.652 -6.83594 90.8203 1.46484 70.8008 19.043 c 0
 50.7812 36.1328 41.0156 62.5 41.0156 98.1445 c 0
 41.0156 151.855 76.6602 200.195 147.949 242.188 c 2
 174.805 256.836 l 1
 157.227 312.988 l 1
 149.902 354.004 l 1
 149.902 368.652 152.832 382.324 158.203 395.508 c 0
 163.574 408.691 170.898 419.922 180.176 429.688 c 0
 189.453 438.965 200.684 446.777 213.379 452.637 c 0
 226.562 458.008 240.234 460.938 254.883 460.938 c 0
 280.273 460.938 302.246 453.613 320.312 438.965 c 0
 338.867 424.316 348.145 404.297 348.145 378.906 c 0
 348.145 349.609 335.938 324.219 312.012 303.223 c 0
 299.805 292.969 276.855 279.297 242.188 262.207 c 1
 255.371 235.84 269.531 211.426 284.668 187.988 c 0
 299.316 164.551 315.43 142.578 333.008 122.07 c 1
 373.535 174.805 394.043 215.82 394.043 245.117 c 0
 394.043 265.625 379.395 275.879 350.098 275.879 c 1
 350.098 291.016 l 1
 499.023 291.016 l 1
 499.023 275.879 l 1
 483.887 273.926 472.168 270.996 463.867 267.09 c 0
 454.59 263.184 444.824 252.441 434.082 235.84 c 1
 416.992 205.078 l 2
 406.25 187.012 395.508 169.434 384.277 151.855 c 0
 373.535 134.766 361.328 118.164 348.145 102.051 c 1
 355.469 89.8438 364.258 79.1016 375.488 69.8242 c 0
 386.719 60.5469 399.902 53.2227 415.039 46.875 c 0
 423.828 42.4805 435.059 40.0391 449.219 40.0391 c 0
 465.82 40.0391 479.492 43.457 490.234 49.8047 c 0
 493.164 51.2695 497.07 54.1992 500.488 58.5938 c 0
 504.395 62.9883 508.789 68.8477 514.16 76.1719 c 1
 524.902 67.8711 l 1
312.012 381.836 m 0
 312.012 397.949 307.129 411.621 296.875 422.852 c 0
 287.109 434.57 273.926 439.941 257.812 439.941 c 0
 222.656 439.941 205.078 419.922 205.078 379.883 c 0
 205.078 352.051 213.867 319.824 231.934 284.18 c 1
 285.156 311.523 312.012 344.238 312.012 381.836 c 0
289.062 70.8008 m 1
 272.949 90.332 256.348 113.281 238.281 140.625 c 0
 220.703 167.48 202.637 198.73 184.082 233.887 c 1
 152.832 212.891 l 1
 132.812 193.848 l 1
 113.77 171.387 104.004 147.461 104.004 123.047 c 0
 104.004 110.352 105.957 98.1445 110.352 86.4258 c 0
 114.746 74.707 121.094 64.4531 128.906 55.6641 c 0
 137.207 46.3867 146.484 39.5508 157.227 34.1797 c 0
 167.48 28.8086 179.199 25.8789 191.895 25.8789 c 0
 220.703 25.8789 252.93 41.0156 289.062 70.8008 c 1
EndSplineSet
EndChar
StartChar: quotesingle
Encoding: 39 39 7
OldEncoding: 39
Width: 163
Flags: HW
HStem: 303 21<53 53> 453 20<75 81>
VStem: 34 97
Fore
131 406 m 0
 131 389 122 368 105 345 c 1
 89 326 72 312 53 303 c 1
 47 316 l 1
 85 341 104 366 104 391 c 0
 104 397 101 400 94 400 c 2
 86 399 l 1
 77 398 l 2
 48 398 34 410 34 433 c 0
 34 456 48 470 75 473 c 0
 87 473 98 469 109 461 c 0
 124 448 131 430 131 406 c 0
EndSplineSet
Back
130.859 405.762 m 0
 130.859 388.672 122.559 368.164 104.98 345.215 c 0
 88.8672 325.684 71.7773 311.523 53.2227 303.223 c 1
 46.875 315.918 l 1
 84.9609 341.309 104.004 366.211 104.004 391.113 c 0
 104.004 396.973 100.586 399.902 94.2383 399.902 c 2
 85.9375 398.926 l 1
 77.1484 397.949 l 2
 48.3398 397.949 34.1797 409.668 34.1797 433.105 c 0
 34.1797 456.543 47.8516 469.727 75.1953 473.145 c 1
 86.9141 473.145 98.1445 469.238 108.887 460.938 c 0
 123.535 448.242 130.859 430.176 130.859 405.762 c 0
EndSplineSet
EndChar
StartChar: parenleft
Encoding: 40 40 8
OldEncoding: 40
Width: 257
Flags: HW
HStem: -122 21<226 226> 453 20<228 228>
VStem: 56 60 56 63
Fore
235 -111 m 1
 226 -122 l 1
 172 -93 126 -44 89 27 c 0
 82 42 76 54 72 67 c 0
 61 99 56 138 56 183 c 0
 56 306 113 402 228 473 c 1
 235 462 l 1
 198 433 172 405 156 377 c 0
 127 323 113 260 116 188 c 1
 119 105 l 1
 120 86 123 65 130 40 c 0
 148 -27 183 -77 235 -111 c 1
EndSplineSet
Back
234.863 -110.84 m 1
 226.074 -122.07 l 1
 171.875 -93.2617 126.465 -43.457 88.8672 26.8555 c 0
 85.4492 34.1797 82.5195 41.0156 79.5898 47.3633 c 0
 76.6602 53.7109 74.2188 60.5469 71.7773 66.8945 c 0
 61.5234 99.1211 56.1523 137.695 56.1523 183.105 c 0
 56.1523 305.664 113.281 402.344 228.027 473.145 c 1
 234.863 461.914 l 1
 198.242 433.105 171.875 404.785 155.762 376.953 c 0
 126.465 323.242 113.281 259.766 116.211 187.988 c 2
 119.141 104.98 l 1
 119.629 95.7031 120.605 85.4492 122.559 75.1953 c 0
 124.023 64.4531 126.465 52.7344 129.883 40.0391 c 0
 147.949 -26.8555 183.105 -77.1484 234.863 -110.84 c 1
EndSplineSet
EndChar
StartChar: parenright
Encoding: 41 41 9
OldEncoding: 41
Width: 257
Flags: HW
HStem: -122 21<49 49> 453 20<51 51>
VStem: 161 60<139.5 192.5>
Fore
221 166 m 0
 221 45 157 -58 49 -122 c 1
 42 -111 l 1
 106 -60 135 -16 151 56 c 0
 158 83 161 118 161 161 c 0
 161 224 156 273 147 309 c 0
 128 377 93 428 42 462 c 1
 51 473 l 1
 104 444 145 401 176 342 c 0
 206 287 221 229 221 166 c 0
EndSplineSet
MinimumDistance: x0,-1 
Back
221.191 166.016 m 0
 221.191 105.469 206.055 50.293 175.293 0.488281 c 0
 145.02 -49.3164 103.027 -89.8438 48.8281 -122.07 c 1
 41.9922 -110.84 l 1
 58.1055 -98.1445 71.7773 -85.9375 83.9844 -73.7305 c 0
 96.1914 -61.0352 105.957 -48.3398 114.258 -35.6445 c 0
 123.047 -22.4609 129.883 -8.30078 136.23 6.34766 c 0
 142.09 21.4844 146.973 38.0859 150.879 56.1523 c 0
 157.715 83.4961 161.133 118.164 161.133 161.133 c 0
 161.133 223.633 156.25 272.949 146.973 309.082 c 0
 128.418 376.953 93.2617 428.223 41.9922 461.914 c 1
 50.7812 473.145 l 1
 103.516 444.336 145.508 400.879 175.781 341.797 c 0
 206.055 287.109 221.191 228.516 221.191 166.016 c 0
EndSplineSet
EndChar
StartChar: asterisk
Encoding: 42 42 10
OldEncoding: 42
Width: 386
Flags: HW
HStem: 185 21<188 196> 453 20<190.5 207>
VStem: 70 134
Fore
324 270 m 0
 324 253 316 245 299 245 c 0
 290 245 277 255 258 276 c 0
 237 299 220 312 209 317 c 2
 204 319 l 1
 204 314 l 2
 204 288 207 265 214 246 c 1
 224 215 l 1
 224 198 215 188 196 185 c 1
 180 185 172 194 172 213 c 1
 181 251 l 1
 188 277 191 294 191 301 c 2
 191 314 l 1
 190 319 l 1
 157 296 l 1
 137 276 l 1
 119 255 l 1
 111 249 103 246 94 246 c 0
 78 246 70 253 70 268 c 0
 70 283 82 294 106 300 c 0
 143 310 170 320 186 330 c 1
 178 335 l 2
 175 338 154 345 113 356 c 0
 84 365 70 376 70 390 c 0
 70 395 72 401 76 407 c 0
 80 411 86 413 93 414 c 0
 104 414 116 406 129 391 c 0
 148 368 169 351 191 340 c 1
 191 349 l 2
 191 362 188 378 182 399 c 0
 176 421 173 437 173 446 c 0
 173 464 182 473 199 473 c 0
 215 473 223 464 223 446 c 1
 214 408 l 1
 207 382 204 365 204 357 c 2
 204 339 l 1
 209 342 l 2
 224 351 242 367 261 388 c 0
 277 406 289 415 298 415 c 0
 315 415 324 407 324 390 c 0
 324 378 319 369 310 364 c 1
 271 355 l 2
 246 350 226 341 210 329 c 1
 215 325 l 1
 245 311 l 1
 291 300 l 2
 313 295 324 285 324 270 c 0
EndSplineSet
MinimumDistance: x4,-1 
Back
324.219 270.02 m 0
 324.219 253.418 315.43 245.117 298.828 245.117 c 0
 290.527 245.117 276.855 255.371 257.812 275.879 c 0
 247.559 287.109 237.793 296.387 229.492 303.223 c 0
 221.191 309.57 214.355 314.453 208.984 316.895 c 2
 204.102 318.848 l 1
 204.102 313.965 l 2
 204.102 288.086 207.52 265.137 213.867 246.094 c 2
 224.121 214.844 l 1
 224.121 197.754 214.844 187.5 195.801 185.059 c 1
 180.176 185.059 171.875 194.336 171.875 212.891 c 1
 181.152 250.977 l 1
 187.5 276.855 190.918 293.457 190.918 300.781 c 2
 190.918 313.965 l 1
 189.941 318.848 l 1
 157.227 295.898 l 1
 137.207 275.879 l 1
 119.141 254.883 l 1
 110.84 249.023 102.539 246.094 94.2383 246.094 c 0
 78.125 246.094 69.8242 253.418 69.8242 268.066 c 0
 69.8242 283.203 82.0312 293.945 105.957 299.805 c 0
 143.555 310.059 169.922 319.824 186.035 330.078 c 1
 178.223 334.961 l 2
 175.293 337.891 153.809 344.727 112.793 355.957 c 0
 84.4727 364.746 69.8242 375.977 69.8242 390.137 c 0
 69.8242 395.508 71.7773 400.879 76.1719 407.227 c 0
 80.0781 411.133 85.4492 413.574 92.7734 414.062 c 0
 103.516 414.062 115.723 406.25 128.906 391.113 c 0
 148.438 367.676 168.945 350.586 190.918 339.844 c 1
 190.918 349.121 l 2
 190.918 361.816 187.988 378.418 182.129 398.926 c 0
 175.781 420.898 172.852 436.523 172.852 445.801 c 0
 172.852 463.867 181.641 473.145 199.219 473.145 c 0
 214.844 473.145 223.145 463.867 223.145 445.801 c 1
 213.867 408.203 l 1
 207.52 381.836 204.102 365.234 204.102 356.934 c 2
 204.102 338.867 l 1
 208.984 341.797 l 2
 224.121 351.562 241.699 366.699 261.23 388.184 c 0
 276.855 405.762 289.551 415.039 297.852 415.039 c 0
 315.43 415.039 324.219 406.738 324.219 390.137 c 0
 324.219 377.93 319.336 369.141 310.059 363.77 c 1
 270.996 354.98 l 2
 246.094 349.609 226.074 340.82 209.961 329.102 c 1
 214.844 325.195 l 1
 245.117 311.035 l 1
 291.016 299.805 l 2
 312.988 295.41 324.219 285.156 324.219 270.02 c 0
EndSplineSet
EndChar
StartChar: plus
Encoding: 43 43 11
OldEncoding: 43
Width: 436
Flags: HW
HStem: 0 21<202 237 237 237> 160 35<43 202 237 396> 334 20<202 237 202 202>
VStem: 202 35<0 160 195 354>
Fore
396 160 m 1
 237 160 l 1
 237 0 l 1
 202 0 l 1
 202 160 l 1
 43 160 l 1
 43 195 l 1
 202 195 l 1
 202 354 l 1
 237 354 l 1
 237 195 l 1
 396 195 l 1
 396 160 l 1
EndSplineSet
MinimumDistance: x0,-1 y7,9 y7,8 y1,3 y1,2 x4,6 x4,5 x1,11 x1,0 
Back
395.996 160.156 m 1
 236.816 160.156 l 1
 236.816 0 l 1
 202.148 0 l 1
 202.148 160.156 l 1
 42.9688 160.156 l 1
 42.9688 194.824 l 1
 202.148 194.824 l 1
 202.148 354.004 l 1
 236.816 354.004 l 1
 236.816 194.824 l 1
 395.996 194.824 l 1
 395.996 160.156 l 1
EndSplineSet
EndChar
StartChar: comma
Encoding: 44 44 12
OldEncoding: 44
Width: 174
Flags: HW
HStem: -97 21<60 60> -2 21<70.5 85> 0 21<101 104.5> 51 20<68.5 100>
Fore
138 4 m 0
 138 -11 129 -31 112 -54 c 0
 95 -76 78 -90 60 -97 c 1
 54 -83 l 1
 92 -59 111 -34 111 -9 c 0
 111 -3 108 0 101 0 c 2
 93 -1 l 1
 85 -2 l 2
 56 -2 41 9 41 31 c 0
 41 58 55 71 82 71 c 0
 118 71 138 41 138 4 c 0
EndSplineSet
Back
138.184 3.90625 m 0
 138.184 -11.2305 129.395 -30.7617 111.816 -54.1992 c 0
 95.2148 -76.1719 78.125 -90.332 60.0586 -97.168 c 1
 54.1992 -83.0078 l 1
 91.7969 -59.082 110.84 -34.1797 110.84 -8.78906 c 0
 110.84 -2.92969 107.91 0 101.074 0 c 2
 92.7734 -0.976562 l 1
 84.9609 -1.95312 l 2
 55.6641 -1.95312 41.0156 8.78906 41.0156 30.7617 c 0
 41.0156 57.6172 54.6875 70.8008 82.0312 70.8008 c 0
 100.098 70.8008 113.77 64.4531 123.535 51.2695 c 0
 133.301 38.5742 138.184 22.4609 138.184 3.90625 c 0
EndSplineSet
EndChar
StartChar: hyphen
Encoding: 45 45 13
OldEncoding: 45
Width: 270
Flags: HW
HStem: 129 33<26 243>
Fore
243 129 m 1
 26 129 l 1
 26 162 l 1
 243 162 l 1
 243 129 l 1
EndSplineSet
Back
243.164 128.906 m 1
 25.8789 128.906 l 1
 25.8789 162.109 l 1
 243.164 162.109 l 1
 243.164 128.906 l 1
EndSplineSet
EndChar
StartChar: period
Encoding: 46 46 14
OldEncoding: 46
Width: 193
Flags: HW
HStem: -6 21<89 109> 50 20<88.5 109>
Fore
139 30 m 0
 139 10 119 -6 99 -6 c 0
 79 -6 61 10 61 30 c 0
 61 51 78 70 99 70 c 0
 119 70 139 50 139 30 c 0
EndSplineSet
Back
139.16 29.7852 m 0
 139.16 20.0195 134.766 11.7188 126.465 4.39453 c 0
 118.164 -2.44141 108.887 -5.85938 99.1211 -5.85938 c 0
 88.8672 -5.85938 80.0781 -2.44141 72.2656 4.39453 c 0
 64.9414 11.7188 61.0352 20.0195 61.0352 29.7852 c 0
 61.0352 40.5273 64.4531 49.8047 71.7773 58.1055 c 0
 79.1016 65.918 88.3789 69.8242 99.1211 69.8242 c 0
 108.887 69.8242 118.164 65.918 126.465 57.6172 c 0
 134.766 49.3164 139.16 40.0391 139.16 29.7852 c 0
EndSplineSet
EndChar
StartChar: slash
Encoding: 47 47 15
OldEncoding: 47
Width: 232
Flags: HW
HStem: -121 21<0 36 36 36> 453 20<196 233 196 196>
Fore
233 473 m 1
 36 -121 l 1
 0 -121 l 1
 196 473 l 1
 233 473 l 1
EndSplineSet
Back
232.91 473.145 m 1
 36.1328 -121.094 l 1
 0 -121.094 l 1
 195.801 473.145 l 1
 232.91 473.145 l 1
EndSplineSet
EndChar
StartChar: zero
Encoding: 48 48 16
OldEncoding: 48
Width: 378
Flags: HW
HStem: -8 21<130.5 216> 441 20<130.5 216>
VStem: 34 65<174.5 276.5> 277 65<197 254.5>
Fore
342 226 m 0
 342 168 332 118 312 77 c 0
 285 20 244 -8 188 -8 c 0
 73 -8 34 123 34 226 c 0
 34 327 73 461 188 461 c 0
 244 461 285 432 312 374 c 0
 332 332 342 283 342 226 c 0
277 226 m 0
 277 371 247 444 188 444 c 0
 129 444 99 371 99 226 c 0
 99 81 129 8 188 8 c 0
 247 8 277 81 277 226 c 0
EndSplineSet
MinimumDistance: x2,-1 
Back
341.797 226.074 m 0
 341.797 167.969 332.031 118.164 312.012 77.1484 c 0
 285.156 20.5078 244.141 -7.8125 187.988 -7.8125 c 0
 159.18 -7.8125 135.254 -0.488281 115.723 14.1602 c 0
 95.7031 28.8086 80.0781 47.3633 67.8711 70.3125 c 0
 56.1523 93.2617 47.3633 118.652 41.9922 145.996 c 0
 36.6211 173.34 34.1797 200.195 34.1797 226.074 c 0
 34.1797 251.465 36.6211 277.832 41.9922 305.664 c 0
 47.3633 333.008 56.1523 358.398 67.8711 381.348 c 0
 80.0781 404.297 95.7031 423.34 115.723 438.477 c 0
 135.254 453.613 159.18 460.938 187.988 460.938 c 0
 244.141 460.938 285.156 432.129 312.012 374.023 c 0
 332.031 332.031 341.797 282.715 341.797 226.074 c 0
276.855 226.074 m 0
 276.855 371.094 247.559 443.848 187.988 443.848 c 0
 128.906 443.848 99.1211 371.094 99.1211 226.074 c 0
 99.1211 80.5664 128.906 7.8125 187.988 7.8125 c 0
 247.559 7.8125 276.855 80.5664 276.855 226.074 c 0
EndSplineSet
EndChar
StartChar: one
Encoding: 49 49 17
OldEncoding: 49
Width: 381
Flags: HW
HStem: 0 21<105 293 293 293> 441 20<222 222>
VStem: 169 59<51 63 63 372>
Fore
293 0 m 1
 105 0 l 1
 105 10 l 1
 152 10 169 20 169 63 c 2
 169 372 l 2
 169 393 161 404 146 404 c 0
 143 404 128 399 100 390 c 1
 100 398 l 1
 222 461 l 1
 228 460 l 1
 228 51 l 2
 228 32 234 19 247 14 c 0
 255 11 270 10 293 10 c 1
 293 0 l 1
EndSplineSet
MinimumDistance: x9,-1 
Back
292.969 0 m 1
 104.98 0 l 1
 104.98 9.76562 l 1
 128.418 9.76562 145.02 13.6719 154.297 20.5078 c 0
 164.062 27.3438 168.945 41.5039 168.945 62.9883 c 2
 168.945 372.07 l 2
 168.945 393.555 161.133 403.809 145.996 403.809 c 0
 143.555 403.809 127.93 399.414 100.098 390.137 c 1
 100.098 397.949 l 1
 222.168 460.938 l 1
 228.027 459.961 l 1
 228.027 50.7812 l 2
 228.027 31.7383 234.375 19.5312 247.07 14.1602 c 0
 254.883 11.2305 270.508 9.76562 292.969 9.76562 c 1
 292.969 0 l 1
EndSplineSet
EndChar
StartChar: two
Encoding: 50 50 18
OldEncoding: 50
Width: 378
Flags: HW
HStem: 0 51<110 273> 411 50<147 187>
VStem: 254 58<313.5 345>
Fore
346 93 m 1
 309 0 l 1
 43 0 l 1
 43 8 l 1
 165 138 l 2
 224 200 254 258 254 313 c 0
 254 377 219 411 155 411 c 0
 128 411 106 401 90 381 c 0
 79 368 69 348 58 321 c 1
 44 325 l 1
 57 409 105 461 189 461 c 0
 258 461 312 410 312 338 c 0
 312 289 283 233 225 172 c 2
 110 51 l 1
 273 51 l 2
 290 51 303 55 312 62 c 0
 319 67 327 78 337 96 c 1
 346 93 l 1
EndSplineSet
MinimumDistance: x11,-1 
Back
346.191 92.7734 m 1
 309.082 0 l 1
 42.9688 0 l 1
 42.9688 7.8125 l 1
 165.039 138.184 l 2
 224.121 200.195 253.906 258.301 253.906 312.988 c 0
 253.906 345.215 245.605 369.141 228.516 386.23 c 0
 211.426 402.832 187.012 411.133 154.785 411.133 c 0
 127.441 411.133 105.957 400.879 89.8438 380.859 c 0
 79.1016 368.164 68.8477 348.145 58.1055 320.801 c 1
 43.9453 325.195 l 1
 50.7812 367.188 65.918 400.391 89.8438 424.316 c 0
 113.77 448.73 146.973 460.938 188.965 460.938 c 0
 206.543 460.938 222.656 458.008 237.305 452.148 c 0
 252.441 445.801 265.625 437.5 276.367 426.27 c 0
 287.598 415.527 296.387 402.344 302.734 387.695 c 0
 308.594 372.559 312.012 355.957 312.012 337.891 c 0
 312.012 288.574 283.203 233.398 225.098 171.875 c 2
 109.863 50.7812 l 1
 272.949 50.7812 l 2
 289.551 50.7812 302.734 54.6875 312.012 62.0117 c 0
 318.848 66.8945 327.148 78.125 336.914 96.1914 c 1
 346.191 92.7734 l 1
EndSplineSet
EndChar
StartChar: three
Encoding: 51 51 19
OldEncoding: 51
Width: 379
Flags: HW
HStem: -8 22 420 41<154.5 187>
VStem: 240 54<352.5 370.5> 268 49<121.5 128>
Fore
317 147 m 0
 317 96 298 57 259 29 c 0
 223 4 179 -8 128 -8 c 0
 108 -8 93 -6 84 -1 c 1
 63 4 52 14 52 29 c 0
 52 45 61 53 78 53 c 0
 87 53 103 47 124 34 c 0
 147 21 165 14 176 14 c 0
 205 14 228 25 244 47 c 1
 260 66 268 91 268 120 c 0
 268 136 265 150 258 163 c 1
 243 204 200 225 127 225 c 1
 126 234 l 1
 202 258 240 296 240 349 c 0
 240 392 209 420 165 420 c 0
 124 420 90 396 64 348 c 1
 53 351 l 1
 76 424 121 461 188 461 c 0
 248 461 294 429 294 370 c 0
 294 335 273 303 231 274 c 1
 254 263 272 252 284 240 c 0
 306 218 317 187 317 147 c 0
EndSplineSet
MinimumDistance: x0,-1 
Back
316.895 146.973 m 0
 316.895 96.1914 297.852 57.1289 258.789 28.8086 c 0
 223.145 4.39453 179.199 -7.8125 127.93 -7.8125 c 0
 107.91 -7.8125 93.2617 -5.85938 83.9844 -0.976562 c 1
 62.5 4.39453 51.7578 14.1602 51.7578 28.8086 c 0
 51.7578 44.9219 60.5469 53.2227 78.125 53.2227 c 0
 87.4023 53.2227 102.539 46.875 124.023 34.1797 c 0
 147.461 20.5078 164.551 14.1602 175.781 14.1602 c 0
 205.566 14.1602 228.027 24.9023 244.141 46.875 c 1
 259.766 66.4062 268.066 90.8203 268.066 120.117 c 0
 268.066 136.23 264.648 150.391 257.812 163.086 c 1
 243.164 204.102 199.707 225.098 126.953 225.098 c 1
 125.977 233.887 l 1
 202.148 257.812 240.234 296.387 240.234 349.121 c 0
 240.234 370.117 232.91 387.695 219.238 400.391 c 0
 205.078 413.574 187.012 419.922 165.039 419.922 c 0
 123.535 419.922 89.8438 395.996 63.9648 348.145 c 1
 53.2227 351.074 l 1
 76.1719 424.316 121.094 460.938 187.988 460.938 c 0
 217.773 460.938 243.164 453.125 263.672 437.5 c 0
 283.691 421.875 293.945 399.414 293.945 370.117 c 0
 293.945 334.473 272.949 302.734 230.957 273.926 c 1
 254.395 263.184 271.973 251.953 284.18 240.234 c 0
 306.152 217.773 316.895 187.012 316.895 146.973 c 0
EndSplineSet
EndChar
StartChar: four
Encoding: 52 52 20
OldEncoding: 52
Width: 371
Flags: HW
HStem: 0 21<218 270 270 270> 112 43<57 217 270 337> 432 20<240 270 240 240>
VStem: 217 53<155 382> 218 52<0 112>
Fore
337 112 m 1
 270 112 l 1
 270 0 l 1
 218 0 l 1
 218 112 l 1
 30 112 l 1
 30 155 l 1
 240 452 l 1
 270 452 l 1
 270 155 l 1
 337 155 l 1
 337 112 l 1
217 155 m 1
 217 382 l 1
 57 155 l 1
 217 155 l 1
EndSplineSet
MinimumDistance: x8,-1 x4,6 y6,4 y6,5 y12,11 y12,13 x1,3 x1,2 x12,7 x12,8 
Back
336.914 111.816 m 1
 270.02 111.816 l 1
 270.02 0 l 1
 217.773 0 l 1
 217.773 111.816 l 1
 29.7852 111.816 l 1
 29.7852 154.785 l 1
 240.234 452.148 l 1
 270.02 452.148 l 1
 270.02 154.785 l 1
 336.914 154.785 l 1
 336.914 111.816 l 1
216.797 154.785 m 1
 216.797 381.836 l 1
 57.1289 154.785 l 1
 216.797 154.785 l 1
EndSplineSet
EndChar
StartChar: five
Encoding: 53 53 21
OldEncoding: 53
Width: 380
Flags: HW
HStem: -8 24 282 171 400 53<152 286 286 290> 452 20<322 322>
VStem: 271 49<128.5 162.5>
Fore
328 467 m 1
 302 406 l 2
 300 402 295 400 286 400 c 2
 152 400 l 1
 123 342 l 1
 204 330 257 306 282 270 c 1
 302 243 l 1
 312 222 l 1
 317 204 320 181 320 153 c 0
 320 104 302 64 265 34 c 0
 229 6 186 -8 137 -8 c 0
 78 -8 49 5 49 31 c 0
 49 49 58 58 77 58 c 0
 92 58 109 51 130 36 c 1
 151 23 166 16 177 16 c 0
 206 16 230 29 248 56 c 0
 263 79 271 107 271 138 c 0
 271 187 248 224 202 250 c 0
 163 271 121 282 77 282 c 0
 73 282 71 285 72 291 c 1
 147 453 l 1
 290 453 l 2
 301 453 312 459 322 472 c 1
 328 467 l 1
EndSplineSet
MinimumDistance: x8,-1 
Back
328.125 466.797 m 1
 301.758 405.762 l 2
 299.805 401.855 294.434 399.902 286.133 399.902 c 2
 151.855 399.902 l 1
 123.047 341.797 l 1
 204.102 330.078 257.324 306.152 282.227 270.02 c 1
 301.758 243.164 l 1
 312.012 222.168 l 1
 317.383 204.102 319.824 181.152 319.824 152.832 c 0
 319.824 103.516 301.758 63.9648 265.137 34.1797 c 0
 229.004 5.85938 186.523 -7.8125 137.207 -7.8125 c 0
 78.125 -7.8125 48.8281 4.88281 48.8281 30.7617 c 0
 48.8281 48.8281 58.1055 58.1055 77.1484 58.1055 c 0
 91.7969 58.1055 109.375 50.7812 129.883 36.1328 c 0
 150.879 22.4609 166.504 16.1133 176.758 16.1133 c 0
 206.543 16.1133 229.98 29.2969 248.047 56.1523 c 0
 263.184 79.1016 270.996 106.445 270.996 138.184 c 0
 270.996 186.523 248.047 224.121 202.148 250 c 0
 162.598 271.484 121.094 282.227 77.1484 282.227 c 0
 73.2422 282.227 71.2891 285.156 71.7773 291.016 c 1
 146.973 453.125 l 1
 290.039 453.125 l 2
 301.27 453.125 312.012 459.473 321.777 472.168 c 1
 328.125 466.797 l 1
EndSplineSet
EndChar
StartChar: six
Encoding: 54 54 22
OldEncoding: 54
Width: 374
Flags: HW
HStem: -8 21<133.5 235.5> 441 20<244 318>
VStem: 273 60<103 165.5>
Fore
333 147 m 0
 333 59 282 -8 189 -8 c 0
 78 -8 41 96 41 196 c 0
 41 341 170 461 318 461 c 1
 320 450 l 1
 212 431 140 362 120 258 c 1
 165 281 l 1
 181 286 196 288 210 288 c 0
 287 288 333 227 333 147 c 0
273 120 m 0
 273 211 242 257 180 257 c 0
 152 257 131 250 117 237 c 1
 113 224 107 203 107 172 c 0
 107 105 122 10 199 10 c 0
 255 10 273 63 273 120 c 0
EndSplineSet
MinimumDistance: x9,-1 
Back
333.008 146.973 m 0
 333.008 125 329.59 104.492 323.73 85.4492 c 0
 317.383 66.4062 308.105 50.293 295.898 36.6211 c 0
 284.18 22.9492 269.043 12.207 250.977 3.90625 c 0
 232.91 -3.90625 212.402 -7.8125 188.965 -7.8125 c 0
 161.133 -7.8125 137.695 -1.95312 119.141 9.76562 c 0
 100.098 21.9727 84.9609 37.5977 73.7305 56.6406 c 0
 62.0117 75.6836 53.7109 97.168 48.3398 122.07 c 0
 43.457 146.484 41.0156 171.387 41.0156 195.801 c 0
 41.0156 231.934 48.3398 266.113 63.4766 298.34 c 0
 78.6133 331.055 98.6328 358.887 124.023 382.812 c 0
 149.414 407.227 178.711 425.781 212.402 439.941 c 0
 246.094 454.102 281.25 460.938 317.871 460.938 c 1
 319.824 450.195 l 1
 266.113 440.43 221.68 419.434 187.012 386.23 c 0
 152.344 352.539 129.883 310.059 120.117 257.812 c 1
 165.039 280.762 l 1
 181.152 285.645 195.801 288.086 209.961 288.086 c 0
 229.492 288.086 246.582 284.18 262.207 276.855 c 0
 277.344 269.531 290.039 259.766 300.293 247.559 c 0
 311.035 235.352 318.848 220.215 324.707 203.125 c 0
 330.078 185.547 333.008 166.992 333.008 146.973 c 0
272.949 120.117 m 0
 272.949 211.426 242.188 256.836 180.176 256.836 c 0
 151.855 256.836 130.859 250.488 117.188 236.816 c 1
 115.234 230.469 112.793 221.68 110.352 210.938 c 0
 108.398 200.195 106.934 187.5 106.934 171.875 c 0
 106.934 155.273 108.398 137.695 110.352 118.652 c 0
 112.793 99.6094 117.188 82.0312 124.023 65.918 c 0
 130.859 49.8047 140.137 36.6211 151.855 25.8789 c 0
 164.062 15.1367 179.688 9.76562 199.219 9.76562 c 0
 212.891 9.76562 224.609 13.1836 233.887 19.043 c 0
 243.164 24.9023 250.977 33.2031 256.836 43.457 c 0
 263.184 53.7109 267.09 65.4297 269.531 79.1016 c 0
 271.973 92.2852 272.949 105.957 272.949 120.117 c 0
EndSplineSet
EndChar
StartChar: seven
Encoding: 55 55 23
OldEncoding: 55
Width: 380
Flags: HW
HStem: -4 21<140 185 185 185> 403 50<127 276 276 276>
Fore
330 442 m 1
 185 -4 l 1
 140 -4 l 1
 276 403 l 1
 127 403 l 2
 108 403 92 398 79 389 c 0
 72 384 61 370 48 347 c 1
 36 352 l 1
 76 453 l 1
 330 453 l 1
 330 442 l 1
EndSplineSet
MinimumDistance: x0,-1 
Back
330.078 441.895 m 1
 185.059 -3.90625 l 1
 140.137 -3.90625 l 1
 275.879 402.832 l 1
 126.953 402.832 l 2
 108.398 402.832 92.2852 398.438 79.1016 389.16 c 0
 71.7773 384.277 61.5234 370.117 47.8516 347.168 c 1
 36.1328 352.051 l 1
 76.1719 453.125 l 1
 330.078 453.125 l 1
 330.078 441.895 l 1
EndSplineSet
EndChar
StartChar: eight
Encoding: 56 56 24
OldEncoding: 56
Width: 373
Flags: HW
HStem: -8 21<151.5 221> 441 20<155 218>
VStem: 109 158<78 98> 111 146<355.5 378.5> 257 47<354.5 378.5> 267 50<64 98>
Fore
317 102 m 0
 317 26 257 -8 185 -8 c 0
 118 -8 58 31 58 99 c 0
 58 165 89 178 145 226 c 1
 94 279 62 291 62 356 c 0
 62 420 123 461 187 461 c 0
 249 461 304 432 304 365 c 0
 304 309 266 282 214 253 c 1
 275 200 317 180 317 102 c 0
257 368 m 0
 257 389 251 406 240 419 c 0
 226 435 207 443 183 443 c 0
 142 443 111 416 111 373 c 0
 111 338 139 302 195 265 c 1
 219 284 l 1
 235 300 l 1
 250 319 257 341 257 368 c 0
267 86 m 0
 267 110 259 130 244 147 c 0
 232 160 205 181 162 212 c 1
 142 193 l 1
 128 176 l 1
 115 157 109 133 109 106 c 0
 109 50 140 10 193 10 c 0
 236 10 267 42 267 86 c 0
EndSplineSet
MinimumDistance: x20,-1 
Back
316.895 102.051 m 0
 316.895 83.4961 313.477 66.8945 306.641 53.2227 c 0
 299.316 39.0625 290.039 27.3438 277.832 18.5547 c 0
 266.113 9.27734 251.953 2.92969 235.84 -1.46484 c 0
 220.215 -5.85938 203.125 -7.8125 185.059 -7.8125 c 0
 168.457 -7.8125 152.344 -5.85938 137.207 -0.976562 c 0
 121.582 3.90625 108.398 10.7422 96.6797 20.0195 c 0
 84.9609 29.2969 75.6836 40.5273 68.3594 54.1992 c 0
 61.5234 67.3828 58.1055 82.5195 58.1055 99.1211 c 0
 58.1055 115.723 60.0586 129.395 63.4766 140.137 c 0
 67.3828 150.879 72.7539 160.156 80.5664 168.945 c 0
 88.3789 177.734 97.168 186.523 107.91 194.824 c 0
 118.652 203.613 130.859 213.867 145.02 226.074 c 1
 132.324 239.258 120.605 250.488 110.352 259.277 c 0
 100.098 268.555 91.3086 277.344 84.4727 286.621 c 0
 77.6367 295.41 71.7773 305.176 67.8711 315.918 c 0
 63.9648 326.66 62.0117 339.844 62.0117 355.957 c 0
 62.0117 372.07 65.4297 386.719 72.2656 399.414 c 0
 79.5898 412.598 88.8672 423.34 100.586 432.617 c 0
 112.305 441.406 125.488 448.73 140.625 453.613 c 0
 155.273 458.496 170.898 460.938 187.012 460.938 c 0
 202.148 460.938 217.285 458.984 231.445 455.566 c 0
 245.605 451.66 258.301 445.801 269.043 437.988 c 0
 279.785 430.176 288.086 419.922 294.434 408.203 c 0
 300.781 395.996 304.199 381.836 304.199 365.234 c 0
 304.199 336.914 295.41 314.941 278.32 298.828 c 0
 261.719 283.203 240.234 267.578 213.867 252.93 c 1
 229.492 239.746 243.164 228.027 255.371 217.773 c 0
 268.066 208.008 278.809 197.754 288.086 187.012 c 0
 297.363 176.27 304.688 164.551 309.57 151.367 c 0
 314.453 138.672 316.895 122.07 316.895 102.051 c 0
256.836 368.164 m 0
 256.836 388.672 251.465 405.762 240.234 418.945 c 0
 226.074 435.059 207.031 442.871 183.105 442.871 c 0
 162.109 442.871 145.02 436.523 131.348 423.828 c 0
 117.676 411.133 110.84 394.531 110.84 373.047 c 0
 110.84 338.379 139.16 302.246 194.824 265.137 c 1
 219.238 284.18 l 1
 234.863 299.805 l 1
 249.512 318.848 256.836 341.309 256.836 368.164 c 0
267.09 85.9375 m 0
 267.09 109.863 259.277 130.371 244.141 146.973 c 0
 231.934 159.668 204.59 181.152 162.109 211.914 c 1
 142.09 192.871 l 1
 127.93 175.781 l 1
 115.234 156.738 108.887 133.301 108.887 105.957 c 0
 108.887 78.125 116.211 55.1758 130.859 37.1094 c 0
 145.508 19.043 166.504 9.76562 192.871 9.76562 c 0
 214.355 9.76562 231.934 17.0898 246.094 31.7383 c 0
 259.766 45.8984 267.09 63.9648 267.09 85.9375 c 0
EndSplineSet
EndChar
StartChar: nine
Encoding: 57 57 25
OldEncoding: 57
Width: 379
Flags: HW
HStem: -13 21<63 102> 162 29<177.5 185.5> 441 20<164 210.5>
VStem: 43 62<305 319.5> 269 67<235.5 242 242 269>
Fore
336 270 m 0
 336 193 312 129 264 78 c 0
 208 17 141 -13 63 -13 c 1
 61 0 l 1
 166 13 243 98 267 198 c 1
 238 174 205 162 166 162 c 0
 128 162 98 175 75 202 c 0
 54 227 43 258 43 296 c 0
 43 343 55 381 79 411 c 0
 106 446 142 461 186 461 c 0
 235 461 273 440 300 399 c 0
 324 363 336 320 336 270 c 0
269 242 m 2
 269 269 l 2
 269 385 239 443 179 443 c 0
 130 443 105 403 105 323 c 0
 105 287 111 258 123 236 c 0
 138 206 162 191 193 191 c 0
 216 191 238 199 259 214 c 0
 266 219 269 229 269 242 c 2
EndSplineSet
MinimumDistance: x4,-1 
Back
335.938 270.02 m 0
 335.938 193.359 312.012 129.395 264.16 78.125 c 0
 208.008 17.0898 141.113 -13.1836 62.9883 -13.1836 c 1
 61.0352 0 l 1
 86.9141 3.41797 111.328 10.7422 133.789 21.9727 c 0
 156.738 33.2031 176.758 47.8516 194.336 65.918 c 0
 212.402 83.9844 227.051 104.492 239.258 126.953 c 0
 251.953 149.902 261.23 173.34 267.09 198.242 c 1
 238.281 173.828 204.59 162.109 166.016 162.109 c 0
 127.93 162.109 97.6562 175.293 75.1953 202.148 c 0
 53.7109 226.562 42.9688 257.812 42.9688 295.898 c 0
 42.9688 342.773 55.1758 380.859 79.1016 411.133 c 0
 92.2852 428.223 107.91 440.918 125.977 449.219 c 0
 144.043 457.031 164.062 460.938 186.035 460.938 c 0
 234.863 460.938 272.461 440.43 299.805 398.926 c 0
 324.219 362.793 335.938 319.824 335.938 270.02 c 0
269.043 242.188 m 2
 269.043 269.043 l 2
 269.043 384.766 238.77 442.871 179.199 442.871 c 0
 129.883 442.871 104.98 402.832 104.98 323.242 c 0
 104.98 287.109 110.84 257.812 123.047 235.84 c 0
 138.184 206.055 161.621 190.918 192.871 190.918 c 0
 215.82 190.918 237.793 198.73 258.789 213.867 c 0
 265.625 219.238 269.043 228.516 269.043 242.188 c 2
EndSplineSet
EndChar
StartChar: colon
Encoding: 58 58 26
OldEncoding: 58
Width: 215
Flags: HW
HStem: -6 21<97 117.5> 301 20<107 117.5>
VStem: 69 77<20 40.5 271 291.5>
Fore
146 281 m 0
 146 256 133 244 107 244 c 0
 87 244 69 261 69 281 c 0
 69 304 82 318 107 321 c 1
 128 321 146 302 146 281 c 0
146 30 m 0
 146 9 128 -6 107 -6 c 0
 87 -6 69 10 69 30 c 0
 69 51 86 70 107 70 c 0
 128 70 146 51 146 30 c 0
EndSplineSet
Back
145.996 280.762 m 0
 145.996 256.348 132.812 244.141 106.934 244.141 c 0
 97.168 244.141 88.3789 247.559 80.5664 254.883 c 0
 72.7539 262.207 68.8477 270.996 68.8477 280.762 c 0
 68.8477 304.199 81.543 317.871 106.934 320.801 c 0
 117.676 320.801 126.953 316.895 134.277 309.082 c 0
 142.09 300.781 145.996 291.504 145.996 280.762 c 0
145.996 29.7852 m 0
 145.996 19.5312 142.09 10.7422 134.277 3.90625 c 0
 126.953 -2.44141 117.676 -5.85938 106.934 -5.85938 c 0
 97.168 -5.85938 88.3789 -2.44141 80.5664 4.39453 c 0
 72.7539 11.7188 68.8477 20.0195 68.8477 29.7852 c 0
 68.8477 40.5273 72.7539 49.8047 80.0781 58.1055 c 0
 87.4023 65.918 96.1914 69.8242 106.934 69.8242 c 0
 117.676 69.8242 126.953 65.918 134.277 58.1055 c 0
 142.09 49.8047 145.996 40.5273 145.996 29.7852 c 0
EndSplineSet
EndChar
StartChar: semicolon
Encoding: 59 59 27
OldEncoding: 59
Width: 215
Flags: HW
HStem: -97 21<87 87> -2 21<96.5 111> 0 21<128 131.5> 71 173<97 120> 301 20<107 117.5>
VStem: 68 97<20 26.5>
Fore
146 281 m 0
 146 256 133 244 107 244 c 0
 87 244 69 261 69 281 c 0
 69 304 82 318 107 321 c 1
 128 321 146 302 146 281 c 0
165 4 m 0
 165 -19 155 -40 134 -60 c 2
 109 -84 l 1
 102 -89 95 -94 87 -97 c 1
 81 -83 l 1
 119 -59 138 -34 138 -9 c 0
 138 -3 135 0 128 0 c 2
 120 -1 l 1
 111 -2 l 2
 82 -2 68 9 68 31 c 0
 68 58 82 71 109 71 c 0
 146 71 165 49 165 4 c 0
EndSplineSet
Back
145.996 280.762 m 0
 145.996 256.348 132.812 244.141 106.934 244.141 c 0
 97.168 244.141 88.3789 247.559 80.5664 254.883 c 0
 72.7539 262.207 68.8477 270.996 68.8477 280.762 c 0
 68.8477 304.199 81.543 317.871 106.934 320.801 c 0
 117.676 320.801 126.953 316.895 134.277 309.082 c 0
 142.09 300.781 145.996 291.504 145.996 280.762 c 0
165.039 3.90625 m 0
 165.039 -18.5547 154.785 -40.0391 133.789 -60.0586 c 2
 108.887 -83.9844 l 2
 105.469 -86.4258 102.051 -89.3555 98.6328 -91.3086 c 0
 94.7266 -93.75 90.8203 -95.7031 86.9141 -97.168 c 1
 81.0547 -83.0078 l 1
 119.141 -59.082 138.184 -34.1797 138.184 -8.78906 c 0
 138.184 -2.92969 134.766 0 127.93 0 c 2
 120.117 -0.976562 l 1
 110.84 -1.95312 l 2
 82.5195 -1.95312 67.8711 8.78906 67.8711 30.7617 c 0
 67.8711 57.6172 81.543 70.8008 108.887 70.8008 c 0
 146.484 70.8008 165.039 48.8281 165.039 3.90625 c 0
EndSplineSet
EndChar
StartChar: less
Encoding: 60 60 28
OldEncoding: 60
Width: 436
Flags: HW
HStem: -4 21<397 397> 340 20<397 397>
Fore
397 -4 m 1
 42 155 l 1
 42 199 l 1
 397 360 l 1
 397 321 l 1
 80 178 l 1
 397 34 l 1
 397 -4 l 1
EndSplineSet
MinimumDistance: x0,-1 
Back
396.973 -3.90625 m 1
 41.9922 154.785 l 1
 41.9922 199.219 l 1
 396.973 359.863 l 1
 396.973 320.801 l 1
 80.0781 178.223 l 1
 396.973 34.1797 l 1
 396.973 -3.90625 l 1
EndSplineSet
EndChar
StartChar: equal
Encoding: 61 61 29
OldEncoding: 61
Width: 436
Flags: HW
HStem: 90 35<43 396> 230 35<43 396>
Fore
396 230 m 1
 43 230 l 1
 43 265 l 1
 396 265 l 1
 396 230 l 1
396 90 m 1
 43 90 l 1
 43 125 l 1
 396 125 l 1
 396 90 l 1
EndSplineSet
Back
395.996 229.98 m 1
 42.9688 229.98 l 1
 42.9688 265.137 l 1
 395.996 265.137 l 1
 395.996 229.98 l 1
395.996 89.8438 m 1
 42.9688 89.8438 l 1
 42.9688 125 l 1
 395.996 125 l 1
 395.996 89.8438 l 1
EndSplineSet
EndChar
StartChar: greater
Encoding: 62 62 30
OldEncoding: 62
Width: 436
Flags: HW
HStem: -4 21<42 42> 340 20<42 42>
Fore
397 155 m 1
 42 -4 l 1
 42 34 l 1
 359 178 l 1
 42 321 l 1
 42 360 l 1
 397 199 l 1
 397 155 l 1
EndSplineSet
MinimumDistance: x0,-1 
Back
396.973 154.785 m 1
 41.9922 -3.90625 l 1
 41.9922 34.1797 l 1
 358.887 178.223 l 1
 41.9922 320.801 l 1
 41.9922 359.863 l 1
 396.973 199.219 l 1
 396.973 154.785 l 1
EndSplineSet
EndChar
StartChar: question
Encoding: 63 63 31
OldEncoding: 63
Width: 342
Flags: HW
HStem: -5 21 453 20<133.5 173.5>
VStem: 227 65<349.5 371>
Fore
292 357 m 0
 292 328 274 291 239 248 c 2
 213 216 l 1
 195 187 l 2
 188 175 180 151 173 115 c 1
 161 115 l 1
 161 148 168 181 182 214 c 2
 201 259 l 1
 218 302 227 336 227 363 c 0
 227 414 199 452 150 452 c 0
 136 452 121 448 106 440 c 1
 92 430 85 420 85 409 c 0
 85 404 89 397 98 386 c 0
 107 375 112 365 112 357 c 0
 113 338 104 328 85 328 c 0
 62 328 50 343 50 372 c 0
 50 432 103 473 164 473 c 0
 183 473 202 469 223 461 c 1
 247 449 l 1
 267 433 l 1
 284 410 292 385 292 357 c 0
206 30 m 0
 206 10 188 -3 168 -4 c 0
 143 -5 131 7 131 30 c 0
 131 53 143 65 168 68 c 1
 188 68 206 50 206 30 c 0
EndSplineSet
MinimumDistance: x14,-1 
Back
291.992 356.934 m 0
 291.992 327.637 274.414 291.504 238.77 248.047 c 2
 212.891 215.82 l 1
 194.824 187.012 l 2
 191.895 181.152 187.988 171.875 184.082 160.156 c 0
 180.176 147.949 176.27 132.812 172.852 115.234 c 1
 161.133 115.234 l 1
 161.133 148.438 167.969 181.152 182.129 213.867 c 2
 201.172 258.789 l 2
 218.262 301.758 227.051 336.426 227.051 362.793 c 0
 227.051 388.184 220.215 409.668 207.031 426.27 c 0
 193.848 443.359 174.805 452.148 149.902 452.148 c 0
 136.23 452.148 121.094 448.242 105.957 439.941 c 1
 91.7969 430.176 84.9609 419.434 84.9609 409.18 c 0
 84.9609 404.297 89.3555 396.484 98.1445 386.23 c 0
 107.422 374.512 111.816 365.234 111.816 356.934 c 0
 113.281 337.891 104.492 328.125 84.9609 328.125 c 0
 61.5234 328.125 49.8047 342.773 49.8047 372.07 c 0
 49.8047 387.207 53.2227 401.367 59.082 413.574 c 0
 64.9414 425.781 73.2422 436.523 83.9844 444.824 c 0
 94.7266 453.613 106.934 460.449 120.605 465.332 c 0
 134.277 470.703 148.438 473.145 164.062 473.145 c 0
 182.617 473.145 202.148 469.238 223.145 460.938 c 1
 247.07 449.219 l 1
 267.09 433.105 l 1
 283.691 410.156 291.992 384.766 291.992 356.934 c 0
206.055 29.7852 m 0
 206.055 20.0195 202.148 12.207 194.336 5.85938 c 0
 187.012 0 178.223 -3.41797 167.969 -3.90625 c 0
 143.555 -4.88281 130.859 6.83594 130.859 29.7852 c 0
 130.859 52.7344 143.555 65.4297 167.969 67.8711 c 0
 178.223 67.8711 187.012 63.9648 194.336 56.6406 c 0
 202.148 48.8281 206.055 40.0391 206.055 29.7852 c 0
EndSplineSet
EndChar
StartChar: at
Encoding: 64 64 32
OldEncoding: 64
Width: 554
Flags: HW
HStem: -8 24<259 319.5> 98 30 317 30<311.5 318> 440 21<257 322.5>
VStem: 43 58<187 249.5> 184 47<166 198.5> 489 27<239.5 290.5>
Fore
516 260 m 0
 516 219 505 183 484 152 c 0
 459 115 428 97 389 97 c 0
 370 97 354 104 342 119 c 1
 333 128 329 137 329 146 c 1
 315 132 l 1
 300 119 l 2
 285 107 268 100 249 98 c 1
 206 98 184 126 184 183 c 0
 184 215 193 248 216 283 c 1
 242 326 276 347 318 347 c 1
 336 344 l 1
 347 339 357 328 366 311 c 1
 373 337 l 1
 421 337 l 1
 376 164 l 1
 375 147 l 1
 375 129 383 120 400 120 c 0
 459 120 489 208 489 259 c 0
 489 362 391 440 293 440 c 0
 162 440 101 332 101 208 c 0
 101 99 192 16 299 16 c 0
 342 16 387 27 434 50 c 1
 442 29 l 1
 385 5 339 -8 300 -8 c 0
 218 -8 153 17 104 68 c 0
 63 111 43 160 43 214 c 0
 43 285 67 344 114 391 c 0
 161 438 221 461 293 461 c 0
 352 461 404 443 448 407 c 0
 493 370 516 321 516 260 c 0
354 272 m 1
 354 302 344 317 325 317 c 0
 298 317 275 301 257 269 c 0
 240 240 231 212 231 185 c 0
 231 147 245 128 274 128 c 0
 296 128 315 147 332 186 c 0
 345 215 351 244 354 272 c 1
EndSplineSet
MinimumDistance: x23,-1 
Back
516.113 259.766 m 0
 516.113 219.238 505.371 183.105 483.887 151.855 c 0
 459.473 115.234 427.734 97.168 389.16 97.168 c 0
 369.629 97.168 354.004 104.492 341.797 119.141 c 0
 333.496 127.441 329.102 136.719 329.102 145.996 c 1
 314.941 131.836 l 1
 299.805 119.141 l 2
 285.156 106.934 268.555 100.098 249.023 98.1445 c 1
 205.566 98.1445 184.082 126.465 184.082 183.105 c 0
 184.082 199.219 186.523 215.332 191.406 231.934 c 0
 196.289 248.535 204.59 265.625 215.82 283.203 c 0
 242.188 325.684 275.879 347.168 317.871 347.168 c 1
 335.938 344.238 l 1
 347.168 338.867 357.422 327.637 366.211 311.035 c 1
 373.047 336.914 l 1
 420.898 336.914 l 1
 375.977 164.062 l 1
 375 146.973 l 1
 375 128.906 383.301 120.117 399.902 120.117 c 0
 414.551 120.117 427.734 125 438.477 134.277 c 0
 449.707 144.043 458.984 156.25 466.309 170.41 c 0
 474.121 185.059 479.98 200.195 483.398 215.82 c 0
 487.305 231.934 488.77 246.094 488.77 258.789 c 0
 488.77 285.156 483.398 309.082 472.168 331.055 c 0
 460.449 353.027 445.801 372.07 427.734 388.184 c 0
 409.18 403.809 388.184 416.504 365.234 425.781 c 0
 341.797 435.547 317.871 439.941 292.969 439.941 c 0
 260.254 439.941 231.934 433.594 208.008 420.898 c 0
 184.082 408.203 164.062 391.602 147.949 370.605 c 0
 131.836 349.609 120.117 325.195 112.305 296.875 c 0
 104.98 269.043 101.074 239.258 101.074 208.008 c 0
 101.074 180.664 106.445 155.273 117.188 131.836 c 0
 127.441 108.887 142.09 88.3789 160.156 70.8008 c 0
 178.223 53.7109 199.219 40.0391 223.145 30.2734 c 0
 247.07 20.9961 272.461 16.1133 298.828 16.1133 c 0
 341.797 16.1133 386.719 27.3438 434.082 49.8047 c 1
 441.895 28.8086 l 1
 413.574 17.0898 387.207 7.8125 363.77 1.46484 c 0
 340.82 -4.88281 319.336 -7.8125 299.805 -7.8125 c 0
 217.773 -7.8125 152.832 17.0898 104.004 67.8711 c 0
 63.4766 111.328 42.9688 160.156 42.9688 213.867 c 0
 42.9688 285.156 66.8945 344.238 113.77 391.113 c 0
 161.133 437.5 221.191 460.938 292.969 460.938 c 0
 352.539 460.938 403.809 442.871 448.242 407.227 c 0
 493.164 369.629 516.113 320.801 516.113 259.766 c 0
354.004 271.973 m 0
 354.004 301.758 344.238 316.895 325.195 316.895 c 0
 297.852 316.895 274.902 300.781 256.836 269.043 c 0
 239.746 240.234 230.957 212.402 230.957 185.059 c 0
 230.957 146.973 245.117 127.93 273.926 127.93 c 0
 295.898 127.93 315.43 147.461 332.031 186.035 c 0
 338.867 200.684 343.75 215.332 347.168 229.492 c 0
 350.098 243.652 352.539 257.812 354.004 271.973 c 0
EndSplineSet
EndChar
StartChar: A
Encoding: 65 65 33
OldEncoding: 65
Width: 500
Flags: HW
HStem: 0 21<18 151 151 151 311 482 482 482> 145 28<153 308> 432 20<241 255 241 241>
Fore
482 0 m 1
 311 0 l 1
 311 12 l 1
 333 12 l 1
 345 16 l 2
 354 19 358 26 358 38 c 1
 355 53 l 1
 345 81 l 1
 318 145 l 1
 142 145 l 1
 111 66 l 1
 107 57 105 49 105 41 c 0
 105 22 120 12 151 12 c 1
 151 0 l 1
 18 0 l 1
 18 12 l 1
 37 12 55 27 72 56 c 0
 75 63 85 83 101 123 c 1
 241 452 l 1
 255 452 l 1
 422 71 l 1
 442 24 455 12 482 12 c 1
 482 0 l 1
308 173 m 1
 231 357 l 1
 153 173 l 1
 308 173 l 1
EndSplineSet
MinimumDistance: x16,-1 
Back
481.934 0 m 1
 311.035 0 l 1
 311.035 12.207 l 1
 333.008 12.207 l 1
 345.215 16.1133 l 2
 353.516 18.5547 357.91 25.8789 357.91 38.0859 c 1
 354.98 53.2227 l 1
 345.215 81.0547 l 1
 317.871 145.02 l 1
 142.09 145.02 l 1
 110.84 65.918 l 1
 106.934 57.1289 104.98 48.8281 104.98 41.0156 c 0
 104.98 21.4844 120.117 12.207 150.879 12.207 c 1
 150.879 0 l 1
 18.0664 0 l 1
 18.0664 12.207 l 1
 36.6211 12.207 54.6875 26.8555 71.7773 56.1523 c 0
 73.2422 59.5703 76.6602 66.4062 81.543 77.1484 c 0
 86.4258 87.8906 92.7734 103.027 101.074 123.047 c 1
 241.211 452.148 l 1
 254.883 452.148 l 1
 421.875 70.8008 l 2
 432.129 47.8516 441.406 32.2266 449.707 23.9258 c 0
 458.008 16.1133 468.75 12.207 481.934 12.207 c 1
 481.934 0 l 1
308.105 172.852 m 1
 230.957 356.934 l 1
 152.832 172.852 l 1
 308.105 172.852 l 1
EndSplineSet
EndChar
StartChar: B
Encoding: 66 66 34
OldEncoding: 66
Width: 436
Flags: HW
HStem: -1 21 0 25<202.5 253 253 253> 223 28 427 25<175 205 205 216>
VStem: 90 69<54 74 74 223 249 378> 325 70<320.5 364.5> 340 78<120 148>
Fore
418 120 m 1
 415 44 349 -3 253 0 c 1
 24 0 l 1
 24 13 l 1
 76 13 90 23 90 74 c 2
 90 378 l 2
 90 402 86 418 78 427 c 1
 71 430 65 433 58 436 c 1
 24 440 l 1
 24 452 l 1
 216 452 l 2
 335 452 395 414 395 337 c 0
 395 304 383 279 360 263 c 1
 352 256 333 247 304 238 c 1
 380 222 418 183 418 120 c 1
325 333 m 0
 325 396 285 427 205 427 c 2
 175 427 l 2
 164 427 159 420 159 406 c 2
 159 249 l 1
 225 250 l 2
 292 251 325 278 325 333 c 0
340 123 m 0
 340 173 314 204 261 216 c 0
 243 221 209 223 159 223 c 1
 159 54 l 2
 159 40 165 31 177 27 c 0
 182 26 193 25 212 25 c 0
 297 25 340 58 340 123 c 0
EndSplineSet
MinimumDistance: x1,-1 
Back
417.969 120.117 m 0
 417.48 101.562 412.598 84.4727 404.297 68.8477 c 0
 395.996 53.7109 384.766 41.0156 370.605 30.2734 c 0
 355.957 20.0195 338.867 12.207 318.848 6.83594 c 0
 298.828 1.46484 276.855 -0.488281 252.93 0 c 2
 23.9258 0 l 1
 23.9258 13.1836 l 1
 49.8047 13.1836 67.3828 16.6016 76.6602 24.4141 c 0
 85.4492 32.2266 89.8438 48.8281 89.8438 74.2188 c 2
 89.8438 377.93 l 2
 89.8438 401.855 85.9375 418.457 78.125 426.758 c 1
 74.707 428.223 71.2891 429.688 67.8711 431.641 c 0
 64.4531 433.105 61.5234 434.57 58.1055 436.035 c 2
 23.9258 439.941 l 1
 23.9258 452.148 l 1
 215.82 452.148 l 2
 335.449 452.148 395.02 413.574 395.02 336.914 c 0
 395.02 303.711 383.301 278.809 359.863 263.184 c 1
 352.051 255.859 333.496 247.559 304.199 237.793 c 1
 379.883 222.168 417.969 182.617 417.969 120.117 c 0
325.195 333.008 m 0
 325.195 395.508 285.156 426.758 205.078 426.758 c 2
 174.805 426.758 l 2
 164.551 426.758 159.18 419.922 159.18 405.762 c 2
 159.18 249.023 l 1
 225.098 250 l 2
 291.504 250.488 325.195 278.32 325.195 333.008 c 0
339.844 123.047 m 0
 339.844 172.852 313.477 204.102 261.23 215.82 c 0
 243.164 220.703 208.984 223.145 159.18 223.145 c 1
 159.18 54.1992 l 2
 159.18 40.0391 165.039 30.7617 176.758 26.8555 c 0
 179.688 26.3672 183.594 25.8789 189.453 25.3906 c 0
 195.312 25.3906 202.637 24.9023 211.914 24.9023 c 0
 297.363 24.9023 339.844 57.6172 339.844 123.047 c 0
EndSplineSet
EndChar
StartChar: C
Encoding: 67 67 35
OldEncoding: 67
Width: 475
Flags: HW
HStem: -8 27<248.5 283.5> 426 27 440 20
VStem: 34 78<191 248>
Fore
440 75 m 1
 433 62 418 47 395 32 c 0
 356 5 310 -8 257 -8 c 0
 188 -8 133 12 93 53 c 0
 54 95 34 151 34 221 c 0
 34 286 54 342 98 389 c 0
 143 436 198 458 262 453 c 2
 297 450 l 2
 309 449 323 447 339 443 c 2
 381 431 l 1
 396 431 407 438 412 453 c 1
 425 453 l 1
 431 303 l 1
 417 303 l 1
 400 382 347 426 268 426 c 0
 215 426 175 404 148 361 c 0
 124 324 112 277 112 219 c 0
 112 163 124 117 151 80 c 0
 180 39 221 19 276 19 c 0
 330 19 380 42 427 87 c 1
 440 75 l 1
EndSplineSet
MinimumDistance: x15,-1 
Back
439.941 75.1953 m 1
 432.617 61.5234 417.48 47.3633 395.02 32.2266 c 0
 356.445 5.37109 310.547 -7.8125 256.836 -7.8125 c 0
 187.5 -7.8125 132.812 12.207 92.7734 53.2227 c 0
 53.7109 95.2148 34.1797 150.879 34.1797 221.191 c 0
 34.1797 253.906 39.0625 284.18 49.3164 312.012 c 0
 60.0586 339.844 76.1719 365.723 98.1445 389.16 c 0
 143.555 436.523 198.242 457.52 262.207 453.125 c 2
 296.875 450.195 l 2
 303.223 449.219 309.57 448.73 316.406 447.266 c 0
 323.73 446.289 331.055 444.824 338.867 442.871 c 2
 380.859 431.152 l 1
 396.484 431.152 406.738 438.477 412.109 453.125 c 1
 424.805 453.125 l 1
 431.152 303.223 l 1
 416.992 303.223 l 1
 408.203 342.285 391.113 372.559 365.723 394.043 c 0
 339.844 415.527 307.129 425.781 268.066 425.781 c 0
 214.844 425.781 174.805 404.297 147.949 360.84 c 0
 124.023 324.219 111.816 276.855 111.816 219.238 c 0
 111.816 190.918 115.234 165.527 121.582 142.578 c 0
 127.93 119.629 137.695 98.6328 150.879 80.0781 c 0
 179.688 39.5508 221.191 19.043 275.879 19.043 c 0
 330.078 19.043 380.371 41.5039 426.758 86.9141 c 1
 439.941 75.1953 l 1
EndSplineSet
EndChar
StartChar: D
Encoding: 68 68 36
OldEncoding: 68
Width: 504
Flags: HW
HStem: 0 25<187 218 218 265> 428 25<178.5 208>
VStem: 84 69<62.5 74 74 379> 407 74<196.5 258.5>
Fore
481 225 m 0
 481 168 463 119 428 78 c 0
 382 26 312 0 218 0 c 2
 23 0 l 1
 23 13 l 1
 42 13 59 17 73 26 c 1
 80 35 84 51 84 74 c 2
 84 379 l 2
 84 404 80 420 73 427 c 0
 69 431 63 434 54 437 c 1
 23 440 l 1
 23 453 l 1
 208 453 l 2
 289 453 354 436 401 401 c 0
 454 362 481 304 481 225 c 0
407 225 m 0
 407 292 386 343 345 378 c 0
 306 411 253 428 185 428 c 0
 172 428 163 426 158 421 c 0
 156 419 154 412 153 401 c 1
 153 54 l 2
 153 42 157 33 165 28 c 0
 170 26 180 25 194 25 c 0
 336 25 407 92 407 225 c 0
EndSplineSet
MinimumDistance: x6,-1 
Back
480.957 225.098 m 0
 480.957 167.48 463.379 118.652 428.223 78.125 c 0
 381.836 25.8789 312.012 0 217.773 0 c 2
 22.9492 0 l 1
 22.9492 13.1836 l 1
 42.4805 13.1836 59.082 17.0898 73.2422 25.8789 c 1
 80.5664 35.1562 83.9844 51.2695 83.9844 74.2188 c 2
 83.9844 378.906 l 2
 83.9844 403.809 80.5664 419.434 73.2422 426.758 c 0
 68.8477 431.152 62.5 434.57 54.1992 437.012 c 1
 22.9492 439.941 l 1
 22.9492 453.125 l 1
 208.008 453.125 l 2
 289.551 453.125 353.516 435.547 400.879 400.879 c 0
 454.102 362.305 480.957 303.711 480.957 225.098 c 0
407.227 225.098 m 0
 407.227 291.504 386.23 342.773 345.215 377.93 c 0
 306.152 411.133 252.93 428.223 185.059 428.223 c 0
 171.875 428.223 162.598 425.781 158.203 420.898 c 0
 155.762 418.945 154.297 412.109 152.832 400.879 c 1
 152.832 54.1992 l 2
 152.832 41.9922 157.227 33.2031 165.039 27.832 c 0
 170.41 25.8789 180.176 24.9023 193.848 24.9023 c 0
 335.938 24.9023 407.227 91.7969 407.227 225.098 c 0
EndSplineSet
EndChar
StartChar: E
Encoding: 69 69 37
OldEncoding: 69
Width: 432
Flags: HW
HStem: 0 26<233 282.5> 223 29<159 264> 428 25<181 273 273 290.5>
VStem: 88 71<55 74 74 223 252 379>
Fore
430 115 m 1
 399 0 l 1
 29 0 l 1
 29 13 l 1
 76 13 88 27 88 74 c 2
 88 379 l 2
 88 406 84 422 75 429 c 1
 57 436 l 1
 29 440 l 1
 29 453 l 1
 393 453 l 1
 395 355 l 1
 378 355 l 1
 373 387 363 408 346 417 c 0
 333 424 308 428 273 428 c 2
 181 428 l 2
 174 428 168 427 165 425 c 0
 161 421 159 414 159 404 c 2
 159 252 l 1
 264 252 l 2
 292 252 310 256 318 264 c 0
 327 272 334 290 339 317 c 1
 356 317 l 1
 356 159 l 1
 339 159 l 1
 335 188 328 205 319 211 c 1
 311 219 293 223 264 223 c 2
 159 223 l 1
 159 55 l 2
 159 38 173 27 200 24 c 0
 187 25 205 26 261 26 c 0
 304 26 334 31 353 42 c 0
 376 56 395 80 410 115 c 1
 430 115 l 1
EndSplineSet
MinimumDistance: x16,-1 
Back
430.176 115.234 m 1
 398.926 0 l 1
 28.8086 0 l 1
 28.8086 13.1836 l 1
 52.2461 13.1836 67.8711 17.0898 76.1719 25.8789 c 0
 83.9844 34.668 87.8906 50.7812 87.8906 74.2188 c 2
 87.8906 378.906 l 2
 87.8906 405.762 83.4961 422.363 75.1953 429.199 c 1
 57.1289 436.035 l 1
 28.8086 439.941 l 1
 28.8086 453.125 l 1
 393.066 453.125 l 1
 395.02 354.98 l 1
 377.93 354.98 l 1
 373.535 387.207 362.793 407.715 346.191 416.992 c 0
 332.52 424.316 308.105 428.223 272.949 428.223 c 2
 181.152 428.223 l 2
 173.828 428.223 168.457 426.758 165.039 424.805 c 0
 161.133 420.898 159.18 414.062 159.18 403.809 c 2
 159.18 251.953 l 1
 264.16 251.953 l 2
 291.992 251.953 310.059 255.859 317.871 264.16 c 0
 326.66 271.973 333.496 289.551 338.867 316.895 c 1
 355.957 316.895 l 1
 355.957 159.18 l 1
 338.867 159.18 l 1
 334.961 187.5 328.125 205.078 318.848 210.938 c 1
 311.035 219.238 292.48 223.145 264.16 223.145 c 2
 159.18 223.145 l 1
 159.18 55.1758 l 2
 159.18 37.5977 172.852 27.3438 200.195 23.9258 c 0
 193.359 24.9023 194.824 25.3906 204.59 25.3906 c 0
 214.355 25.8789 232.91 25.8789 261.23 25.8789 c 0
 303.711 25.8789 334.473 31.25 353.027 41.9922 c 0
 376.465 56.1523 395.508 80.5664 410.156 115.234 c 1
 430.176 115.234 l 1
EndSplineSet
EndChar
StartChar: F
Encoding: 70 70 38
OldEncoding: 70
Width: 400
Flags: HW
HStem: 0 21<20 211 211 211> 225 27<150 150> 427 25<171 264 264 281.5>
VStem: 79 71<74 82 82 225 252 378>
Fore
385 355 m 1
 368 355 l 1
 364 386 353 407 336 416 c 0
 323 423 299 427 264 427 c 2
 171 427 l 2
 157 427 150 419 150 403 c 2
 150 252 l 1
 248 252 l 2
 303 252 319 265 323 316 c 1
 339 316 l 1
 339 158 l 1
 323 158 l 1
 319 209 303 223 248 223 c 2
 150 225 l 1
 150 74 l 2
 150 27 164 13 211 13 c 1
 211 0 l 1
 20 0 l 1
 20 13 l 1
 45 13 62 18 69 29 c 0
 76 38 79 55 79 82 c 2
 79 378 l 2
 79 404 75 421 66 428 c 1
 48 436 l 1
 20 440 l 1
 20 452 l 1
 383 452 l 1
 385 355 l 1
EndSplineSet
MinimumDistance: x2,-1 
Back
384.766 354.98 m 1
 368.164 354.98 l 1
 363.77 386.23 353.516 406.738 335.938 416.016 c 0
 322.754 423.34 298.828 426.758 264.16 426.758 c 2
 170.898 426.758 l 2
 157.227 426.758 149.902 418.945 149.902 402.832 c 2
 149.902 251.953 l 1
 248.047 251.953 l 2
 275.391 251.953 293.945 256.348 304.688 265.137 c 0
 314.941 273.438 320.801 290.527 323.242 315.918 c 1
 338.867 315.918 l 1
 338.867 158.203 l 1
 323.242 158.203 l 1
 320.801 183.105 314.941 200.684 304.688 209.473 c 0
 293.945 218.262 275.391 223.145 248.047 223.145 c 2
 149.902 225.098 l 1
 149.902 74.2188 l 2
 149.902 50.7812 154.297 34.668 163.086 25.8789 c 0
 171.875 17.0898 187.5 13.1836 210.938 13.1836 c 1
 210.938 0 l 1
 20.0195 0 l 1
 20.0195 13.1836 l 1
 45.4102 13.1836 61.5234 18.5547 68.8477 28.8086 c 0
 75.6836 37.5977 79.1016 55.1758 79.1016 82.0312 c 2
 79.1016 377.93 l 2
 79.1016 403.809 74.707 420.898 65.918 428.223 c 1
 47.8516 436.035 l 1
 20.0195 439.941 l 1
 20.0195 452.148 l 1
 382.812 452.148 l 1
 384.766 354.98 l 1
EndSplineSet
EndChar
StartChar: G
Encoding: 71 71 39
OldEncoding: 71
Width: 508
Flags: HW
HStem: -8 25<257.5 287.5> 427 27<247 277.5>
VStem: 34 78<217.5 244> 378 65<48.5 56 56 166>
Fore
490 226 m 1
 471 224 460 221 456 217 c 0
 447 210 443 195 443 173 c 2
 443 39 l 2
 443 28 419 21 370 6 c 1
 326 -2 296 -8 279 -8 c 0
 198 -8 135 15 90 62 c 0
 61 93 45 129 37 172 c 0
 34 187 34 206 34 229 c 0
 34 294 56 348 101 390 c 0
 146 433 200 454 265 454 c 0
 290 454 315 451 342 445 c 1
 385 431 l 1
 402 431 412 439 417 454 c 1
 431 454 l 1
 437 312 l 1
 422 312 l 1
 392 389 343 427 275 427 c 0
 219 427 176 405 147 360 c 1
 124 321 112 273 112 215 c 0
 112 159 125 111 154 76 c 0
 187 37 230 17 285 17 c 0
 302 17 322 21 339 25 c 0
 365 31 378 41 378 56 c 2
 378 166 l 2
 378 191 374 207 367 216 c 1
 348 223 l 2
 342 225 333 226 320 226 c 1
 320 238 l 1
 490 238 l 1
 490 226 l 1
EndSplineSet
MinimumDistance: x0,-1 
Back
490.234 226.074 m 1
 471.191 224.121 459.961 221.191 456.055 216.797 c 0
 447.266 209.473 442.871 194.824 442.871 172.852 c 2
 442.871 39.0625 l 2
 442.871 33.6914 437.012 28.8086 424.805 23.9258 c 0
 413.086 19.5312 394.531 13.1836 370.117 5.85938 c 1
 348.145 1.95312 329.59 -1.46484 314.453 -3.90625 c 0
 299.316 -6.83594 287.598 -7.8125 278.809 -7.8125 c 0
 197.754 -7.8125 134.766 15.1367 89.8438 62.0117 c 0
 75.1953 77.1484 63.9648 94.2383 55.6641 112.305 c 0
 47.3633 130.859 41.0156 150.879 37.1094 171.875 c 0
 35.6445 179.199 34.668 187.988 34.668 197.266 c 0
 34.1797 207.031 34.1797 217.773 34.1797 229.004 c 0
 34.1797 294.434 56.1523 348.145 101.074 390.137 c 0
 145.508 432.617 200.195 454.102 265.137 454.102 c 0
 289.551 454.102 315.43 451.172 341.797 444.824 c 1
 384.766 431.152 l 1
 401.855 431.152 412.109 438.477 416.992 454.102 c 1
 431.152 454.102 l 1
 437.012 312.012 l 1
 421.875 312.012 l 1
 392.09 388.672 342.773 426.758 274.902 426.758 c 0
 219.238 426.758 176.27 404.785 146.973 359.863 c 1
 123.535 321.289 111.816 272.949 111.816 214.844 c 0
 111.816 187.012 115.234 161.133 122.07 137.695 c 0
 128.906 113.77 139.16 93.2617 153.809 76.1719 c 0
 186.523 36.6211 230.469 17.0898 285.156 17.0898 c 0
 293.457 17.0898 302.734 18.0664 312.012 19.5312 c 0
 321.289 20.9961 330.566 22.9492 338.867 24.9023 c 0
 365.234 30.7617 377.93 41.5039 377.93 56.1523 c 2
 377.93 166.016 l 2
 377.93 190.43 374.512 207.52 367.188 215.82 c 1
 348.145 223.145 l 2
 341.797 225.098 332.52 226.074 319.824 226.074 c 1
 319.824 237.793 l 1
 490.234 237.793 l 1
 490.234 226.074 l 1
EndSplineSet
EndChar
StartChar: H
Encoding: 72 72 40
OldEncoding: 72
Width: 516
Flags: HW
HStem: 0 21<25 216 216 216 303 493 493 493> 215 31<155 363> 433 20<25 216 25 25 303 493 303 303>
VStem: 86 69<74 82 82 215 246 379> 363 70<74 82 82 215 246 379 246 246>
Fore
493 0 m 1
 303 0 l 1
 303 13 l 1
 328 13 346 18 355 29 c 0
 360 36 363 54 363 82 c 2
 363 215 l 1
 155 215 l 1
 155 74 l 2
 155 52 159 36 166 27 c 0
 168 25 174 22 185 17 c 1
 216 13 l 1
 216 0 l 1
 25 0 l 1
 25 13 l 1
 50 13 68 18 77 29 c 0
 83 37 86 55 86 82 c 2
 86 379 l 2
 86 404 82 420 75 427 c 0
 71 431 65 434 56 437 c 1
 25 441 l 1
 25 453 l 1
 216 453 l 1
 216 441 l 1
 166 441 155 430 155 379 c 2
 155 246 l 1
 363 246 l 1
 363 379 l 2
 363 413 353 432 333 437 c 1
 303 441 l 1
 303 453 l 1
 493 453 l 1
 493 441 l 1
 445 441 433 427 433 379 c 2
 433 74 l 2
 433 27 446 13 493 13 c 1
 493 0 l 1
EndSplineSet
MinimumDistance: x31,-1 
Back
493.164 0 m 1
 303.223 0 l 1
 303.223 13.1836 l 1
 328.125 13.1836 345.703 18.5547 354.98 28.8086 c 0
 360.352 36.1328 362.793 54.1992 362.793 82.0312 c 2
 362.793 214.844 l 1
 154.785 214.844 l 1
 154.785 74.2188 l 2
 154.785 51.7578 158.691 36.1328 166.016 26.8555 c 0
 167.969 24.9023 174.316 21.4844 185.059 17.0898 c 1
 215.82 13.1836 l 1
 215.82 0 l 1
 24.9023 0 l 1
 24.9023 13.1836 l 1
 50.293 13.1836 67.8711 18.5547 77.1484 28.8086 c 0
 83.0078 37.1094 85.9375 54.6875 85.9375 82.0312 c 2
 85.9375 378.906 l 2
 85.9375 403.809 82.5195 419.434 75.1953 426.758 c 0
 70.8008 431.152 64.4531 434.57 56.1523 437.012 c 1
 24.9023 440.918 l 1
 24.9023 453.125 l 1
 215.82 453.125 l 1
 215.82 440.918 l 1
 203.125 440.918 193.359 439.941 185.547 438.477 c 0
 177.734 437.012 171.875 433.594 166.992 429.199 c 0
 162.109 424.316 159.18 417.969 157.715 410.156 c 0
 155.762 401.855 154.785 391.602 154.785 378.906 c 2
 154.785 246.094 l 1
 362.793 246.094 l 1
 362.793 378.906 l 2
 362.793 413.086 353.027 432.129 333.008 437.012 c 1
 303.223 440.918 l 1
 303.223 453.125 l 1
 493.164 453.125 l 1
 493.164 440.918 l 1
 469.238 440.918 453.125 436.523 444.824 428.223 c 0
 437.012 419.434 433.105 402.832 433.105 378.906 c 2
 433.105 74.2188 l 2
 433.105 50.7812 437.012 34.668 445.312 25.8789 c 0
 453.613 17.0898 469.727 13.1836 493.164 13.1836 c 1
 493.164 0 l 1
EndSplineSet
EndChar
StartChar: I
Encoding: 73 73 41
OldEncoding: 73
Width: 248
Flags: HW
HStem: 0 21<25 227 227 227> 432 20<25 227 25 25>
VStem: 90 71<74 378>
Fore
227 0 m 1
 25 0 l 1
 25 13 l 1
 77 13 90 23 90 74 c 2
 90 378 l 2
 90 401 87 417 80 427 c 1
 69 436 51 440 25 440 c 1
 25 452 l 1
 227 452 l 1
 227 440 l 1
 204 440 186 436 175 429 c 1
 166 420 161 403 161 378 c 2
 161 74 l 2
 161 23 175 13 227 13 c 1
 227 0 l 1
EndSplineSet
MinimumDistance: x10,-1 
Back
227.051 0 m 1
 24.9023 0 l 1
 24.9023 13.1836 l 1
 50.7812 13.1836 68.3594 16.6016 77.1484 24.4141 c 0
 85.4492 32.2266 89.8438 48.8281 89.8438 74.2188 c 2
 89.8438 377.93 l 2
 89.8438 400.879 86.4258 416.992 80.0781 426.758 c 1
 69.3359 435.547 50.7812 439.941 24.9023 439.941 c 1
 24.9023 452.148 l 1
 227.051 452.148 l 1
 227.051 439.941 l 1
 203.613 439.941 186.523 436.523 174.805 429.199 c 1
 165.527 420.41 161.133 403.32 161.133 377.93 c 2
 161.133 74.2188 l 2
 161.133 48.8281 165.527 32.2266 174.316 24.4141 c 0
 183.594 16.6016 201.172 13.1836 227.051 13.1836 c 1
 227.051 0 l 1
EndSplineSet
EndChar
StartChar: J
Encoding: 74 74 42
OldEncoding: 74
Width: 266
Flags: HW
HStem: -8 21<70.5 98> 433 20<60 257 60 60>
VStem: 124 70<125 379>
Fore
257 440 m 1
 222 440 202 430 197 410 c 0
 195 402 194 392 194 379 c 2
 194 125 l 2
 194 85 185 53 167 29 c 1
 146 4 117 -8 79 -8 c 0
 62 -8 47 -5 34 2 c 0
 18 11 10 24 10 40 c 0
 10 56 26 74 42 74 c 0
 55 74 65 69 71 59 c 1
 82 31 l 2
 86 21 91 16 97 16 c 0
 115 16 124 31 124 62 c 2
 124 379 l 2
 124 430 111 440 60 440 c 1
 60 453 l 1
 257 453 l 1
 257 440 l 1
EndSplineSet
MinimumDistance: x0,-1 
Back
256.836 439.941 m 1
 221.68 439.941 201.66 430.176 196.777 410.156 c 0
 194.824 401.855 193.848 391.602 193.848 378.906 c 2
 193.848 125 l 2
 193.848 84.9609 185.059 53.2227 166.992 28.8086 c 1
 146.484 4.39453 117.188 -7.8125 79.1016 -7.8125 c 0
 61.5234 -7.8125 46.875 -4.88281 34.1797 1.95312 c 0
 18.0664 11.2305 9.76562 23.9258 9.76562 40.0391 c 0
 9.76562 47.8516 13.1836 55.6641 20.0195 62.9883 c 0
 26.8555 70.3125 34.1797 74.2188 41.9922 74.2188 c 0
 55.1758 74.2188 64.9414 68.8477 70.8008 59.082 c 1
 82.0312 30.7617 l 2
 85.9375 20.9961 90.8203 16.1133 97.168 16.1133 c 0
 115.234 16.1133 124.023 31.25 124.023 62.0117 c 2
 124.023 378.906 l 2
 124.023 404.297 119.629 420.898 110.84 428.711 c 0
 102.539 436.035 85.4492 439.941 60.0586 439.941 c 1
 60.0586 453.125 l 1
 256.836 453.125 l 1
 256.836 439.941 l 1
EndSplineSet
EndChar
StartChar: K
Encoding: 75 75 43
OldEncoding: 75
Width: 512
Flags: HW
HStem: 0 21<36 228 228 228 299 507 507 507> 433 20<36 230 36 36 295 474 295 295>
VStem: 97 70<74 82 82 202 239 378>
Fore
507 0 m 1
 299 0 l 1
 299 13 l 1
 329 13 345 19 347 30 c 1
 347 47 317 86 258 145 c 2
 184 217 l 1
 167 202 l 1
 167 74 l 2
 167 51 171 35 178 26 c 1
 196 16 l 1
 204 14 215 13 228 13 c 1
 228 0 l 1
 36 0 l 1
 36 13 l 1
 60 13 78 19 89 30 c 0
 94 36 97 53 97 82 c 2
 97 378 l 2
 97 426 84 440 36 440 c 1
 36 453 l 1
 230 453 l 1
 230 440 l 1
 209 440 192 436 179 427 c 1
 171 419 167 403 167 378 c 2
 167 239 l 1
 243 307 l 1
 312 371 l 2
 332 390 342 406 342 418 c 0
 342 433 326 440 295 440 c 1
 295 453 l 1
 474 453 l 1
 474 440 l 1
 463 440 454 439 446 436 c 2
 425 430 l 1
 410 423 392 408 370 386 c 2
 240 258 l 1
 434 51 l 1
 456 31 l 2
 471 19 488 13 507 13 c 1
 507 0 l 1
EndSplineSet
MinimumDistance: x5,-1 
Back
506.836 0 m 1
 298.828 0 l 1
 298.828 13.1836 l 1
 329.102 13.1836 345.215 18.5547 347.168 29.7852 c 1
 347.168 47.3633 317.383 85.4492 257.812 145.02 c 2
 184.082 216.797 l 1
 166.992 202.148 l 1
 166.992 74.2188 l 2
 166.992 51.2695 170.898 35.1562 178.223 25.8789 c 1
 195.801 16.1133 l 1
 204.102 14.1602 214.844 13.1836 228.027 13.1836 c 1
 228.027 0 l 1
 36.1328 0 l 1
 36.1328 13.1836 l 1
 60.0586 13.1836 77.6367 18.5547 88.8672 29.7852 c 0
 94.2383 36.1328 97.168 53.2227 97.168 82.0312 c 2
 97.168 377.93 l 2
 97.168 401.855 92.7734 418.457 84.4727 426.758 c 0
 76.1719 435.547 60.0586 439.941 36.1328 439.941 c 1
 36.1328 453.125 l 1
 229.98 453.125 l 1
 229.98 439.941 l 1
 209.473 439.941 192.383 435.547 179.199 426.758 c 1
 170.898 418.945 166.992 402.832 166.992 377.93 c 2
 166.992 238.77 l 1
 243.164 307.129 l 1
 312.012 371.094 l 2
 332.031 390.137 341.797 405.762 341.797 417.969 c 0
 341.797 432.617 326.172 439.941 294.922 439.941 c 1
 294.922 453.125 l 1
 474.121 453.125 l 1
 474.121 439.941 l 1
 463.379 439.941 454.102 438.477 445.801 436.035 c 2
 424.805 430.176 l 1
 410.156 422.852 392.09 408.203 370.117 386.23 c 2
 240.234 257.812 l 1
 434.082 50.7812 l 1
 456.055 30.7617 l 1
 471.191 19.043 488.281 13.1836 506.836 13.1836 c 1
 506.836 0 l 1
EndSplineSet
EndChar
StartChar: L
Encoding: 76 76 44
OldEncoding: 76
Width: 433
Flags: HW
HStem: 0 26<202.5 206 206 227> 433 20<29 223 29 29>
VStem: 88 71<55 74 74 379>
Fore
431 119 m 1
 398 0 l 1
 29 0 l 1
 29 13 l 1
 76 13 88 27 88 74 c 2
 88 379 l 2
 88 406 84 422 75 429 c 1
 57 436 l 1
 29 440 l 1
 29 453 l 1
 223 453 l 1
 223 440 l 1
 191 437 l 1
 173 429 l 1
 164 421 159 404 159 379 c 2
 159 55 l 2
 159 44 162 36 169 32 c 0
 172 29 180 28 193 27 c 0
 195 26 199 26 206 26 c 2
 227 26 l 2
 288 26 327 30 344 39 c 0
 371 52 394 78 413 119 c 1
 431 119 l 1
EndSplineSet
MinimumDistance: x14,-1 
Back
431.152 119.141 m 1
 397.949 0 l 1
 28.8086 0 l 1
 28.8086 13.1836 l 1
 52.2461 13.1836 67.8711 17.0898 76.1719 25.8789 c 0
 83.9844 34.668 87.8906 50.7812 87.8906 74.2188 c 2
 87.8906 378.906 l 2
 87.8906 405.762 83.4961 422.363 75.1953 429.199 c 1
 57.1289 436.035 l 1
 28.8086 439.941 l 1
 28.8086 453.125 l 1
 223.145 453.125 l 1
 223.145 439.941 l 1
 190.918 437.012 l 1
 172.852 429.199 l 1
 163.574 420.898 159.18 404.297 159.18 378.906 c 2
 159.18 55.1758 l 2
 159.18 43.457 162.109 36.1328 168.945 32.2266 c 0
 172.363 29.2969 180.176 27.832 192.871 26.8555 c 0
 194.824 26.3672 199.219 25.8789 206.055 25.8789 c 2
 227.051 25.8789 l 2
 287.598 25.8789 326.66 30.2734 344.238 39.0625 c 0
 371.094 51.7578 394.531 78.125 413.086 119.141 c 1
 431.152 119.141 l 1
EndSplineSet
EndChar
StartChar: M
Encoding: 77 77 45
OldEncoding: 77
Width: 625
Flags: HW
HStem: 0 21<20 181 181 181 288 298 298 298 410 601 601 601> 432 20<22 156 22 22 465 601 465 465>
VStem: 86 30<84.5 100> 472 70<74 82 82 377 377 388>
Fore
601 0 m 1
 410 0 l 1
 410 13 l 1
 436 13 453 18 462 28 c 1
 469 38 472 56 472 82 c 2
 472 388 l 1
 298 0 l 1
 288 0 l 1
 117 373 l 1
 116 100 l 1
 116 69 119 47 125 36 c 0
 134 21 152 13 181 13 c 1
 181 0 l 1
 20 0 l 1
 20 13 l 1
 50 13 69 21 76 36 c 1
 83 47 86 68 86 100 c 2
 86 377 l 2
 86 403 81 420 72 427 c 0
 69 430 63 432 54 435 c 1
 22 439 l 1
 22 452 l 1
 156 452 l 1
 314 107 l 1
 465 452 l 1
 601 452 l 1
 601 439 l 1
 554 439 542 424 542 377 c 2
 542 74 l 2
 542 41 552 22 572 16 c 1
 601 13 l 1
 601 0 l 1
EndSplineSet
MinimumDistance: x27,-1 
Back
601.074 0 m 1
 410.156 0 l 1
 410.156 13.1836 l 1
 436.035 13.1836 453.125 18.0664 461.914 27.832 c 1
 468.75 38.0859 472.168 56.1523 472.168 82.0312 c 2
 472.168 388.184 l 1
 297.852 0 l 1
 288.086 0 l 1
 117.188 373.047 l 1
 116.211 100.098 l 1
 116.211 68.8477 119.141 47.3633 125 36.1328 c 0
 133.789 20.5078 152.344 13.1836 181.152 13.1836 c 1
 181.152 0 l 1
 20.0195 0 l 1
 20.0195 13.1836 l 1
 49.8047 13.1836 68.8477 20.5078 76.1719 36.1328 c 0
 82.5195 46.875 85.9375 67.8711 85.9375 100.098 c 2
 85.9375 376.953 l 2
 85.9375 402.832 81.543 419.434 71.7773 426.758 c 0
 69.3359 429.688 63.4766 432.129 54.1992 435.059 c 1
 21.9727 438.965 l 1
 21.9727 452.148 l 1
 155.762 452.148 l 1
 313.965 106.934 l 1
 464.844 452.148 l 1
 601.074 452.148 l 1
 601.074 438.965 l 1
 577.637 438.965 562.012 434.57 554.199 425.293 c 0
 545.898 416.504 541.992 400.391 541.992 376.953 c 2
 541.992 74.2188 l 2
 541.992 41.5039 551.758 21.9727 571.777 16.1133 c 1
 601.074 13.1836 l 1
 601.074 0 l 1
EndSplineSet
EndChar
StartChar: N
Encoding: 78 78 46
OldEncoding: 78
Width: 510
Flags: HW
HStem: -6 21<420 431 431 431> 0 21<20 182 182 182> 433 20<20 138 20 20 335 497 335 335>
VStem: 87 30<85 101> 402 29<352 366.5>
Fore
497 440 m 1
 470 440 452 432 442 415 c 0
 435 402 431 381 431 352 c 2
 431 -6 l 1
 420 -6 l 1
 118 368 l 1
 117 101 l 1
 117 69 120 47 126 36 c 0
 135 21 153 13 182 13 c 1
 182 0 l 1
 20 0 l 1
 20 13 l 1
 49 13 68 21 77 36 c 0
 84 47 87 68 87 101 c 2
 87 403 l 1
 68 428 46 440 20 440 c 1
 20 453 l 1
 138 453 l 1
 400 124 l 1
 402 352 l 1
 402 385 399 406 392 417 c 0
 383 432 364 440 335 440 c 1
 335 453 l 1
 497 453 l 1
 497 440 l 1
EndSplineSet
MinimumDistance: x2,-1 
Back
497.07 439.941 m 1
 470.215 439.941 452.148 431.641 441.895 415.039 c 0
 434.57 401.855 431.152 380.859 431.152 352.051 c 2
 431.152 -5.85938 l 1
 419.922 -5.85938 l 1
 118.164 368.164 l 1
 117.188 101.074 l 1
 117.188 68.8477 120.117 47.3633 125.977 36.1328 c 0
 134.766 20.5078 153.32 13.1836 182.129 13.1836 c 1
 182.129 0 l 1
 20.0195 0 l 1
 20.0195 13.1836 l 1
 49.3164 13.1836 68.3594 20.5078 77.1484 36.1328 c 0
 83.4961 46.875 86.9141 68.3594 86.9141 101.074 c 2
 86.9141 402.832 l 1
 68.3594 427.734 45.8984 439.941 20.0195 439.941 c 1
 20.0195 453.125 l 1
 138.184 453.125 l 1
 399.902 124.023 l 1
 401.855 352.051 l 1
 401.855 384.766 398.438 406.25 392.09 416.992 c 0
 382.812 432.129 363.77 439.941 334.961 439.941 c 1
 334.961 453.125 l 1
 497.07 453.125 l 1
 497.07 439.941 l 1
EndSplineSet
EndChar
StartChar: O
Encoding: 79 79 47
OldEncoding: 79
Width: 526
Flags: HW
HStem: -8 22<234.5 285.5> 437 24<234.5 284.5>
VStem: 36 78<198 254.5> 405 78<198.5 253.5>
Fore
483 225 m 0
 483 158 463 102 422 57 c 0
 381 14 327 -8 260 -8 c 0
 193 -8 139 14 98 57 c 0
 57 102 36 158 36 225 c 0
 36 292 57 349 98 394 c 0
 139 439 193 461 260 461 c 0
 328 461 382 439 422 394 c 1
 463 351 483 294 483 225 c 0
405 226 m 0
 405 281 395 328 375 366 c 1
 348 413 309 437 260 437 c 0
 209 437 170 414 145 367 c 0
 124 330 114 283 114 226 c 0
 114 170 124 123 145 86 c 0
 170 38 209 14 260 14 c 0
 311 14 349 38 375 86 c 0
 395 124 405 171 405 226 c 0
EndSplineSet
MinimumDistance: x8,-1 
Back
482.91 225.098 m 0
 482.91 157.715 462.891 101.562 421.875 57.1289 c 0
 381.348 13.6719 327.148 -7.8125 259.766 -7.8125 c 0
 192.871 -7.8125 138.672 13.6719 98.1445 57.1289 c 0
 56.6406 101.562 36.1328 157.715 36.1328 225.098 c 0
 36.1328 292.48 56.6406 348.633 98.1445 394.043 c 0
 138.672 438.477 192.871 460.938 259.766 460.938 c 0
 328.125 460.938 381.836 438.477 421.875 394.043 c 0
 462.891 350.586 482.91 294.434 482.91 225.098 c 0
404.785 226.074 m 0
 404.785 281.25 395.02 328.125 375 366.211 c 1
 347.656 413.574 309.57 437.012 259.766 437.012 c 0
 208.496 437.012 170.41 413.574 145.02 367.188 c 0
 124.512 330.566 113.77 283.203 113.77 226.074 c 0
 113.77 169.922 124.512 123.535 145.02 85.9375 c 0
 170.41 38.0859 208.496 14.1602 259.766 14.1602 c 0
 310.547 14.1602 349.121 38.0859 375 85.9375 c 0
 395.02 124.023 404.785 170.898 404.785 226.074 c 0
EndSplineSet
EndChar
StartChar: P
Encoding: 80 80 48
OldEncoding: 80
Width: 401
Flags: HW
HStem: 0 21<23 215 215 215> 428 25<166.5 204>
VStem: 81 69<74 82 82 200 227 379> 309 74<306.5 352.5>
Fore
383 330 m 0
 383 283 362 248 321 225 c 0
 289 206 248 198 196 198 c 2
 179 198 l 1
 150 200 l 1
 150 74 l 2
 150 26 167 13 215 13 c 1
 215 0 l 1
 23 0 l 1
 23 13 l 1
 47 13 63 18 72 29 c 0
 78 38 81 56 81 82 c 2
 81 379 l 2
 81 427 70 440 23 440 c 1
 23 453 l 1
 204 453 l 2
 252 453 291 444 323 428 c 0
 363 407 383 375 383 330 c 0
309 329 m 0
 309 395 265 428 178 428 c 0
 155 428 150 425 150 405 c 2
 150 227 l 1
 157 227 164 226 171 225 c 2
 191 225 l 2
 270 225 309 260 309 329 c 0
EndSplineSet
MinimumDistance: x9,-1 
Back
382.812 330.078 m 0
 382.812 283.203 362.305 248.535 320.801 225.098 c 0
 305.176 215.82 286.621 208.984 266.113 204.59 c 0
 245.117 200.195 222.168 198.242 195.801 198.242 c 2
 179.199 198.242 l 1
 149.902 200.195 l 1
 149.902 74.2188 l 2
 149.902 49.8047 154.785 33.6914 164.551 25.3906 c 0
 174.316 17.0898 190.918 13.1836 214.844 13.1836 c 1
 214.844 0 l 1
 22.9492 0 l 1
 22.9492 13.1836 l 1
 46.875 13.1836 63.4766 18.5547 71.7773 28.8086 c 0
 78.125 38.5742 81.0547 56.1523 81.0547 82.0312 c 2
 81.0547 378.906 l 2
 81.0547 402.832 77.1484 418.945 69.3359 427.734 c 0
 62.0117 436.035 46.3867 439.941 22.9492 439.941 c 1
 22.9492 453.125 l 1
 204.102 453.125 l 2
 228.027 453.125 250 450.684 269.531 446.289 c 0
 289.062 442.383 307.129 436.035 323.242 428.223 c 0
 362.793 407.227 382.812 374.512 382.812 330.078 c 0
309.082 329.102 m 0
 309.082 395.02 265.137 428.223 178.223 428.223 c 0
 166.504 428.223 159.18 426.758 155.273 423.828 c 0
 151.855 421.387 149.902 415.039 149.902 404.785 c 2
 149.902 227.051 l 1
 153.32 227.051 156.738 227.051 160.645 226.562 c 0
 170.898 225.098 l 2
 190.918 225.098 l 2
 269.531 225.098 309.082 259.766 309.082 329.102 c 0
EndSplineSet
EndChar
StartChar: Q
Encoding: 81 81 49
OldEncoding: 81
Width: 525
Flags: HW
HStem: -115 130 436 25<233 284.5>
VStem: 36 78<198.5 253> 404 78<198.5 252.5>
Fore
458 -109 m 1
 429 -110 l 2
 333 -113 262 -87 216 -32 c 1
 193 0 l 1
 148 11 104 40 76 84 c 0
 49 125 36 172 36 225 c 0
 36 294 56 350 97 393 c 0
 138 438 192 461 259 461 c 0
 327 461 381 438 421 393 c 1
 462 350 482 294 482 225 c 0
 482 156 462 100 421 57 c 0
 388 22 334 2 291 -3 c 1
 308 -28 l 1
 336 -54 l 1
 371 -83 411 -97 458 -97 c 1
 458 -109 l 1
404 225 m 0
 404 280 394 327 374 365 c 0
 349 412 310 436 259 436 c 0
 207 436 169 412 144 365 c 0
 123 326 114 281 114 225 c 0
 114 166 123 121 144 85 c 1
 169 38 207 15 259 15 c 0
 310 15 348 39 373 86 c 0
 394 125 404 172 404 225 c 0
EndSplineSet
MinimumDistance: x21,-1 
Back
458.008 -108.887 m 1
 429.199 -109.863 l 2
 333.008 -113.281 262.207 -87.4023 215.82 -32.2266 c 1
 192.871 0 l 1
 170.41 5.37109 148.438 15.1367 127.93 29.2969 c 0
 107.422 43.9453 89.8438 62.0117 76.1719 83.9844 c 0
 49.3164 125.488 36.1328 172.363 36.1328 225.098 c 0
 36.1328 293.457 56.1523 349.609 97.168 393.066 c 0
 138.184 438.477 192.383 460.938 258.789 460.938 c 0
 327.148 460.938 380.859 438.477 420.898 393.066 c 1
 461.426 350.098 481.934 294.434 481.934 225.098 c 0
 481.934 156.25 461.426 100.098 420.898 57.1289 c 0
 404.297 39.5508 383.789 25.8789 359.375 16.1133 c 0
 334.961 5.85938 312.5 -0.488281 291.016 -2.92969 c 1
 308.105 -27.832 l 1
 335.938 -54.1992 l 1
 370.605 -82.5195 411.133 -97.168 458.008 -97.168 c 1
 458.008 -108.887 l 1
403.809 225.098 m 0
 403.809 280.273 394.043 327.148 374.023 365.234 c 0
 348.633 412.109 310.547 436.035 258.789 436.035 c 0
 207.031 436.035 168.457 412.109 144.043 365.234 c 0
 133.301 345.703 125.488 324.707 121.094 301.27 c 0
 116.211 278.32 113.77 252.93 113.77 225.098 c 0
 113.77 195.801 116.211 169.434 121.094 146.484 c 0
 125.488 123.535 133.301 103.027 144.043 84.9609 c 0
 168.457 38.5742 207.031 15.1367 258.789 15.1367 c 0
 310.547 15.1367 348.145 38.5742 373.047 85.9375 c 0
 393.555 125.488 403.809 171.875 403.809 225.098 c 0
EndSplineSet
EndChar
StartChar: R
Encoding: 82 82 50
OldEncoding: 82
Width: 474
Flags: HW
HStem: 0 21<26 215 215 215 355 465 465 465> 428 25<188 214>
VStem: 83 71<74 82 82 209 235 379> 314 75<313.5 366>
Fore
465 0 m 1
 355 0 l 1
 192 211 l 1
 154 209 l 1
 154 74 l 2
 154 27 168 13 215 13 c 1
 215 0 l 1
 26 0 l 1
 26 13 l 1
 50 13 66 18 75 29 c 0
 80 36 83 54 83 82 c 2
 83 379 l 2
 83 404 80 419 74 426 c 0
 65 435 49 440 26 440 c 1
 26 453 l 1
 214 453 l 2
 331 453 389 413 389 334 c 0
 389 273 347 235 264 218 c 1
 405 45 l 2
 422 24 442 13 465 13 c 1
 465 0 l 1
314 335 m 0
 314 397 275 428 196 428 c 0
 180 428 170 427 166 426 c 0
 158 423 154 416 154 403 c 2
 154 235 l 1
 198 235 231 240 256 249 c 0
 295 263 314 292 314 335 c 0
EndSplineSet
MinimumDistance: x9,-1 
Back
464.844 0 m 1
 354.98 0 l 1
 191.895 210.938 l 1
 153.809 208.984 l 1
 153.809 74.2188 l 2
 153.809 50.7812 158.203 34.668 166.992 25.8789 c 0
 175.781 17.0898 191.895 13.1836 214.844 13.1836 c 1
 214.844 0 l 1
 25.8789 0 l 1
 25.8789 13.1836 l 1
 49.8047 13.1836 66.4062 18.5547 75.1953 28.8086 c 0
 80.5664 36.1328 83.0078 54.1992 83.0078 82.0312 c 2
 83.0078 378.906 l 2
 83.0078 403.809 80.0781 419.434 74.2188 425.781 c 0
 64.4531 435.547 48.8281 439.941 25.8789 439.941 c 1
 25.8789 453.125 l 1
 213.867 453.125 l 2
 330.566 453.125 389.16 413.574 389.16 333.984 c 0
 389.16 273.438 347.168 234.863 264.16 217.773 c 1
 404.785 44.9219 l 2
 422.363 23.4375 442.383 13.1836 464.844 13.1836 c 1
 464.844 0 l 1
313.965 334.961 m 0
 313.965 396.973 274.902 428.223 195.801 428.223 c 0
 180.176 428.223 169.922 427.246 166.016 425.781 c 0
 158.203 423.34 153.809 415.527 153.809 402.832 c 2
 153.809 234.863 l 1
 175.781 234.863 195.312 236.328 211.914 238.281 c 0
 228.516 240.723 243.164 244.141 255.859 249.023 c 0
 294.434 263.184 313.965 291.504 313.965 334.961 c 0
EndSplineSet
EndChar
StartChar: S
Encoding: 83 83 51
OldEncoding: 83
Width: 401
Flags: HW
HStem: -8 22<198.5 221> -7 21 433 28<171.5 191.5>
VStem: 63 59<355 380.5> 281 69<96 104>
Fore
350 114 m 0
 350 78 335 48 304 23 c 1
 275 2 243 -8 206 -8 c 0
 191 -8 172 -5 148 2 c 0
 124 10 108 13 99 13 c 0
 86 13 79 6 79 -7 c 1
 63 -7 l 1
 43 135 l 1
 58 135 l 1
 92 54 139 14 199 14 c 0
 243 14 281 47 281 91 c 0
 281 117 268 142 243 165 c 0
 232 174 209 190 170 211 c 0
 134 232 111 248 96 263 c 0
 74 286 63 314 63 345 c 0
 63 416 114 461 186 461 c 0
 197 461 216 457 243 449 c 2
 282 438 l 1
 293 438 301 446 305 461 c 1
 320 461 l 1
 334 316 l 1
 318 316 l 1
 311 348 296 375 275 398 c 1
 250 421 222 433 191 433 c 0
 152 433 122 408 122 369 c 0
 122 341 142 314 181 289 c 2
 291 219 l 2
 330 194 350 159 350 114 c 0
EndSplineSet
MinimumDistance: x0,-1 
Back
350.098 113.77 m 0
 350.098 78.125 334.473 47.8516 304.199 22.9492 c 1
 275.391 2.44141 242.676 -7.8125 206.055 -7.8125 c 0
 191.406 -7.8125 171.875 -4.88281 147.949 1.95312 c 0
 136.23 5.85938 125.977 8.78906 118.164 10.7422 c 0
 109.863 12.207 103.516 13.1836 99.1211 13.1836 c 0
 85.4492 13.1836 79.1016 6.34766 79.1016 -6.83594 c 1
 62.9883 -6.83594 l 1
 42.9688 134.766 l 1
 58.1055 134.766 l 1
 91.7969 54.1992 139.16 14.1602 199.219 14.1602 c 0
 221.191 14.1602 240.234 21.4844 256.348 36.1328 c 0
 272.949 50.7812 280.762 68.8477 280.762 90.8203 c 0
 280.762 117.188 268.555 141.602 243.164 165.039 c 0
 237.793 169.434 229.004 175.781 216.797 183.594 c 0
 205.078 191.406 189.453 200.195 169.922 210.938 c 0
 151.855 221.68 137.207 230.957 125 239.258 c 0
 112.793 248.047 103.516 255.859 96.1914 263.184 c 0
 74.2188 286.133 62.9883 313.477 62.9883 345.215 c 0
 62.9883 380.371 74.707 408.691 97.6562 429.688 c 0
 120.605 450.684 149.902 460.938 186.035 460.938 c 0
 197.266 460.938 216.309 457.031 243.164 449.219 c 2
 282.227 437.988 l 1
 293.457 437.988 300.781 445.801 305.176 460.938 c 1
 319.824 460.938 l 1
 333.984 315.918 l 1
 317.871 315.918 l 1
 310.547 348.145 296.387 375.488 274.902 397.949 c 1
 250.488 421.387 222.168 433.105 190.918 433.105 c 0
 171.875 433.105 155.273 427.246 142.09 415.527 c 0
 128.906 403.809 122.07 388.184 122.07 369.141 c 0
 122.07 340.82 141.602 314.453 181.152 289.062 c 2
 291.016 219.238 l 2
 330.566 193.848 350.098 158.691 350.098 113.77 c 0
EndSplineSet
EndChar
StartChar: T
Encoding: 84 84 52
OldEncoding: 84
Width: 443
Flags: HW
HStem: 0 21<121 321 321 321> 425 28<149 186 186 186 256 293 293 311.5>
VStem: 186 70<74 82 82 425>
Fore
418 337 m 1
 401 337 l 1
 395 372 384 396 369 407 c 0
 355 419 330 425 293 425 c 2
 256 425 l 1
 256 74 l 2
 256 26 270 13 321 13 c 1
 321 0 l 1
 121 0 l 1
 121 13 l 1
 149 13 168 18 177 29 c 0
 183 36 186 54 186 82 c 2
 186 425 l 1
 149 425 l 2
 113 425 88 419 73 408 c 0
 59 397 48 373 40 337 c 1
 24 337 l 1
 28 453 l 1
 414 453 l 1
 418 337 l 1
EndSplineSet
MinimumDistance: x3,-1 
Back
417.969 336.914 m 1
 400.879 336.914 l 1
 395.02 372.559 384.277 395.508 369.141 407.227 c 0
 354.98 418.945 329.59 424.805 292.969 424.805 c 2
 255.859 424.805 l 1
 255.859 74.2188 l 2
 255.859 49.8047 260.742 33.6914 269.531 25.3906 c 0
 278.32 17.0898 295.898 13.1836 320.801 13.1836 c 1
 320.801 0 l 1
 121.094 0 l 1
 121.094 13.1836 l 1
 148.926 13.1836 167.48 18.5547 176.758 28.8086 c 0
 183.105 36.1328 186.035 54.1992 186.035 82.0312 c 2
 186.035 424.805 l 1
 148.926 424.805 l 2
 112.793 424.805 87.8906 419.434 73.2422 408.203 c 0
 59.082 396.484 47.8516 373.047 40.0391 336.914 c 1
 23.9258 336.914 l 1
 27.832 453.125 l 1
 414.062 453.125 l 1
 417.969 336.914 l 1
EndSplineSet
EndChar
StartChar: U
Encoding: 85 85 53
OldEncoding: 85
Width: 527
Flags: HW
HStem: -8 28<240 298.5> 433 20<29 223 29 29 343 502 343 343>
VStem: 91 69<159 165 165 379> 408 30<174 352>
Fore
502 440 m 1
 471 437 453 429 446 416 c 0
 441 407 438 385 438 352 c 2
 438 174 l 2
 438 125 431 87 416 62 c 0
 389 15 337 -8 260 -8 c 0
 147 -8 91 50 91 165 c 2
 91 379 l 2
 91 427 77 440 29 440 c 1
 29 453 l 1
 223 453 l 1
 223 440 l 1
 172 440 160 430 160 379 c 2
 160 159 l 2
 160 66 200 20 280 20 c 0
 333 20 370 38 392 74 c 0
 403 91 408 122 408 167 c 2
 408 352 l 2
 408 383 405 404 398 415 c 0
 389 432 371 440 343 440 c 1
 343 453 l 1
 502 453 l 1
 502 440 l 1
EndSplineSet
MinimumDistance: x0,-1 
Back
501.953 439.941 m 1
 471.191 436.523 452.637 428.711 445.801 416.016 c 0
 440.43 406.738 437.988 385.254 437.988 352.051 c 2
 437.988 173.828 l 2
 437.988 124.512 430.664 87.4023 416.016 62.0117 c 0
 389.16 15.1367 337.402 -7.8125 259.766 -7.8125 c 0
 147.461 -7.8125 90.8203 49.8047 90.8203 165.039 c 2
 90.8203 378.906 l 2
 90.8203 402.832 86.4258 418.945 78.125 427.734 c 0
 69.3359 436.035 53.2227 439.941 28.8086 439.941 c 1
 28.8086 453.125 l 1
 223.145 453.125 l 1
 223.145 439.941 l 1
 197.754 439.941 180.664 436.035 172.363 428.711 c 0
 164.062 420.898 160.156 404.297 160.156 378.906 c 2
 160.156 159.18 l 2
 160.156 66.4062 200.195 20.0195 279.785 20.0195 c 0
 332.52 20.0195 370.117 38.0859 392.09 74.2188 c 0
 402.832 90.8203 408.203 121.582 408.203 166.992 c 2
 408.203 352.051 l 2
 408.203 383.301 404.785 404.297 397.949 415.039 c 0
 389.16 431.641 371.094 439.941 342.773 439.941 c 1
 342.773 453.125 l 1
 501.953 453.125 l 1
 501.953 439.941 l 1
EndSplineSet
EndChar
StartChar: V
Encoding: 86 86 54
OldEncoding: 86
Width: 483
Flags: HW
HStem: -6 21<251 261 261 261> 433 20<9 191 9 9 335 476 335 335>
Fore
476 441 m 1
 467 441 460 440 455 437 c 2
 440 428 l 1
 435 423 431 417 427 408 c 2
 412 377 l 1
 261 -6 l 1
 251 -6 l 1
 81 369 l 2
 68 398 57 418 47 428 c 1
 36 435 l 2
 28 439 19 441 9 441 c 1
 9 453 l 1
 191 453 l 1
 191 441 l 1
 171 441 157 439 148 434 c 1
 143 433 140 426 140 415 c 0
 140 410 150 386 169 342 c 2
 271 111 l 1
 372 362 l 1
 379 376 383 392 385 409 c 1
 385 430 368 441 335 441 c 1
 335 453 l 1
 476 453 l 1
 476 441 l 1
EndSplineSet
MinimumDistance: x4,-1 
Back
476.074 440.918 m 1
 466.797 440.918 459.473 439.453 455.078 437.012 c 2
 439.941 428.223 l 1
 435.547 423.34 431.152 416.504 426.758 408.203 c 2
 412.109 376.953 l 1
 261.23 -5.85938 l 1
 250.977 -5.85938 l 1
 81.0547 369.141 l 1
 68.3594 398.438 57.1289 417.969 46.875 428.223 c 1
 36.1328 435.059 l 2
 27.832 438.965 19.043 440.918 8.78906 440.918 c 1
 8.78906 453.125 l 1
 190.918 453.125 l 1
 190.918 440.918 l 1
 170.898 440.918 156.738 438.477 147.949 434.082 c 0
 142.578 432.617 140.137 426.27 140.137 415.039 c 0
 140.137 410.156 149.902 386.23 168.945 341.797 c 2
 270.996 110.84 l 1
 372.07 361.816 l 1
 378.906 375.977 382.812 391.602 384.766 409.18 c 1
 384.766 430.176 368.164 440.918 334.961 440.918 c 1
 334.961 453.125 l 1
 476.074 453.125 l 1
 476.074 440.918 l 1
EndSplineSet
EndChar
StartChar: W
Encoding: 87 87 55
OldEncoding: 87
Width: 662
Flags: HW
HStem: -6 21<218 228 228 228 444 453 453 453> 433 20<15 183 15 15 226 409 226 226 515 650 515 515>
Fore
650 440 m 1
 618 433 607 427 596 398 c 2
 522 198 l 1
 485 91 l 1
 453 -6 l 1
 444 -6 l 1
 425 50 390 145 334 282 c 1
 228 -6 l 1
 218 -6 l 1
 157 170 l 1
 86 360 l 1
 76 389 68 407 63 414 c 0
 52 429 36 438 15 440 c 1
 15 453 l 1
 183 453 l 1
 183 440 l 1
 175 440 169 439 164 438 c 2
 146 432 l 2
 141 430 138 425 138 417 c 0
 138 412 141 402 146 386 c 1
 245 129 l 1
 318 323 l 1
 296 379 l 2
 287 403 279 418 272 425 c 0
 262 435 247 440 226 440 c 1
 226 453 l 1
 409 453 l 1
 409 440 l 1
 374 440 356 431 356 414 c 1
 360 398 l 1
 375 361 l 1
 465 127 l 1
 551 359 l 1
 558 381 562 398 562 409 c 0
 562 421 557 429 547 434 c 1
 534 438 l 1
 515 440 l 1
 515 453 l 1
 650 453 l 1
 650 440 l 1
EndSplineSet
MinimumDistance: x0,-1 
Back
649.902 439.941 m 1
 633.789 436.523 622.559 432.617 615.234 427.734 c 0
 607.91 422.363 601.562 412.598 596.191 397.949 c 2
 521.973 198.242 l 1
 484.863 90.8203 l 1
 453.125 -5.85938 l 1
 443.848 -5.85938 l 1
 434.57 21.9727 420.898 60.0586 402.832 107.422 c 0
 384.766 155.273 361.816 213.379 333.984 282.227 c 1
 228.027 -5.85938 l 1
 217.773 -5.85938 l 1
 157.227 169.922 l 1
 85.9375 359.863 l 1
 76.1719 389.16 68.3594 407.227 62.9883 414.062 c 0
 51.7578 429.199 35.6445 437.988 15.1367 439.941 c 1
 15.1367 453.125 l 1
 183.105 453.125 l 1
 183.105 439.941 l 1
 179.199 439.941 175.293 439.941 172.363 439.453 c 0
 169.434 438.965 166.504 438.477 164.062 437.988 c 2
 145.996 432.129 l 2
 140.625 430.176 138.184 424.805 138.184 416.992 c 0
 138.184 412.109 140.625 401.855 145.996 386.23 c 1
 245.117 128.906 l 1
 317.871 323.242 l 1
 295.898 378.906 l 2
 286.621 402.832 278.809 418.457 271.973 424.805 c 0
 262.207 435.059 246.582 439.941 226.074 439.941 c 1
 226.074 453.125 l 1
 409.18 453.125 l 1
 409.18 439.941 l 1
 373.535 439.941 355.957 431.152 355.957 414.062 c 1
 359.863 397.949 l 1
 375 360.84 l 1
 464.844 126.953 l 1
 550.781 358.887 l 1
 558.105 380.859 562.012 397.461 562.012 409.18 c 0
 562.012 420.898 557.129 429.199 546.875 434.082 c 2
 534.18 437.988 l 1
 515.137 439.941 l 1
 515.137 453.125 l 1
 649.902 453.125 l 1
 649.902 439.941 l 1
EndSplineSet
EndChar
StartChar: X
Encoding: 88 88 56
OldEncoding: 88
Width: 513
Flags: HW
HStem: 0 21<19 179 179 179 291 495 495 495> 433 20<27 235 27 27 327 489 327 327>
Fore
495 0 m 1
 291 0 l 1
 291 13 l 1
 331 18 l 1
 339 21 343 27 344 36 c 0
 344 46 332 68 309 102 c 2
 244 198 l 1
 162 96 l 2
 139 67 127 47 127 38 c 0
 127 21 144 13 179 13 c 1
 179 0 l 1
 19 0 l 1
 19 13 l 1
 38 15 53 20 63 28 c 1
 89 56 l 1
 118 91 l 1
 226 223 l 1
 151 333 l 2
 117 383 93 413 78 424 c 0
 67 433 50 437 27 440 c 1
 27 453 l 1
 235 453 l 1
 235 440 l 1
 214 440 203 440 202 439 c 0
 190 436 184 430 183 419 c 0
 183 404 202 370 241 317 c 1
 269 277 l 1
 347 371 l 1
 367 398 l 2
 371 404 374 411 375 418 c 0
 375 433 359 440 327 440 c 1
 327 453 l 1
 489 453 l 1
 489 440 l 1
 466 440 446 434 430 422 c 0
 420 413 406 398 387 376 c 1
 288 252 l 1
 419 64 l 2
 440 33 466 16 495 13 c 1
 495 0 l 1
EndSplineSet
MinimumDistance: x37,-1 
Back
495.117 0 m 1
 291.016 0 l 1
 291.016 13.1836 l 1
 331.055 18.0664 l 1
 338.867 20.5078 343.262 26.8555 344.238 36.1328 c 0
 344.238 45.8984 332.52 67.8711 309.082 102.051 c 2
 244.141 198.242 l 1
 162.109 96.1914 l 2
 138.672 66.8945 126.953 47.3633 126.953 38.0859 c 0
 126.953 21.4844 144.531 13.1836 179.199 13.1836 c 1
 179.199 0 l 1
 19.043 0 l 1
 19.043 13.1836 l 1
 38.5742 15.1367 53.2227 20.0195 62.9883 27.832 c 1
 88.8672 56.1523 l 1
 118.164 90.8203 l 1
 226.074 223.145 l 1
 150.879 333.008 l 2
 117.188 382.812 92.7734 413.574 78.125 423.828 c 0
 72.7539 428.711 65.4297 432.129 57.1289 434.57 c 0
 48.3398 437.012 38.5742 438.477 26.8555 439.941 c 1
 26.8555 453.125 l 1
 234.863 453.125 l 1
 234.863 439.941 l 1
 214.355 439.941 203.125 439.453 202.148 438.965 c 0
 189.941 436.523 183.594 429.688 183.105 418.945 c 0
 183.105 404.297 202.148 370.117 241.211 316.895 c 2
 269.043 276.855 l 1
 347.168 371.094 l 1
 367.188 397.949 l 2
 371.094 403.809 373.535 410.645 375 417.969 c 0
 375 432.617 358.887 439.941 327.148 439.941 c 1
 327.148 453.125 l 1
 488.77 453.125 l 1
 488.77 439.941 l 1
 465.82 439.941 445.801 434.082 430.176 421.875 c 0
 419.922 413.574 405.762 397.949 387.207 375.977 c 1
 288.086 251.953 l 1
 418.945 63.9648 l 2
 440.43 33.2031 465.82 16.1133 495.117 13.1836 c 1
 495.117 0 l 1
EndSplineSet
EndChar
StartChar: Y
Encoding: 89 89 57
OldEncoding: 89
Width: 498
Flags: HW
HStem: 0 21<149 359 359 359> 433 20<17 209 17 17 334 484 334 334>
VStem: 218 70<74 82 82 202>
Fore
484 441 m 1
 469 439 456 435 445 428 c 0
 430 418 412 396 389 362 c 2
 288 208 l 1
 288 74 l 2
 288 51 292 34 300 25 c 1
 311 17 331 13 359 13 c 1
 359 0 l 1
 149 0 l 1
 149 13 l 1
 178 13 198 18 209 28 c 1
 215 36 218 54 218 82 c 2
 218 202 l 1
 129 333 l 1
 96 380 73 410 58 424 c 0
 45 435 31 441 17 441 c 1
 17 453 l 1
 209 453 l 1
 209 441 l 1
 177 441 161 434 161 419 c 0
 161 411 165 401 173 390 c 1
 273 238 l 1
 371 393 l 1
 378 400 381 409 381 418 c 0
 382 433 367 441 334 441 c 1
 334 453 l 1
 484 453 l 1
 484 441 l 1
EndSplineSet
MinimumDistance: x2,-1 
Back
483.887 440.918 m 1
 468.75 438.965 455.566 434.57 444.824 428.223 c 0
 430.176 417.969 411.621 395.996 389.16 361.816 c 2
 288.086 208.008 l 1
 288.086 74.2188 l 2
 288.086 50.7812 291.992 34.1797 299.805 24.9023 c 1
 311.523 17.0898 331.055 13.1836 358.887 13.1836 c 1
 358.887 0 l 1
 148.926 0 l 1
 148.926 13.1836 l 1
 178.223 13.1836 198.242 18.0664 208.984 27.832 c 1
 214.844 36.1328 217.773 54.1992 217.773 82.0312 c 2
 217.773 202.148 l 1
 128.906 333.008 l 1
 96.1914 379.883 72.7539 410.156 58.1055 423.828 c 0
 44.4336 435.547 30.7617 440.918 17.0898 440.918 c 1
 17.0898 453.125 l 1
 208.984 453.125 l 1
 208.984 440.918 l 1
 176.758 440.918 161.133 433.594 161.133 418.945 c 0
 161.133 411.133 165.039 401.367 172.852 390.137 c 2
 272.949 237.793 l 1
 371.094 393.066 l 1
 377.441 400.391 380.859 408.691 380.859 417.969 c 0
 382.324 433.105 366.699 440.918 333.984 440.918 c 1
 333.984 453.125 l 1
 483.887 453.125 l 1
 483.887 440.918 l 1
EndSplineSet
EndChar
StartChar: Z
Encoding: 90 90 58
OldEncoding: 90
Width: 443
Flags: HW
HStem: 0 26<111 287> 428 25<166 317 317 317>
Fore
421 120 m 1
 404 0 l 1
 18 0 l 1
 18 10 l 1
 317 428 l 1
 166 428 l 2
 123 428 92 418 75 399 c 0
 64 388 58 368 51 337 c 1
 33 337 l 1
 47 453 l 1
 407 453 l 1
 407 443 l 1
 111 26 l 1
 287 26 l 2
 328 26 357 36 374 55 c 0
 385 67 395 89 405 120 c 1
 421 120 l 1
EndSplineSet
MinimumDistance: x10,-1 
Back
420.898 120.117 m 1
 403.809 0 l 1
 18.0664 0 l 1
 18.0664 9.76562 l 1
 316.895 428.223 l 1
 166.016 428.223 l 2
 122.559 428.223 92.2852 418.457 75.1953 398.926 c 0
 69.8242 393.555 64.9414 385.742 61.5234 375.488 c 0
 57.6172 365.234 54.1992 352.539 50.7812 336.914 c 1
 33.2031 336.914 l 1
 46.875 453.125 l 1
 407.227 453.125 l 1
 407.227 442.871 l 1
 110.84 25.8789 l 1
 287.109 25.8789 l 2
 327.637 25.8789 356.445 35.6445 374.023 55.1758 c 0
 384.766 66.8945 395.02 88.8672 404.785 120.117 c 1
 420.898 120.117 l 1
EndSplineSet
EndChar
StartChar: bracketleft
Encoding: 91 91 59
OldEncoding: 91
Width: 257
Flags: HW
HStem: -87 21<84 231 231 231> 463 20<84 231 84 84>
VStem: 84 53<-33 435 435 445.5>
Fore
231 -87 m 1
 84 -87 l 1
 84 483 l 1
 231 483 l 1
 231 466 l 1
 168 466 l 2
 147 466 137 456 137 435 c 2
 137 -33 l 2
 137 -58 148 -70 171 -70 c 2
 231 -70 l 1
 231 -87 l 1
EndSplineSet
MinimumDistance: x0,-1 x7,0 x7,9 x6,3 x6,4 
Back
230.957 -86.9141 m 1
 83.9844 -86.9141 l 1
 83.9844 482.91 l 1
 230.957 482.91 l 1
 230.957 465.82 l 1
 167.969 465.82 l 2
 147.461 465.82 137.207 455.566 137.207 435.059 c 2
 137.207 -33.2031 l 2
 137.207 -57.6172 148.438 -69.8242 170.898 -69.8242 c 2
 230.957 -69.8242 l 1
 230.957 -86.9141 l 1
EndSplineSet
EndChar
StartChar: backslash
Encoding: 92 92 60
OldEncoding: 92
Width: 249
Flags: HW
HStem: -121 21<215 253 253 253> 453 20<18 55 18 18>
Fore
253 -121 m 1
 215 -121 l 1
 18 473 l 1
 55 473 l 1
 253 -121 l 1
EndSplineSet
Back
252.93 -121.094 m 1
 214.844 -121.094 l 1
 18.0664 473.145 l 1
 55.1758 473.145 l 1
 252.93 -121.094 l 1
EndSplineSet
EndChar
StartChar: bracketright
Encoding: 93 93 61
OldEncoding: 93
Width: 257
Flags: HW
HStem: -87 21<46 193 193 193> 463 20<46 193 46 46>
VStem: 140 53<-49.5 -39 -39 429>
Fore
193 -87 m 1
 46 -87 l 1
 46 -70 l 1
 109 -70 l 2
 130 -70 140 -60 140 -39 c 2
 140 429 l 2
 140 454 129 466 106 466 c 2
 46 466 l 1
 46 483 l 1
 193 483 l 1
 193 -87 l 1
EndSplineSet
MinimumDistance: x0,-1 x5,8 x5,7 x4,1 x4,2 
Back
192.871 -86.9141 m 1
 45.8984 -86.9141 l 1
 45.8984 -69.8242 l 1
 108.887 -69.8242 l 2
 129.883 -69.8242 140.137 -59.5703 140.137 -39.0625 c 2
 140.137 429.199 l 2
 140.137 453.613 128.906 465.82 105.957 465.82 c 2
 45.8984 465.82 l 1
 45.8984 482.91 l 1
 192.871 482.91 l 1
 192.871 -86.9141 l 1
EndSplineSet
EndChar
StartChar: asciicircum
Encoding: 94 94 62
OldEncoding: 94
Width: 361
Flags: HW
HStem: 208 21<39 79 79 79 294 334 334 334> 443 20<165 207 165 165>
Fore
334 208 m 1
 294 208 l 1
 186 426 l 1
 179 410 l 1
 79 208 l 1
 39 208 l 1
 165 463 l 1
 207 463 l 1
 334 208 l 1
EndSplineSet
MinimumDistance: x0,-1 
Back
333.984 208.008 m 1
 293.945 208.008 l 1
 186.035 425.781 l 1
 179.199 410.156 l 1
 79.1016 208.008 l 1
 39.0625 208.008 l 1
 165.039 462.891 l 1
 207.031 462.891 l 1
 333.984 208.008 l 1
EndSplineSet
EndChar
StartChar: underscore
Encoding: 95 95 63
OldEncoding: 95
Width: 386
Flags: HW
HStem: -85 35<22 372>
Fore
372 -85 m 1
 22 -85 l 1
 22 -50 l 1
 372 -50 l 1
 372 -85 l 1
EndSplineSet
Back
372.07 -84.9609 m 1
 21.9727 -84.9609 l 1
 21.9727 -49.8047 l 1
 372.07 -49.8047 l 1
 372.07 -84.9609 l 1
EndSplineSet
EndChar
StartChar: grave
Encoding: 96 96 64
OldEncoding: 96
Width: 180
Flags: HW
HStem: 248 21<127 146 146 146> 312 20<47.5 56.5>
Fore
146 248 m 1
 127 248 l 1
 51 296 l 2
 43 301 38 308 37 317 c 0
 37 327 42 332 53 332 c 0
 60 332 67 328 74 321 c 2
 146 248 l 1
EndSplineSet
Back
145.996 248.047 m 1
 126.953 248.047 l 1
 50.7812 295.898 l 2
 42.9688 300.781 38.5742 307.617 37.1094 316.895 c 0
 37.1094 327.148 42.4805 332.031 53.2227 332.031 c 0
 59.5703 332.031 66.8945 328.125 74.2188 320.801 c 2
 145.996 248.047 l 1
EndSplineSet
EndChar
StartChar: a
Encoding: 97 97 65
OldEncoding: 97
Width: 340
Flags: HMW
HStem: -5 43 327 20<147.5 205>
VStem: 26 66 215 61<93 93 93 203 221 226 226 267 221 221>
Fore
330 31 m 1
 310 7 288 -5 264 -5 c 0
 232 -5 216 13 216 48 c 1
 174 13 137 -5 106 -5 c 0
 59 -5 26 24 26 71 c 0
 26 106 42 135 75 157 c 0
 91 168 136 189 215 221 c 1
 215 267 l 2
 215 308 196 329 157 329 c 0
 124 329 105 317 102 292 c 1
 102 290 l 2
 102 282 107 267 107 263 c 0
 107 256 104 248 98 240 c 1
 89 233 80 230 72 230 c 0
 53 230 40 242 40 263 c 0
 40 289 54 310 83 327 c 0
 106 340 132 347 163 347 c 0
 247 347 276 310 276 226 c 2
 276 79 l 2
 276 52 283 38 298 37 c 0
 309 37 320 42 330 51 c 1
 330 31 l 1
215 93 m 1
 215 203 l 1
 133 176 92 141 92 98 c 0
 92 82 97 67 107 54 c 0
 114 43 126 38 143 38 c 0
 171 38 193 47 209 66 c 0
 212 71 212 81 215 93 c 1
EndSplineSet
MinimumDistance: x10,-1 
Back
330.078 30.7617 m 1
 310.059 6.83594 288.086 -4.88281 264.16 -4.88281 c 0
 231.934 -4.88281 215.82 12.6953 215.82 47.8516 c 1
 173.828 12.6953 137.207 -4.88281 105.957 -4.88281 c 0
 82.5195 -4.88281 63.4766 1.95312 48.3398 15.625 c 0
 33.6914 29.2969 25.8789 47.8516 25.8789 70.8008 c 0
 25.8789 106.445 42.4805 134.766 75.1953 157.227 c 0
 83.0078 162.109 98.6328 170.41 121.582 181.152 c 0
 144.531 191.895 175.781 205.078 214.844 221.191 c 1
 214.844 267.09 l 2
 214.844 308.105 195.801 329.102 157.227 329.102 c 0
 123.535 329.102 105.469 316.895 102.051 291.992 c 1
 102.051 290.039 l 2
 102.051 286.133 103.027 280.762 104.492 274.902 c 0
 105.957 269.043 106.934 265.137 106.934 263.184 c 0
 106.934 255.859 104.004 248.047 98.1445 240.234 c 1
 88.8672 233.398 80.0781 229.98 71.7773 229.98 c 0
 62.5 229.98 55.1758 232.91 48.8281 238.281 c 0
 42.9688 244.141 40.0391 252.441 40.0391 263.184 c 0
 40.0391 289.062 54.1992 310.547 83.0078 327.148 c 0
 105.469 340.332 132.324 347.168 163.086 347.168 c 0
 205.078 347.168 234.375 337.402 250.977 317.871 c 0
 267.578 298.828 275.879 268.066 275.879 226.074 c 2
 275.879 79.1016 l 2
 275.879 51.7578 283.203 37.5977 297.852 37.1094 c 0
 309.57 37.1094 319.824 41.5039 330.078 50.7812 c 1
 330.078 30.7617 l 1
214.844 92.7734 m 1
 214.844 203.125 l 1
 132.812 176.27 91.7969 141.113 91.7969 98.1445 c 0
 91.7969 82.0312 97.168 67.3828 106.934 54.1992 c 0
 114.258 43.457 126.465 38.0859 143.066 38.0859 c 0
 170.898 38.0859 192.871 47.3633 208.984 65.918 c 0
 210.449 68.8477 211.426 72.2656 211.914 77.1484 c 0
 212.891 81.543 213.867 86.9141 214.844 92.7734 c 1
EndSplineSet
EndChar
StartChar: b
Encoding: 98 98 66
OldEncoding: 98
Width: 392
Flags: HW
HStem: -5 22<186.5 213> 301 46<210.5 218.5> 496 20<125 125>
VStem: 64 64<54 242 242 250.5 286 433> 297 68<158.5 172.5>
Fore
365 180 m 0
 365 137 351 98 324 61 c 0
 291 17 244 -5 182 -5 c 0
 158 -5 134 -1 110 7 c 0
 79 17 64 29 64 42 c 2
 64 433 l 2
 64 450 63 459 61 462 c 0
 56 469 48 472 35 472 c 2
 31 472 l 1
 14 471 l 1
 14 483 l 1
 38 490 74 500 125 516 c 1
 128 515 l 1
 128 286 l 1
 136 322 191 347 230 347 c 0
 274 347 308 329 333 294 c 1
 354 261 365 223 365 180 c 0
297 153 m 0
 297 192 292 223 279 250 c 0
 261 284 235 301 202 301 c 0
 184 301 168 296 154 286 c 0
 137 274 128 259 128 242 c 2
 128 54 l 2
 128 30 174 17 199 17 c 0
 264 17 297 62 297 153 c 0
EndSplineSet
MinimumDistance: x5,-1 
Back
365.234 180.176 m 0
 365.234 137.207 351.562 97.6562 324.219 61.0352 c 0
 291.504 17.0898 244.141 -4.88281 182.129 -4.88281 c 0
 158.203 -4.88281 133.789 -0.976562 109.863 6.83594 c 0
 79.1016 17.0898 63.9648 28.8086 63.9648 41.9922 c 2
 63.9648 433.105 l 2
 63.9648 449.707 62.9883 459.473 61.0352 461.914 c 0
 56.1523 468.75 47.8516 472.168 35.1562 472.168 c 2
 30.7617 472.168 l 1
 14.1602 471.191 l 1
 14.1602 482.91 l 1
 25.8789 486.328 41.0156 490.723 59.5703 496.094 c 0
 77.6367 501.465 99.6094 507.812 125 516.113 c 1
 127.93 515.137 l 1
 127.93 286.133 l 1
 129.883 295.41 134.766 303.711 142.09 311.035 c 0
 149.414 318.359 157.715 324.707 167.48 330.078 c 0
 177.246 335.449 187.5 339.355 198.73 342.285 c 0
 209.473 345.703 220.215 347.168 229.98 347.168 c 0
 273.926 347.168 308.105 329.102 333.008 293.945 c 0
 354.492 261.23 365.234 223.145 365.234 180.176 c 0
296.875 152.832 m 0
 296.875 172.363 295.898 189.941 292.969 206.055 c 0
 290.527 222.168 285.645 236.816 278.809 250 c 0
 261.23 284.18 235.352 300.781 202.148 300.781 c 0
 184.082 300.781 167.969 295.898 153.809 286.133 c 0
 136.719 273.926 127.93 259.277 127.93 242.188 c 2
 127.93 54.1992 l 2
 127.93 47.8516 130.371 42.4805 135.742 38.0859 c 0
 140.625 33.2031 146.484 29.2969 153.809 26.3672 c 0
 161.133 23.4375 168.945 20.9961 177.734 19.5312 c 0
 186.035 18.0664 192.871 17.0898 199.219 17.0898 c 0
 264.16 17.0898 296.875 62.5 296.875 152.832 c 0
EndSplineSet
EndChar
StartChar: c
Encoding: 99 99 67
OldEncoding: 99
Width: 337
Flags: HW
HStem: -5 52<183.5 200.5> 238 109 326 21<171.5 199.5>
VStem: 28 58<172 187.5>
Fore
319 112 m 1
 282 34 232 -5 169 -5 c 0
 125 -5 90 12 64 46 c 0
 40 77 28 116 28 162 c 0
 28 213 43 257 74 292 c 0
 105 329 146 347 197 347 c 0
 225 347 249 341 270 329 c 0
 296 315 309 295 309 270 c 0
 309 249 297 238 274 238 c 0
 256 238 244 250 237 273 c 1
 233 289 l 1
 222 320 215 326 184 326 c 0
 152 326 127 311 109 281 c 0
 94 254 86 224 86 192 c 0
 86 152 96 119 115 93 c 0
 137 62 166 47 201 47 c 0
 228 47 247 54 266 69 c 0
 279 80 294 94 309 118 c 1
 319 112 l 1
EndSplineSet
MinimumDistance: x11,-1 
Back
318.848 111.816 m 1
 282.227 34.1797 232.422 -4.88281 168.945 -4.88281 c 0
 125 -4.88281 89.8438 12.207 63.9648 45.8984 c 0
 40.0391 77.1484 27.832 116.211 27.832 162.109 c 0
 27.832 213.379 43.457 256.836 74.2188 291.992 c 0
 105.469 328.613 146.484 347.168 196.777 347.168 c 0
 225.098 347.168 249.512 340.82 270.02 329.102 c 0
 295.898 314.941 309.082 295.41 309.082 270.02 c 0
 309.082 248.535 297.363 237.793 273.926 237.793 c 0
 255.859 237.793 243.652 249.512 236.816 272.949 c 1
 232.91 289.062 l 1
 227.539 304.199 222.168 314.453 215.82 318.848 c 0
 209.961 323.73 199.219 326.172 184.082 326.172 c 0
 151.855 326.172 126.953 311.035 108.887 280.762 c 0
 93.75 253.906 85.9375 224.121 85.9375 191.895 c 0
 85.9375 151.855 95.7031 119.141 115.234 92.7734 c 0
 137.207 62.5 165.527 46.875 201.172 46.875 c 0
 214.355 46.875 226.074 48.8281 236.328 52.7344 c 0
 247.07 56.1523 256.836 61.5234 266.113 68.8477 c 0
 272.461 74.2188 279.785 81.0547 287.109 88.3789 c 0
 294.434 96.1914 301.758 105.957 309.082 118.164 c 1
 318.848 111.816 l 1
EndSplineSet
EndChar
StartChar: d
Encoding: 100 100 68
OldEncoding: 100
Width: 380
Flags: HW
HStem: -5 37<180.5 188.5> 327 20<170.5 197> 496 20<325 325>
VStem: 30 63<167.5 187.5> 263 67
Fore
380 32 m 1
 270 -5 l 1
 266 -3 l 1
 266 41 l 1
 243 10 210 -5 167 -5 c 0
 136 -5 109 3 86 20 c 0
 49 47 30 95 30 162 c 0
 30 213 44 253 71 289 c 0
 101 328 139 347 186 347 c 0
 215 347 241 337 266 316 c 1
 266 433 l 2
 266 448 266 456 263 461 c 0
 259 468 249 471 238 471 c 2
 234 471 l 1
 216 470 l 1
 216 483 l 1
 261 494 l 1
 325 516 l 1
 330 515 l 1
 330 86 l 2
 330 51 335 43 367 43 c 2
 380 44 l 1
 380 32 l 1
266 77 m 1
 266 252 l 1
 264 276 255 295 240 309 c 0
 225 322 207 327 187 327 c 0
 154 327 129 311 113 280 c 0
 100 255 93 224 93 189 c 0
 93 146 100 112 115 85 c 0
 134 50 162 32 199 32 c 0
 236 32 258 47 266 77 c 1
EndSplineSet
MinimumDistance: x7,-1 
Back
379.883 32.2266 m 1
 270.02 -4.88281 l 1
 266.113 -2.92969 l 1
 266.113 41.0156 l 1
 243.164 10.2539 210.449 -4.88281 166.992 -4.88281 c 0
 136.23 -4.88281 109.375 3.41797 85.9375 20.0195 c 0
 48.8281 47.3633 29.7852 94.7266 29.7852 162.109 c 0
 29.7852 187.5 33.6914 210.449 40.5273 230.957 c 0
 47.3633 251.465 57.6172 270.996 70.8008 289.062 c 0
 101.074 327.637 139.16 347.168 186.035 347.168 c 0
 214.844 347.168 241.211 336.426 266.113 315.918 c 1
 266.113 433.105 l 2
 266.113 440.43 265.625 446.289 265.625 450.684 c 0
 265.137 454.59 264.16 458.496 263.184 460.938 c 0
 261.23 464.355 257.812 466.797 252.93 468.262 c 0
 248.535 470.215 243.164 471.191 237.793 471.191 c 2
 233.887 471.191 l 1
 215.82 470.215 l 1
 215.82 482.91 l 1
 261.23 494.141 l 1
 325.195 516.113 l 1
 330.078 515.137 l 1
 330.078 85.9375 l 2
 330.078 68.8477 332.031 57.1289 336.426 51.2695 c 0
 340.82 45.8984 351.074 42.9688 367.188 42.9688 c 2
 379.883 43.9453 l 1
 379.883 32.2266 l 1
266.113 77.1484 m 1
 266.113 251.953 l 1
 264.16 275.879 255.371 294.922 240.234 309.082 c 0
 232.91 315.43 224.609 320.312 215.332 323.242 c 0
 206.543 325.684 196.777 327.148 187.012 327.148 c 0
 153.809 327.148 128.906 311.523 112.793 279.785 c 0
 99.6094 254.883 92.7734 224.121 92.7734 188.965 c 0
 92.7734 167.48 94.7266 148.438 98.6328 130.859 c 0
 102.051 113.77 107.91 98.1445 115.234 84.9609 c 0
 134.277 49.8047 162.109 32.2266 199.219 32.2266 c 0
 235.84 32.2266 257.812 46.875 266.113 77.1484 c 1
EndSplineSet
EndChar
StartChar: e
Encoding: 101 101 69
OldEncoding: 101
Width: 338
Flags: HW
HStem: -5 50<160.5 191.5> 209 25<82 238> 321 26<157.5 187>
VStem: 28 52<154.5 187.5>
Fore
329 119 m 1
 322 95 309 70 288 47 c 0
 254 12 214 -5 169 -5 c 0
 90 -5 41 44 30 124 c 0
 29 135 28 147 28 162 c 0
 28 213 41 256 66 289 c 0
 95 328 133 347 182 347 c 0
 266 347 314 294 314 209 c 1
 80 209 l 1
 80 100 120 45 201 45 c 0
 244 45 283 72 318 125 c 1
 329 119 l 1
238 234 m 1
 232 292 208 321 166 321 c 0
 122 321 94 292 82 234 c 1
 238 234 l 1
EndSplineSet
MinimumDistance: x5,-1 
Back
329.102 119.141 m 1
 325.684 106.934 320.801 94.7266 313.965 82.5195 c 0
 307.129 70.3125 298.828 58.1055 288.086 46.875 c 0
 253.906 12.207 214.355 -4.88281 168.945 -4.88281 c 0
 129.883 -4.88281 98.1445 6.34766 74.2188 29.2969 c 0
 49.8047 52.7344 35.1562 83.9844 29.7852 124.023 c 0
 29.2969 129.395 28.8086 135.254 28.3203 141.602 c 0
 28.3203 147.949 27.832 154.785 27.832 162.109 c 0
 27.832 213.379 40.5273 255.859 65.918 289.062 c 0
 94.7266 327.637 133.301 347.168 182.129 347.168 c 0
 224.121 347.168 256.348 334.473 279.297 310.059 c 0
 302.734 285.156 313.965 251.465 313.965 208.984 c 1
 80.0781 208.984 l 1
 80.0781 99.6094 120.117 44.9219 201.172 44.9219 c 0
 243.652 44.9219 282.715 71.7773 317.871 125 c 1
 329.102 119.141 l 1
237.793 233.887 m 1
 231.934 291.992 208.008 320.801 166.016 320.801 c 0
 122.07 320.801 94.2383 291.992 82.0312 233.887 c 1
 237.793 233.887 l 1
EndSplineSet
EndChar
StartChar: f
Encoding: 102 102 70
OldEncoding: 102
Width: 250
Flags: HW
HStem: 0 21<25 221 221 221> 317 23<26 88 151 243> 495 22<180.5 201.5>
VStem: 88 62<340 399> 88 63<78 317>
Fore
300 470 m 0
 300 449 289 439 266 439 c 0
 258 439 246 448 231 467 c 1
 218 486 207 495 196 495 c 0
 165 495 150 472 150 427 c 2
 150 340 l 1
 243 340 l 1
 243 317 l 1
 151 317 l 1
 151 78 l 2
 151 53 154 37 160 28 c 0
 168 17 188 11 221 11 c 1
 221 0 l 1
 25 0 l 1
 25 11 l 1
 30 12 36 12 42 12 c 0
 57 12 72 18 77 23 c 0
 84 32 88 51 88 78 c 2
 88 317 l 1
 26 317 l 1
 26 340 l 1
 88 340 l 1
 88 458 133 517 223 517 c 0
 241 517 257 514 271 507 c 0
 290 498 300 485 300 470 c 0
EndSplineSet
MinimumDistance: x4,-1 x18,20 x18,19 x6,4 x6,5 
Back
299.805 470.215 m 0
 299.805 449.219 288.574 438.965 266.113 438.965 c 0
 257.812 438.965 246.094 448.242 230.957 466.797 c 1
 218.262 485.84 206.543 495.117 195.801 495.117 c 0
 165.527 495.117 149.902 472.168 149.902 426.758 c 2
 149.902 339.844 l 1
 243.164 339.844 l 1
 243.164 316.895 l 1
 150.879 316.895 l 1
 150.879 78.125 l 2
 150.879 53.2227 153.809 36.6211 160.156 27.832 c 0
 167.969 16.6016 188.477 11.2305 221.191 11.2305 c 1
 221.191 0 l 1
 24.9023 0 l 1
 24.9023 11.2305 l 1
 30.2734 11.7188 36.1328 12.207 41.9922 12.207 c 0
 48.8281 12.207 53.7109 12.6953 57.1289 14.1602 c 0
 60.5469 15.1367 63.9648 16.6016 68.3594 18.5547 c 0
 72.7539 20.0195 75.6836 21.4844 77.1484 22.9492 c 0
 84.4727 32.2266 87.8906 50.7812 87.8906 78.125 c 2
 87.8906 316.895 l 1
 25.8789 316.895 l 1
 25.8789 339.844 l 1
 87.8906 339.844 l 1
 87.8906 458.008 132.812 517.09 223.145 517.09 c 0
 241.211 517.09 256.836 513.672 270.996 506.836 c 0
 290.527 497.559 299.805 485.352 299.805 470.215 c 0
EndSplineSet
EndChar
StartChar: g
Encoding: 103 103 71
OldEncoding: 103
Width: 359
Flags: HW
HStem: -140 21<123.5 181> -99 109 10 131 57 67 62 62 141 186<159.5 177.5> 327 20<146 177.5>
VStem: 21 50<-65 -58.5> 50 60<221.5 263> 237 56<197 221.5>
Fore
339 296 m 1
 279 296 l 1
 288 273 293 251 293 229 c 0
 293 165 246 123 179 123 c 0
 166 123 153 123 140 126 c 2
 137 126 l 2
 131 126 123 121 112 110 c 0
 101 97 95 87 95 82 c 0
 95 71 114 64 153 62 c 2
 245 57 l 2
 296 54 333 26 333 -18 c 0
 333 -97 215 -140 147 -140 c 0
 100 -140 21 -123 21 -70 c 0
 21 -47 44 -18 91 16 c 1
 65 30 52 43 52 54 c 0
 52 70 73 96 116 133 c 1
 72 153 50 184 50 227 c 0
 50 299 102 347 174 347 c 0
 193 347 216 342 244 331 c 0
 257 326 273 324 284 324 c 2
 339 324 l 1
 339 296 l 1
237 211 m 0
 237 232 233 254 224 276 c 0
 211 310 191 327 164 327 c 0
 128 327 110 305 110 262 c 0
 110 181 135 141 184 141 c 0
 219 141 237 164 237 211 c 0
313 -29 m 0
 313 -12 299 0 278 4 c 0
 273 5 255 5 224 8 c 0
 136 13 121 12 106 15 c 1
 83 -12 71 -33 71 -48 c 0
 71 -82 107 -99 180 -99 c 0
 207 -99 233 -94 261 -83 c 0
 296 -70 313 -52 313 -29 c 0
EndSplineSet
MinimumDistance: x0,-1 
Back
338.867 295.898 m 1
 278.809 295.898 l 1
 288.574 273.438 292.969 250.977 292.969 229.004 c 0
 292.969 196.777 282.227 171.387 261.23 151.855 c 0
 239.746 132.812 212.402 123.047 179.199 123.047 c 0
 172.363 123.047 166.016 123.047 159.668 123.535 c 0
 153.32 124.023 146.484 124.512 140.137 125.977 c 2
 137.207 125.977 l 2
 130.859 125.977 122.559 120.605 111.816 109.863 c 0
 100.586 96.6797 95.2148 87.4023 95.2148 82.0312 c 0
 95.2148 70.8008 114.258 63.9648 152.832 62.0117 c 2
 245.117 57.1289 l 2
 270.508 55.6641 291.504 48.3398 308.105 35.1562 c 0
 324.707 21.4844 333.008 3.90625 333.008 -18.0664 c 0
 333.008 -38.0859 326.66 -55.6641 313.477 -70.3125 c 0
 300.293 -85.4492 284.668 -98.1445 265.625 -108.398 c 0
 246.582 -118.652 226.562 -126.465 205.078 -131.836 c 0
 183.594 -137.207 164.551 -140.137 146.973 -140.137 c 0
 134.766 -140.137 122.07 -138.672 107.422 -136.719 c 0
 93.2617 -134.277 79.5898 -130.371 66.4062 -125 c 0
 53.7109 -119.629 42.4805 -112.305 34.1797 -103.516 c 0
 25.3906 -94.7266 20.9961 -83.4961 20.9961 -69.8242 c 0
 20.9961 -46.875 44.4336 -18.0664 90.8203 16.1133 c 1
 64.9414 29.7852 51.7578 42.4805 51.7578 54.1992 c 0
 51.7578 69.8242 73.2422 96.1914 116.211 132.812 c 1
 71.7773 152.832 49.8047 184.57 49.8047 227.051 c 0
 49.8047 263.184 61.5234 291.992 84.9609 313.965 c 0
 108.398 335.938 138.184 347.168 173.828 347.168 c 0
 183.105 347.168 193.848 345.703 205.566 342.773 c 0
 217.285 340.332 229.98 336.426 244.141 331.055 c 0
 250.488 328.125 257.812 326.66 265.137 325.684 c 0
 272.461 324.707 278.809 324.219 284.18 324.219 c 2
 338.867 324.219 l 1
 338.867 295.898 l 1
236.816 210.938 m 0
 236.816 232.422 232.91 253.906 224.121 275.879 c 0
 211.426 310.059 191.406 327.148 164.062 327.148 c 0
 127.93 327.148 109.863 305.176 109.863 262.207 c 0
 109.863 181.152 134.766 141.113 184.082 141.113 c 0
 219.238 141.113 236.816 164.551 236.816 210.938 c 0
312.988 -28.8086 m 0
 312.988 -20.5078 310.059 -13.1836 303.711 -7.32422 c 0
 297.363 -1.95312 288.574 1.95312 277.832 3.90625 c 0
 275.391 4.88281 269.531 5.37109 260.742 5.37109 c 0
 251.465 5.85938 239.258 6.83594 224.121 7.8125 c 0
 202.148 9.27734 184.082 10.2539 170.41 11.2305 c 0
 156.738 11.7188 145.996 12.207 137.695 12.6953 c 0
 129.395 12.6953 123.047 13.1836 118.652 13.6719 c 0
 114.258 13.6719 109.863 14.1602 105.957 15.1367 c 1
 82.5195 -12.207 70.8008 -33.2031 70.8008 -47.8516 c 0
 70.8008 -82.0312 107.422 -99.1211 180.176 -99.1211 c 0
 193.359 -99.1211 206.543 -97.6562 220.215 -95.2148 c 0
 233.398 -92.2852 247.07 -88.3789 261.23 -83.0078 c 0
 295.898 -69.8242 312.988 -51.7578 312.988 -28.8086 c 0
EndSplineSet
EndChar
StartChar: h
Encoding: 104 104 72
OldEncoding: 104
Width: 381
Flags: HW
HStem: 0 21<18 180 180 180 219 378 378 378> 307 40<217.5 231.5> 496 20<126 126>
VStem: 66 63<77 259 286 460> 270 64<77 227>
Fore
378 0 m 1
 219 0 l 1
 219 10 l 1
 237 12 250 16 258 23 c 0
 269 31 270 50 270 77 c 2
 270 227 l 2
 270 280 251 307 212 307 c 0
 187 307 159 291 129 259 c 1
 129 77 l 2
 129 50 132 32 141 23 c 0
 145 19 158 15 180 10 c 1
 180 0 l 1
 18 0 l 1
 18 10 l 1
 41 13 54 21 59 30 c 0
 64 37 66 53 66 77 c 2
 66 460 l 1
 59 467 49 470 38 470 c 2
 19 469 l 1
 19 482 l 1
 126 516 l 1
 129 514 l 1
 129 286 l 1
 158 327 195 347 240 347 c 0
 303 347 334 307 334 228 c 2
 334 77 l 2
 334 53 336 38 339 31 c 1
 346 23 359 17 378 10 c 1
 378 0 l 1
EndSplineSet
MinimumDistance: x23,-1 
Back
377.93 0 m 1
 219.238 0 l 1
 219.238 9.76562 l 1
 236.816 12.207 250 16.1133 257.812 22.9492 c 0
 263.184 26.8555 266.602 33.6914 268.066 42.9688 c 0
 269.531 52.2461 270.02 63.4766 270.02 77.1484 c 2
 270.02 227.051 l 2
 270.02 280.273 250.488 307.129 211.914 307.129 c 0
 186.523 307.129 159.18 291.016 128.906 258.789 c 1
 128.906 77.1484 l 2
 128.906 63.4766 129.883 52.7344 131.348 43.457 c 0
 133.301 34.668 136.23 27.832 141.113 22.9492 c 0
 145.02 19.043 158.203 14.6484 180.176 9.76562 c 1
 180.176 0 l 1
 18.0664 0 l 1
 18.0664 9.76562 l 1
 29.2969 11.2305 38.5742 13.6719 44.9219 17.5781 c 0
 51.7578 20.9961 56.1523 25.3906 59.082 29.7852 c 0
 63.4766 37.1094 65.918 53.2227 65.918 77.1484 c 2
 65.918 459.961 l 1
 62.5 463.379 58.5938 465.82 53.7109 467.285 c 0
 48.3398 469.238 43.457 470.215 38.0859 470.215 c 2
 19.043 469.238 l 1
 19.043 481.934 l 1
 125.977 516.113 l 1
 128.906 514.16 l 1
 128.906 286.133 l 1
 158.203 326.66 195.312 347.168 240.234 347.168 c 0
 302.734 347.168 333.984 307.129 333.984 228.027 c 2
 333.984 77.1484 l 2
 333.984 53.2227 335.449 37.5977 338.867 30.7617 c 0
 342.285 26.8555 347.168 23.4375 354.004 20.0195 c 0
 360.84 16.6016 368.652 13.1836 377.93 9.76562 c 1
 377.93 0 l 1
EndSplineSet
EndChar
StartChar: i
Encoding: 105 105 73
OldEncoding: 105
Width: 197
Flags: HW
HStem: 0 21<16 196 16 16> 498 20<91.5 114.5>
VStem: 75 64<76 253 253 268.5>
Fore
196 0 m 1
 16 0 l 1
 16 10 l 1
 67 10 75 24 75 76 c 2
 75 253 l 2
 75 284 66 299 49 299 c 1
 19 295 l 1
 19 306 l 1
 136 348 l 1
 139 347 l 1
 139 76 l 2
 139 53 142 36 149 25 c 0
 153 19 169 14 196 10 c 1
 196 0 l 1
64 479 m 0
 64 502 80 518 103 518 c 0
 126 518 142 502 142 479 c 0
 142 456 126 440 103 440 c 0
 80 440 64 456 64 479 c 0
EndSplineSet
MinimumDistance: x0,-1 
Back
195.801 0 m 1
 195.801 9.76562 l 1
 168.457 14.1602 152.832 19.043 148.926 24.9023 c 0
 142.09 36.1328 139.16 53.2227 139.16 76.1719 c 2
 139.16 347.168 l 1
 136.23 348.145 l 1
 19.043 306.152 l 1
 19.043 294.922 l 1
 48.8281 298.828 l 1
 66.4062 298.828 75.1953 283.691 75.1953 252.93 c 2
 75.1953 76.1719 l 2
 75.1953 63.4766 74.2188 52.7344 73.2422 43.9453 c 0
 71.7773 35.1562 68.8477 28.3203 64.4531 23.4375 c 0
 60.0586 18.5547 54.1992 15.1367 46.3867 13.1836 c 0
 39.0625 11.2305 28.8086 9.76562 16.1133 9.76562 c 1
 16.1133 0 l 1
 195.801 0 l 1
63.9648 479.004 m 0
 63.9648 467.773 67.8711 458.496 75.1953 451.172 c 0
 82.5195 443.848 91.7969 439.941 103.027 439.941 c 0
 114.258 439.941 123.535 443.848 130.859 451.172 c 0
 138.184 458.496 142.09 467.773 142.09 479.004 c 0
 142.09 490.234 138.184 499.512 130.859 506.836 c 0
 123.535 514.16 114.258 518.066 103.027 518.066 c 0
 91.7969 518.066 82.5195 514.16 75.1953 506.836 c 0
 67.8711 499.512 63.9648 490.234 63.9648 479.004 c 0
EndSplineSet
EndChar
StartChar: j
Encoding: 106 106 74
OldEncoding: 106
Width: 189
Flags: HW
HStem: -163 21<-6.5 58.5> 0 21<82 83 83 83> 498 20<99.5 122.5>
VStem: -52 199 82 65<-32 -7 -7 0 0 0> 83 64<0 253 253 268.5>
Fore
147 347 m 1
 147 -7 l 2
 147 -111 101 -163 16 -163 c 0
 -29 -163 -52 -149 -52 -120 c 0
 -52 -112 -49 -105 -43 -99 c 1
 -33 -94 -27 -92 -24 -92 c 0
 -14 -92 -2 -99 12 -114 c 1
 28 -129 39 -137 44 -138 c 0
 59 -138 71 -128 78 -108 c 0
 81 -100 82 -75 82 -32 c 2
 82 0 l 1
 83 0 l 1
 83 253 l 2
 83 284 74 299 57 299 c 1
 27 295 l 1
 27 306 l 1
 144 348 l 1
 147 347 l 1
72 479 m 0
 72 502 88 518 111 518 c 0
 134 518 150 502 150 479 c 0
 150 456 134 440 111 440 c 0
 88 440 72 456 72 479 c 0
EndSplineSet
MinimumDistance: x8,-1 
Back
146.973 347.168 m 1
 144.043 348.145 l 1
 26.8555 306.152 l 1
 26.8555 294.922 l 1
 57.1289 298.828 l 1
 74.2188 298.828 83.0078 283.691 83.0078 252.93 c 2
 83.0078 0 l 1
 82.0312 0 l 1
 82.0312 -32.2266 l 2
 82.0312 -74.707 80.5664 -100.098 78.125 -107.91 c 0
 70.8008 -127.93 59.5703 -138.184 43.9453 -138.184 c 0
 38.5742 -137.207 27.832 -129.395 12.207 -113.77 c 0
 -1.95312 -99.1211 -14.1602 -91.7969 -23.9258 -91.7969 c 0
 -26.8555 -91.7969 -33.2031 -94.2383 -42.9688 -99.1211 c 1
 -48.8281 -104.98 -51.7578 -111.816 -51.7578 -120.117 c 0
 -51.7578 -148.438 -29.2969 -163.086 16.1133 -163.086 c 0
 58.5938 -163.086 91.3086 -149.902 113.281 -124.023 c 0
 135.742 -98.1445 146.973 -59.082 146.973 -6.83594 c 2
 146.973 347.168 l 1
71.7773 479.004 m 0
 71.7773 467.773 75.6836 458.496 83.0078 451.172 c 0
 90.332 443.848 99.6094 439.941 110.84 439.941 c 0
 122.559 439.941 131.836 443.848 139.16 451.172 c 0
 146.484 458.496 149.902 467.773 149.902 479.004 c 0
 149.902 490.234 146.484 499.512 139.16 506.836 c 0
 131.836 514.16 122.559 518.066 110.84 518.066 c 0
 99.6094 518.066 90.332 514.16 83.0078 506.836 c 0
 75.6836 499.512 71.7773 490.234 71.7773 479.004 c 0
EndSplineSet
EndChar
StartChar: k
Encoding: 107 107 75
OldEncoding: 107
Width: 386
Flags: HW
HStem: 0 21<17 193 193 193 229 392 392 392> 320 20<219 372 219 219> 494 20<133 133>
VStem: 72 65<51.5 62 62 187 198 426>
Fore
392 0 m 1
 229 0 l 1
 229 12 l 1
 241 12 l 2
 252 12 259 15 260 23 c 1
 137 187 l 1
 137 50 l 2
 137 25 151 13 178 13 c 2
 193 12 l 1
 193 0 l 1
 17 0 l 1
 17 12 l 1
 42 15 55 18 58 21 c 0
 66 30 72 41 72 62 c 2
 72 426 l 2
 72 443 71 454 68 459 c 0
 64 466 57 471 42 471 c 2
 38 471 l 1
 17 469 l 1
 17 480 l 1
 133 514 l 1
 137 513 l 1
 137 198 l 1
 239 289 l 2
 252 300 258 308 258 315 c 0
 258 324 245 328 219 328 c 1
 219 340 l 1
 372 340 l 1
 372 327 l 1
 348 327 331 322 316 315 c 1
 305 308 282 294 257 273 c 2
 187 212 l 1
 304 66 l 2
 331 33 360 13 392 12 c 1
 392 0 l 1
EndSplineSet
MinimumDistance: x29,-1 
Back
392.09 0 m 1
 229.004 0 l 1
 229.004 12.207 l 1
 241.211 12.207 l 2
 246.094 12.207 250.488 12.6953 253.906 14.6484 c 0
 257.324 16.1133 259.277 19.043 259.766 22.9492 c 1
 137.207 187.012 l 1
 137.207 49.8047 l 2
 137.207 25.3906 150.879 13.1836 178.223 13.1836 c 2
 192.871 12.207 l 1
 192.871 0 l 1
 17.0898 0 l 1
 17.0898 12.207 l 1
 41.5039 15.1367 55.1758 18.5547 58.1055 20.9961 c 0
 62.0117 25.8789 65.4297 30.7617 67.8711 37.1094 c 0
 70.8008 42.9688 71.7773 51.2695 71.7773 62.0117 c 2
 71.7773 425.781 l 2
 71.7773 442.871 70.8008 453.613 67.8711 458.984 c 0
 65.918 462.402 62.9883 465.332 59.082 467.285 c 0
 55.1758 469.727 49.3164 471.191 41.9922 471.191 c 2
 38.0859 471.191 l 1
 17.0898 469.238 l 1
 17.0898 479.98 l 1
 132.812 514.16 l 1
 137.207 513.184 l 1
 137.207 198.242 l 1
 238.77 289.062 l 2
 251.465 299.805 257.812 308.105 257.812 314.941 c 0
 257.812 323.73 245.117 328.125 219.238 328.125 c 1
 219.238 339.844 l 1
 372.07 339.844 l 1
 372.07 327.148 l 1
 359.863 327.148 349.609 325.684 340.332 323.73 c 0
 331.543 321.289 323.242 318.359 315.918 314.941 c 0
 310.547 311.523 302.734 306.641 291.992 299.316 c 0
 281.25 292.48 269.531 283.691 256.836 272.949 c 2
 187.012 211.914 l 1
 304.199 65.918 l 2
 317.383 49.3164 331.543 36.1328 346.191 26.8555 c 0
 360.84 17.5781 375.977 12.6953 392.09 12.207 c 1
 392.09 0 l 1
EndSplineSet
EndChar
StartChar: l
Encoding: 108 108 76
OldEncoding: 108
Width: 198
Flags: HW
HStem: 0 21<16 194 194 194> 497 20<137 137>
VStem: 74 63<64 66 66 426>
Fore
194 0 m 1
 16 0 l 1
 16 10 l 1
 59 15 74 26 74 66 c 2
 74 426 l 2
 74 443 73 455 70 460 c 0
 64 468 55 472 44 472 c 2
 14 470 l 1
 14 483 l 1
 31 487 58 493 66 496 c 2
 137 517 l 1
 137 64 l 2
 137 28 156 10 194 10 c 1
 194 0 l 1
EndSplineSet
MinimumDistance: x0,-1 x11,0 x11,12 
Back
193.848 0 m 1
 16.1133 0 l 1
 16.1133 9.76562 l 1
 37.1094 12.6953 52.2461 17.5781 61.0352 24.9023 c 0
 69.8242 32.2266 74.2188 45.8984 74.2188 65.918 c 2
 74.2188 425.781 l 2
 74.2188 443.359 72.7539 454.59 69.8242 459.961 c 0
 63.9648 467.773 55.1758 472.168 43.9453 472.168 c 2
 14.1602 470.215 l 1
 14.1602 482.91 l 1
 22.4609 484.863 32.7148 487.305 43.457 490.234 c 0
 54.6875 492.676 62.0117 494.629 65.918 496.094 c 2
 137.207 517.09 l 1
 137.207 63.9648 l 2
 137.207 27.832 155.762 9.76562 193.848 9.76562 c 1
 193.848 0 l 1
EndSplineSet
EndChar
StartChar: m
Encoding: 109 109 77
OldEncoding: 109
Width: 598
Flags: HW
HStem: 0 21<22 190 190 190 226 395 395 395 430 595 595 595> 309 38<433 436.5>
VStem: 75 64<51 64 64 263> 278 64<70 229> 480 63<66 212 212 225 66 66>
Fore
595 0 m 1
 430 0 l 1
 430 10 l 1
 445 13 454 15 461 16 c 0
 470 19 476 27 478 39 c 1
 480 66 l 1
 480 225 l 2
 480 253 477 272 472 282 c 0
 464 300 448 309 425 309 c 0
 389 309 361 293 342 262 c 1
 342 70 l 2
 342 30 360 10 395 10 c 1
 395 0 l 1
 226 0 l 1
 226 10 l 1
 269 15 278 23 278 65 c 2
 278 229 l 2
 278 282 260 309 225 309 c 0
 202 309 182 302 163 287 c 0
 148 276 140 270 139 263 c 1
 139 51 l 2
 139 24 156 10 190 10 c 1
 190 0 l 1
 22 0 l 1
 22 10 l 1
 57 10 75 28 75 64 c 2
 75 268 l 2
 75 280 72 290 66 298 c 0
 64 301 58 303 49 303 c 0
 38 303 31 302 24 301 c 1
 24 313 l 1
 37 316 54 322 65 325 c 2
 130 347 l 1
 135 347 l 1
 135 289 l 1
 190 326 212 337 219 340 c 0
 231 345 242 347 252 347 c 0
 293 347 320 326 333 285 c 1
 370 326 411 347 455 347 c 0
 514 347 543 302 543 212 c 2
 543 57 l 2
 543 30 554 15 576 13 c 2
 595 10 l 1
 595 0 l 1
EndSplineSet
MinimumDistance: x39,-1 x3,5 x3,4 x22,20 x22,21 x17,19 x17,18 
Back
595.215 0 m 1
 430.176 0 l 1
 430.176 9.76562 l 1
 437.5 11.2305 443.359 12.6953 448.73 13.6719 c 0
 453.613 14.6484 457.52 15.1367 460.938 16.1133 c 0
 470.215 19.5312 476.074 26.8555 478.027 39.0625 c 1
 479.98 65.918 l 1
 479.98 225.098 l 2
 479.98 252.93 477.539 271.973 472.168 282.227 c 0
 463.867 299.805 448.242 309.082 424.805 309.082 c 0
 389.16 309.082 361.328 293.457 341.797 262.207 c 1
 341.797 69.8242 l 2
 341.797 29.7852 359.863 9.76562 395.02 9.76562 c 1
 395.02 0 l 1
 226.074 0 l 1
 226.074 9.76562 l 1
 236.816 11.2305 245.117 13.1836 251.953 15.1367 c 0
 258.789 17.0898 264.16 20.0195 268.066 23.9258 c 0
 271.973 27.832 274.902 33.2031 275.879 39.5508 c 0
 277.344 45.8984 277.832 54.1992 277.832 64.9414 c 2
 277.832 229.004 l 2
 277.832 282.227 260.254 309.082 225.098 309.082 c 0
 202.148 309.082 181.641 301.758 163.086 287.109 c 0
 155.762 281.738 149.902 277.344 145.996 273.438 c 0
 142.09 270.02 139.648 266.113 139.16 263.184 c 1
 139.16 50.7812 l 2
 139.16 23.4375 155.762 9.76562 189.941 9.76562 c 1
 189.941 0 l 1
 21.9727 0 l 1
 21.9727 9.76562 l 1
 57.1289 9.76562 75.1953 27.832 75.1953 63.9648 c 2
 75.1953 268.066 l 2
 75.1953 279.785 71.7773 290.039 65.918 297.852 c 0
 63.9648 301.27 58.1055 303.223 48.8281 303.223 c 0
 43.457 303.223 39.0625 302.734 35.1562 302.734 c 0
 30.7617 302.246 27.3438 301.758 23.9258 300.781 c 1
 23.9258 312.988 l 1
 30.7617 314.453 37.5977 316.406 45.4102 318.848 c 0
 53.2227 321.777 59.5703 323.73 64.9414 325.195 c 2
 129.883 347.168 l 1
 134.766 347.168 l 1
 134.766 289.062 l 1
 162.109 307.617 182.129 320.312 194.824 327.637 c 0
 207.52 334.473 215.82 338.867 219.238 339.844 c 0
 230.957 344.727 242.188 347.168 251.953 347.168 c 0
 292.48 347.168 319.824 326.172 333.008 285.156 c 1
 370.117 326.172 411.133 347.168 455.078 347.168 c 0
 513.672 347.168 542.969 301.758 542.969 211.914 c 2
 542.969 57.1289 l 2
 542.969 29.7852 554.199 15.1367 576.172 13.1836 c 2
 595.215 9.76562 l 1
 595.215 0 l 1
EndSplineSet
EndChar
StartChar: n
Encoding: 110 110 78
OldEncoding: 110
Width: 379
Flags: HW
HStem: 0 21<24 183 183 183 219 374 374 374> 304 42
VStem: 71 63<54 68 68 255> 266 63<61 74 74 232>
Fore
374 0 m 1
 219 0 l 1
 219 10 l 1
 238 12 249 16 252 23 c 1
 261 30 266 47 266 74 c 2
 266 232 l 2
 266 280 247 304 209 304 c 0
 190 304 165 290 134 263 c 1
 134 51 l 2
 134 28 150 15 183 10 c 1
 183 0 l 1
 24 0 l 1
 24 10 l 1
 46 14 l 1
 63 21 71 40 71 68 c 2
 71 255 l 2
 71 276 68 290 63 297 c 0
 60 300 51 301 44 301 c 0
 33 301 26 300 22 299 c 1
 22 312 l 1
 38 315 56 321 63 324 c 0
 82 331 104 338 125 346 c 1
 132 346 l 1
 132 284 l 1
 153 307 170 322 183 330 c 0
 203 341 223 346 242 346 c 0
 300 346 329 308 329 233 c 2
 329 61 l 2
 329 44 332 31 338 23 c 0
 345 16 355 14 374 10 c 1
 374 0 l 1
EndSplineSet
MinimumDistance: x25,-1 
Back
374.023 0 m 1
 219.238 0 l 1
 219.238 9.76562 l 1
 237.793 12.207 248.535 16.1133 251.953 22.9492 c 1
 261.23 30.2734 266.113 47.3633 266.113 74.2188 c 2
 266.113 231.934 l 2
 266.113 279.785 247.07 304.199 208.984 304.199 c 0
 189.453 304.199 164.551 290.527 133.789 263.184 c 1
 133.789 50.7812 l 2
 133.789 28.3203 150.391 14.6484 183.105 9.76562 c 1
 183.105 0 l 1
 23.9258 0 l 1
 23.9258 9.76562 l 1
 45.8984 14.1602 l 1
 54.6875 17.0898 61.0352 23.4375 64.9414 33.2031 c 0
 68.8477 42.4805 70.8008 54.1992 70.8008 67.8711 c 2
 70.8008 254.883 l 2
 70.8008 275.879 68.3594 289.551 62.9883 296.875 c 0
 61.5234 298.34 59.082 299.316 55.1758 299.805 c 0
 50.7812 300.781 47.3633 300.781 43.9453 300.781 c 0
 33.2031 300.781 25.8789 300.293 21.9727 298.828 c 1
 21.9727 312.012 l 1
 29.7852 313.477 38.0859 315.43 45.8984 317.871 c 0
 54.1992 320.801 59.5703 322.754 62.9883 324.219 c 0
 72.2656 327.148 82.5195 331.055 92.7734 334.473 c 0
 103.516 338.379 114.258 341.797 125 346.191 c 1
 131.836 346.191 l 1
 131.836 284.18 l 1
 142.578 295.41 152.344 304.688 160.645 312.5 c 0
 168.945 320.312 176.27 326.172 183.105 330.078 c 0
 203.125 340.82 222.656 346.191 242.188 346.191 c 0
 299.805 346.191 329.102 308.105 329.102 232.91 c 2
 329.102 61.0352 l 2
 329.102 43.457 332.031 30.7617 337.891 22.9492 c 0
 341.309 19.5312 345.703 17.0898 351.562 15.625 c 0
 356.934 13.6719 364.746 12.207 374.023 9.76562 c 1
 374.023 0 l 1
EndSplineSet
EndChar
StartChar: o
Encoding: 111 111 79
OldEncoding: 111
Width: 383
Flags: HW
HStem: -5 21<147 245> 327 20<147 245>
VStem: 31 67<127.5 212.5> 294 69<127.5 212.5>
Fore
31 171 m 0
 31 267 98 347 196 347 c 0
 294 347 363 267 363 171 c 0
 363 75 294 -5 196 -5 c 0
 98 -5 31 75 31 171 c 0
98 170 m 0
 98 85 129 13 196 13 c 0
 265 13 294 85 294 170 c 0
 294 255 265 326 196 326 c 0
 129 326 98 255 98 170 c 0
EndSplineSet
MinimumDistance: x0,-1 
Back
30.7617 170.898 m 0
 30.7617 146.973 35.1562 124.512 42.9688 103.027 c 0
 50.7812 81.543 62.5 62.9883 77.1484 46.875 c 0
 91.7969 30.7617 108.887 18.5547 128.906 8.78906 c 0
 148.926 -0.488281 171.387 -4.88281 195.801 -4.88281 c 0
 220.703 -4.88281 243.164 -0.488281 263.672 8.78906 c 0
 283.691 18.5547 301.27 30.7617 315.918 46.875 c 0
 330.566 62.9883 342.285 81.543 350.586 103.027 c 0
 358.887 124.512 362.793 146.973 362.793 170.898 c 0
 362.793 194.824 358.887 217.773 350.586 238.77 c 0
 342.285 260.254 330.566 278.809 315.918 294.922 c 0
 301.27 311.035 283.691 323.73 263.672 333.008 c 0
 243.164 342.285 220.703 347.168 195.801 347.168 c 0
 171.387 347.168 148.926 342.285 128.906 333.008 c 0
 108.887 323.73 91.7969 311.035 77.1484 294.922 c 0
 62.5 278.809 50.7812 260.254 42.9688 238.77 c 0
 35.1562 217.773 30.7617 194.824 30.7617 170.898 c 0
98.1445 169.922 m 0
 98.1445 191.406 100.098 211.426 104.004 230.469 c 0
 107.91 249.512 113.77 266.113 122.07 279.785 c 0
 129.883 293.945 140.137 305.176 152.344 313.477 c 0
 165.039 321.777 179.199 326.172 195.801 326.172 c 0
 213.379 326.172 228.027 321.777 240.723 313.477 c 0
 252.93 305.176 263.184 293.945 270.996 279.785 c 0
 278.809 266.113 284.668 249.512 288.574 230.469 c 0
 291.992 211.426 293.945 191.406 293.945 169.922 c 0
 293.945 148.438 291.992 128.418 288.574 109.375 c 0
 284.668 90.332 278.809 73.7305 270.996 59.5703 c 0
 263.184 45.4102 252.93 33.6914 240.723 25.3906 c 0
 228.027 17.0898 213.379 13.1836 195.801 13.1836 c 0
 179.199 13.1836 165.039 17.0898 152.344 25.3906 c 0
 140.137 33.6914 129.883 45.4102 122.07 59.5703 c 0
 113.77 73.7305 107.91 90.332 104.004 109.375 c 0
 100.098 128.418 98.1445 148.438 98.1445 169.922 c 0
EndSplineSet
EndChar
StartChar: p
Encoding: 112 112 80
OldEncoding: 112
Width: 378
Flags: HW
HStem: -151 168 -5 22<200.5 224.5> 327 20<127 127 219 283>
VStem: 67 63<-92 -86 -86 26 60 67 67 253> 301 64<141.5 193>
Fore
130 -86 m 2
 130 -107 135 -121 144 -128 c 0
 152 -134 169 -137 195 -137 c 1
 195 -151 l 1
 16 -151 l 1
 16 -139 l 1
 56 -139 67 -127 67 -92 c 2
 67 254 l 2
 67 271 66 281 64 286 c 0
 61 294 54 298 42 298 c 2
 18 297 l 1
 18 309 l 1
 127 347 l 1
 130 290 l 1
 160 328 197 347 241 347 c 0
 325 347 365 262 365 185 c 0
 365 88 308 -5 207 -5 c 0
 179 -5 153 5 130 26 c 1
 130 -86 l 2
301 161 m 0
 301 225 275 302 205 302 c 0
 175 302 135 280 130 253 c 1
 130 67 l 2
 130 53 140 41 160 31 c 0
 177 22 193 17 208 17 c 0
 241 17 266 33 282 66 c 0
 295 91 301 122 301 161 c 0
EndSplineSet
MinimumDistance: x0,-1 
Back
129.883 -85.9375 m 2
 129.883 25.8789 l 1
 153.32 5.37109 179.199 -4.88281 207.031 -4.88281 c 0
 232.422 -4.88281 254.883 0.488281 274.414 11.2305 c 0
 293.945 21.4844 310.547 35.6445 324.219 53.7109 c 0
 337.402 71.2891 347.656 91.3086 354.492 114.258 c 0
 361.328 137.695 365.234 161.133 365.234 185.059 c 0
 365.234 204.102 362.305 223.633 357.422 243.164 c 0
 352.539 262.207 344.727 279.785 334.473 294.922 c 0
 324.219 310.547 311.523 322.754 295.898 332.52 c 0
 280.762 342.285 262.207 347.168 241.211 347.168 c 0
 196.777 347.168 160.156 328.125 129.883 290.039 c 1
 126.953 347.168 l 1
 18.0664 309.082 l 1
 18.0664 296.875 l 1
 41.9922 297.852 l 2
 54.1992 297.852 61.5234 293.945 63.9648 286.133 c 0
 65.918 281.25 66.8945 270.508 66.8945 253.906 c 2
 66.8945 -91.7969 l 2
 66.8945 -109.375 63.4766 -121.582 56.6406 -128.418 c 0
 49.3164 -135.742 36.1328 -139.16 16.1133 -139.16 c 1
 16.1133 -150.879 l 1
 194.824 -150.879 l 1
 194.824 -137.207 l 1
 168.945 -137.207 151.855 -133.789 144.043 -127.93 c 0
 134.766 -121.094 129.883 -107.422 129.883 -85.9375 c 2
300.781 161.133 m 0
 300.781 122.559 294.434 90.8203 282.227 65.918 c 0
 266.113 33.2031 241.211 17.0898 208.008 17.0898 c 0
 192.871 17.0898 176.758 21.4844 160.156 30.7617 c 0
 140.137 41.0156 129.883 53.2227 129.883 66.8945 c 2
 129.883 252.93 l 1
 131.348 259.766 134.766 266.113 140.137 271.973 c 0
 145.508 277.832 151.367 283.203 158.691 287.598 c 0
 165.527 291.992 172.852 295.41 181.152 297.852 c 0
 188.965 300.781 196.777 301.758 205.078 301.758 c 0
 222.168 301.758 237.305 297.852 249.512 289.062 c 0
 261.719 280.273 271.973 269.043 279.297 255.371 c 0
 287.109 241.699 292.48 226.562 295.898 209.961 c 0
 299.316 193.359 300.781 176.758 300.781 161.133 c 0
EndSplineSet
EndChar
StartChar: q
Encoding: 113 113 81
OldEncoding: 113
Width: 338
Flags: HW
HStem: -160 199<198 206.5 198 198> -5 21<106.5 161.5> 326 21<155 208.5>
VStem: 267 62<-89 47 47 47 97 252 252 276.5>
Fore
377 -160 m 1
 198 -160 l 1
 198 -146 l 1
 245 -146 267 -129 267 -89 c 2
 267 47 l 1
 247 29 l 1
 219 11 l 1
 199 0 171 -5 152 -5 c 0
 61 -5 28 76 28 160 c 0
 28 260 93 347 196 347 c 0
 221 347 249 338 281 320 c 1
 323 346 l 1
 327 347 l 1
 329 345 l 1
 329 -105 l 2
 329 -128 345 -142 377 -148 c 1
 377 -160 l 1
267 97 m 1
 267 252 l 2
 267 301 242 326 193 326 c 0
 117 326 93 249 93 181 c 0
 93 117 119 39 189 39 c 0
 224 39 249 49 262 68 c 1
 267 97 l 1
EndSplineSet
MinimumDistance: x0,-1 
Back
376.953 -160.156 m 1
 376.953 -147.949 l 1
 345.215 -142.09 329.102 -127.441 329.102 -104.98 c 2
 329.102 345.215 l 1
 327.148 347.168 l 1
 323.242 346.191 l 1
 280.762 319.824 l 1
 249.023 337.891 220.703 347.168 195.801 347.168 c 0
 169.922 347.168 146.484 341.797 125.977 332.031 c 0
 105.469 321.777 87.8906 308.105 73.7305 291.016 c 0
 59.082 273.438 47.8516 253.906 40.0391 231.445 c 0
 32.2266 208.984 27.832 185.547 27.832 160.156 c 0
 27.832 139.16 30.2734 119.141 34.668 99.1211 c 0
 39.0625 79.1016 45.8984 61.5234 56.1523 45.8984 c 0
 65.918 30.7617 78.6133 18.5547 94.7266 8.78906 c 0
 110.352 -0.488281 129.395 -4.88281 151.855 -4.88281 c 0
 161.133 -4.88281 172.363 -3.90625 185.059 -0.976562 c 0
 197.754 1.46484 208.984 5.85938 219.238 11.2305 c 2
 247.07 28.8086 l 1
 267.09 46.875 l 1
 267.09 -88.8672 l 2
 267.09 -108.887 261.23 -123.535 250 -132.324 c 0
 238.77 -141.602 221.191 -145.996 198.242 -145.996 c 1
 198.242 -160.156 l 1
 376.953 -160.156 l 1
267.09 97.168 m 1
 262.207 67.8711 l 1
 248.535 48.8281 224.121 39.0625 188.965 39.0625 c 0
 171.875 39.0625 156.738 43.457 144.531 51.7578 c 0
 132.324 60.5469 122.07 71.7773 114.258 85.9375 c 0
 106.934 100.098 101.562 115.234 98.1445 131.836 c 0
 94.7266 148.438 92.7734 165.039 92.7734 181.152 c 0
 92.7734 198.242 94.7266 215.332 98.1445 232.422 c 0
 101.562 249.512 106.934 265.137 114.258 278.809 c 0
 122.07 292.969 132.324 304.199 145.508 312.988 c 0
 158.691 321.777 174.316 326.172 192.871 326.172 c 0
 242.188 326.172 267.09 301.27 267.09 251.953 c 2
 267.09 97.168 l 1
EndSplineSet
EndChar
StartChar: r
Encoding: 114 114 82
OldEncoding: 114
Width: 255
Flags: HW
HStem: 0 21<15 196 196 196> 327 20<128 132 128 128 208.5 237.5>
VStem: 68 64<69 238 238 243.5>
Fore
265 307 m 0
 265 284 252 273 236 273 c 0
 214 273 201 301 185 301 c 0
 174 301 162 293 150 278 c 0
 138 262 132 249 132 238 c 2
 132 69 l 2
 132 30 153 10 196 10 c 1
 196 0 l 1
 15 0 l 1
 15 10 l 1
 38 15 51 19 58 23 c 0
 65 27 68 45 68 64 c 2
 68 253 l 2
 68 284 59 301 43 298 c 2
 17 295 l 1
 17 307 l 1
 65 324 101 336 128 347 c 1
 132 347 l 1
 132 279 l 1
 162 324 193 347 224 347 c 0
 251 347 265 334 265 307 c 0
EndSplineSet
MinimumDistance: x2,-1 x1,3 x1,2 
Back
265.137 307.129 m 0
 265.137 295.898 262.207 287.109 256.348 281.738 c 0
 250.977 275.879 244.141 272.949 235.84 272.949 c 0
 230.469 272.949 225.586 274.414 221.191 277.344 c 0
 216.309 280.273 211.914 283.691 208.008 287.109 c 0
 204.102 290.527 200.195 293.457 196.289 296.387 c 0
 192.871 299.316 188.965 300.781 185.059 300.781 c 0
 173.828 300.781 162.109 293.457 149.902 277.832 c 0
 138.184 262.207 131.836 248.535 131.836 237.793 c 2
 131.836 68.8477 l 2
 131.836 29.7852 153.32 9.76562 195.801 9.76562 c 1
 195.801 0 l 1
 15.1367 0 l 1
 15.1367 9.76562 l 1
 26.3672 12.6953 35.6445 15.1367 42.4805 17.0898 c 0
 49.3164 19.043 54.6875 20.9961 58.1055 22.9492 c 0
 61.5234 24.9023 63.9648 29.7852 65.4297 38.0859 c 0
 67.3828 45.8984 67.8711 54.6875 67.8711 63.9648 c 2
 67.8711 252.93 l 2
 67.8711 268.555 65.918 279.785 61.5234 288.086 c 0
 57.1289 295.898 50.7812 299.316 42.9688 297.852 c 2
 17.0898 294.922 l 1
 17.0898 307.129 l 1
 41.0156 315.43 62.0117 323.242 80.5664 329.59 c 0
 98.6328 335.938 114.746 341.797 127.93 347.168 c 1
 131.836 347.168 l 1
 131.836 278.809 l 1
 162.109 324.219 192.871 347.168 224.121 347.168 c 0
 251.465 347.168 265.137 333.496 265.137 307.129 c 0
EndSplineSet
EndChar
StartChar: s
Encoding: 115 115 83
OldEncoding: 115
Width: 289
Flags: HW
HStem: -5 21<145 180.5> 0 21<36 46 46 46> 321 20<224 233 224 224> 327 20<114.5 155.5>
VStem: 36 201 207 53<60 74.5>
Fore
260 90 m 0
 260 30 211 -5 150 -5 c 0
 140 -5 124 -3 102 1 c 2
 63 8 l 2
 57 8 51 5 46 0 c 1
 36 0 l 1
 36 116 l 1
 50 116 l 1
 52 99 55 86 60 77 c 1
 73 46 l 1
 88 21 112 9 145 9 c 0
 186 9 207 27 207 64 c 0
 207 85 194 104 168 120 c 2
 86 169 l 1
 62 190 l 2
 45 204 36 226 36 255 c 0
 36 311 87 347 142 347 c 0
 169 347 176 343 184 340 c 2
 211 331 l 1
 216 331 220 334 224 341 c 1
 233 341 l 1
 237 238 l 1
 224 238 l 1
 210 299 182 330 140 330 c 0
 105 330 86 313 82 280 c 1
 82 257 93 240 115 227 c 2
 197 179 l 2
 218 166 233 155 242 144 c 0
 254 130 260 112 260 90 c 0
EndSplineSet
MinimumDistance: x0,-1 
Back
259.766 89.8438 m 0
 259.766 60.0586 249.512 36.6211 228.027 20.0195 c 0
 206.543 3.41797 180.664 -4.88281 149.902 -4.88281 c 0
 140.137 -4.88281 124.023 -2.92969 102.051 0.976562 c 2
 62.9883 7.8125 l 2
 57.1289 7.8125 51.2695 5.37109 45.8984 0 c 1
 36.1328 0 l 1
 36.1328 116.211 l 1
 49.8047 116.211 l 1
 51.7578 99.1211 55.1758 86.4258 60.0586 77.1484 c 1
 73.2422 45.8984 l 1
 87.8906 21.4844 111.816 8.78906 145.02 8.78906 c 0
 186.523 8.78906 207.031 27.3438 207.031 63.9648 c 0
 207.031 85.4492 193.848 104.004 167.969 120.117 c 2
 85.9375 168.945 l 1
 62.0117 189.941 l 2
 44.4336 204.102 36.1328 225.586 36.1328 254.883 c 0
 36.1328 269.043 39.0625 281.738 44.9219 292.969 c 0
 50.7812 304.199 58.5938 313.965 68.3594 321.777 c 0
 78.125 330.078 89.3555 335.938 102.051 340.332 c 0
 114.746 344.727 127.93 347.168 142.09 347.168 c 0
 155.273 347.168 164.551 346.191 169.922 344.727 c 0
 175.293 342.773 180.176 341.309 184.082 339.844 c 2
 210.938 331.055 l 1
 215.82 331.055 220.215 334.473 224.121 340.82 c 1
 232.91 340.82 l 1
 236.816 237.793 l 1
 224.121 237.793 l 1
 209.961 299.316 182.129 330.078 140.137 330.078 c 0
 105.469 330.078 85.9375 313.477 82.0312 279.785 c 1
 82.0312 257.324 92.7734 239.746 115.234 227.051 c 2
 196.777 179.199 l 2
 218.262 166.504 233.398 154.785 242.188 144.043 c 0
 253.906 129.883 259.766 111.816 259.766 89.8438 c 0
EndSplineSet
EndChar
StartChar: t
Encoding: 116 116 84
OldEncoding: 116
Width: 208
Flags: HW
HStem: -5 37 315 25<121 198> 417 20<117 117>
VStem: 59 62<100 315>
Fore
215 50 m 1
 199 18 161 -5 127 -5 c 0
 82 -5 59 26 59 89 c 2
 59 315 l 1
 18 315 l 1
 15 321 l 1
 28 331 40 341 50 351 c 0
 75 376 93 401 117 437 c 1
 121 426 l 1
 121 340 l 1
 198 340 l 1
 198 315 l 1
 121 315 l 1
 121 100 l 2
 121 55 134 32 159 32 c 0
 175 32 191 41 206 58 c 1
 215 50 l 1
EndSplineSet
MinimumDistance: x10,-1 x9,11 x9,10 
Back
214.844 49.8047 m 1
 210.938 41.9922 206.055 34.668 199.707 27.832 c 0
 193.359 21.4844 186.035 15.625 178.223 10.7422 c 0
 169.922 5.37109 161.621 1.46484 152.344 -0.976562 c 0
 143.555 -3.90625 134.766 -4.88281 126.953 -4.88281 c 0
 81.543 -4.88281 59.082 26.3672 59.082 88.8672 c 2
 59.082 314.941 l 1
 18.0664 314.941 l 1
 15.1367 320.801 l 1
 28.3203 331.055 40.0391 340.82 49.8047 351.074 c 0
 62.5 363.77 74.2188 376.465 83.9844 390.137 c 0
 94.2383 403.32 104.98 418.945 117.188 437.012 c 1
 121.094 425.781 l 1
 121.094 339.844 l 1
 198.242 339.844 l 1
 198.242 314.941 l 1
 121.094 314.941 l 1
 121.094 100.098 l 2
 121.094 54.6875 133.789 32.2266 159.18 32.2266 c 0
 174.805 32.2266 190.43 40.5273 206.055 58.1055 c 1
 214.844 49.8047 l 1
EndSplineSet
EndChar
StartChar: u
Encoding: 117 117 85
OldEncoding: 117
Width: 386
Flags: HW
HStem: -5 21<144.5 170> 320 20<18 127 18 18 206 326 206 206>
VStem: 64 63<95 281> 262 64<91.5 101 101 280>
Fore
372 27 m 1
 364 26 350 23 327 15 c 2
 267 -4 l 1
 266 58 l 1
 233 25 l 1
 211 5 185 -5 155 -5 c 0
 134 -5 115 0 97 11 c 1
 75 31 64 58 64 91 c 2
 64 281 l 2
 64 301 59 314 49 321 c 1
 43 327 33 330 18 330 c 1
 18 340 l 1
 127 340 l 1
 127 95 l 2
 127 78 132 65 143 54 c 1
 146 47 152 45 160 41 c 1
 185 38 l 1
 208 38 229 47 250 64 c 1
 258 69 262 82 262 101 c 2
 262 280 l 2
 262 320 249 327 206 327 c 1
 206 340 l 1
 326 340 l 1
 326 82 l 2
 326 45 333 39 372 39 c 1
 372 27 l 1
EndSplineSet
MinimumDistance: x21,-1 
Back
372.07 26.8555 m 1
 368.164 26.3672 362.305 25.3906 354.98 23.4375 c 0
 347.656 21.9727 338.379 19.043 327.148 15.1367 c 2
 267.09 -3.90625 l 1
 266.113 58.1055 l 1
 232.91 24.9023 l 1
 210.938 4.88281 185.059 -4.88281 154.785 -4.88281 c 0
 134.277 -4.88281 115.234 0.488281 97.168 11.2305 c 1
 75.1953 30.7617 63.9648 57.6172 63.9648 90.8203 c 2
 63.9648 280.762 l 2
 63.9648 300.781 59.082 314.453 48.8281 320.801 c 1
 42.9688 327.148 32.7148 330.078 18.0664 330.078 c 1
 18.0664 339.844 l 1
 126.953 339.844 l 1
 126.953 95.2148 l 2
 126.953 78.125 132.324 64.4531 143.066 54.1992 c 1
 144.531 50.7812 146.484 48.3398 149.414 46.3867 c 0
 152.344 44.9219 155.762 42.9688 160.156 41.0156 c 1
 185.059 38.0859 l 1
 207.52 38.0859 229.492 46.875 250 63.9648 c 0
 257.812 69.3359 262.207 81.543 262.207 101.074 c 2
 262.207 279.785 l 2
 262.207 299.805 257.812 312.988 250 318.359 c 0
 242.188 324.219 227.539 327.148 206.055 327.148 c 1
 206.055 339.844 l 1
 326.172 339.844 l 1
 326.172 82.0312 l 2
 326.172 63.4766 328.613 51.2695 334.473 46.3867 c 0
 340.332 41.5039 352.539 39.0625 372.07 39.0625 c 1
 372.07 26.8555 l 1
EndSplineSet
EndChar
StartChar: v
Encoding: 118 118 86
OldEncoding: 118
Width: 362
Flags: HW
HStem: -7 21<186 186> 320 20<7 154 7 7 247 352 247 247>
Fore
352 328 m 1
 339 328 328 321 320 307 c 0
 313 294 310 284 303 269 c 1
 207 28 l 1
 190 -2 l 1
 186 -7 l 1
 179 1 l 1
 166 25 l 1
 49 300 l 1
 37 316 l 2
 30 324 20 328 7 328 c 1
 7 340 l 1
 154 340 l 1
 154 328 l 1
 131 326 120 318 120 305 c 0
 120 298 123 291 127 279 c 1
 203 87 l 1
 252 212 l 2
 271 260 278 284 282 303 c 1
 282 307 l 2
 282 320 268 328 247 328 c 1
 247 340 l 1
 352 340 l 1
 352 328 l 1
EndSplineSet
MinimumDistance: x0,-1 
Back
352.051 328.125 m 1
 338.867 328.125 328.125 320.801 319.824 307.129 c 0
 316.895 300.293 313.965 293.945 311.523 288.574 c 0
 309.082 282.715 306.152 276.367 303.223 269.043 c 1
 207.031 27.832 l 1
 189.941 -1.95312 l 1
 186.035 -6.83594 l 1
 179.199 0.976562 l 1
 166.016 24.9023 l 1
 48.8281 299.805 l 1
 37.1094 315.918 l 1
 29.7852 324.219 19.5312 328.125 6.83594 328.125 c 1
 6.83594 339.844 l 1
 153.809 339.844 l 1
 153.809 328.125 l 1
 131.348 326.172 120.117 318.359 120.117 305.176 c 0
 120.117 301.758 120.605 297.852 122.07 293.945 c 0
 123.535 290.039 125 285.156 126.953 278.809 c 2
 203.125 86.9141 l 1
 251.953 211.914 l 2
 261.23 235.84 268.066 254.883 272.461 268.555 c 0
 276.855 282.227 279.785 293.457 282.227 303.223 c 1
 282.227 307.129 l 2
 282.227 313.477 278.809 318.848 272.461 322.266 c 0
 266.113 326.172 257.812 328.125 247.07 328.125 c 1
 247.07 339.844 l 1
 352.051 339.844 l 1
 352.051 328.125 l 1
EndSplineSet
EndChar
StartChar: w
Encoding: 119 119 87
OldEncoding: 119
Width: 524
Flags: HW
HStem: -7 21<168 168 355 357> 320 20<7 142 7 7 187 340 187 187 421 513 421 421>
Fore
513 328 m 1
 502 326 492 313 482 288 c 2
 378 27 l 1
 364 1 l 1
 357 -7 l 1
 353 -7 347 3 339 23 c 2
 271 200 l 1
 186 20 l 1
 183 11 178 4 173 0 c 1
 168 -7 l 1
 158 3 151 13 148 24 c 1
 32 312 l 1
 29 322 20 327 7 328 c 1
 7 340 l 1
 142 340 l 1
 142 328 l 1
 118 326 106 318 106 303 c 0
 106 297 115 270 134 221 c 2
 186 85 l 1
 255 235 l 1
 237 284 l 1
 223 312 l 1
 216 319 204 325 187 328 c 1
 187 340 l 1
 340 340 l 1
 340 328 l 1
 310 321 l 1
 301 317 297 310 297 300 c 0
 297 296 302 279 313 250 c 2
 373 88 l 1
 442 255 l 2
 447 267 453 290 453 303 c 0
 453 314 442 322 421 328 c 1
 421 340 l 1
 513 340 l 1
 513 328 l 1
EndSplineSet
MinimumDistance: x0,-1 
Back
513.184 328.125 m 1
 502.441 326.172 492.188 312.5 481.934 288.086 c 2
 377.93 26.8555 l 1
 363.77 0.976562 l 1
 356.934 -6.83594 l 1
 353.027 -6.83594 347.168 2.92969 338.867 22.9492 c 2
 270.996 200.195 l 1
 186.035 20.0195 l 1
 182.617 10.7422 178.223 3.90625 172.852 0 c 1
 167.969 -6.83594 l 1
 158.203 2.92969 151.367 13.1836 147.949 23.9258 c 1
 32.2266 312.012 l 1
 28.8086 321.777 20.5078 327.148 6.83594 328.125 c 1
 6.83594 339.844 l 1
 142.09 339.844 l 1
 142.09 328.125 l 1
 118.164 326.172 105.957 317.871 105.957 303.223 c 0
 105.957 296.875 115.234 269.531 133.789 221.191 c 2
 186.035 84.9609 l 1
 254.883 234.863 l 1
 236.816 284.18 l 1
 223.145 312.012 l 1
 215.82 319.336 203.613 324.707 187.012 328.125 c 1
 187.012 339.844 l 1
 339.844 339.844 l 1
 339.844 328.125 l 1
 310.059 320.801 l 1
 301.27 316.895 296.875 310.059 296.875 299.805 c 0
 296.875 295.898 302.246 279.297 312.988 250 c 2
 373.047 87.8906 l 1
 441.895 254.883 l 2
 444.824 261.23 447.266 269.043 449.707 278.32 c 0
 451.66 288.086 453.125 296.387 453.125 303.223 c 0
 453.125 313.477 442.383 321.777 420.898 328.125 c 1
 420.898 339.844 l 1
 513.184 339.844 l 1
 513.184 328.125 l 1
EndSplineSet
EndChar
StartChar: x
Encoding: 120 120 88
OldEncoding: 120
Width: 376
Flags: HW
HStem: 0 21<14 123 123 123 211 363 363 363> 320 20<20 176 20 20 209 328 209 209>
Fore
363 0 m 1
 211 0 l 1
 211 10 l 1
 231 14 l 2
 237 16 240 22 240 31 c 0
 240 36 236 44 229 55 c 2
 168 148 l 1
 108 56 l 2
 100 43 94 32 93 24 c 1
 94 15 104 10 123 10 c 1
 123 0 l 1
 14 0 l 1
 14 10 l 1
 29 13 37 16 40 19 c 1
 51 24 59 35 70 50 c 2
 156 175 l 1
 85 283 l 2
 74 299 63 313 50 324 c 1
 20 328 l 1
 20 340 l 1
 176 340 l 1
 176 328 l 1
 155 328 144 322 144 311 c 0
 144 303 159 276 189 230 c 1
 221 277 238 303 239 311 c 0
 239 322 229 328 209 328 c 1
 209 340 l 1
 328 340 l 1
 328 328 l 1
 302 328 282 317 267 296 c 2
 204 205 l 1
 302 56 l 1
 321 29 339 13 363 10 c 1
 363 0 l 1
EndSplineSet
MinimumDistance: x30,-1 
Back
362.793 0 m 1
 210.938 0 l 1
 210.938 9.76562 l 1
 230.957 14.1602 l 2
 236.816 16.1133 240.234 21.4844 240.234 30.7617 c 0
 240.234 33.6914 238.77 37.1094 236.816 41.0156 c 0
 234.863 44.9219 232.422 49.8047 229.004 55.1758 c 2
 167.969 147.949 l 1
 107.91 56.1523 l 2
 104.004 49.3164 100.586 43.457 98.1445 38.0859 c 0
 95.2148 32.7148 93.75 27.832 92.7734 23.9258 c 0
 94.2383 14.6484 104.492 9.76562 123.047 9.76562 c 1
 123.047 0 l 1
 14.1602 0 l 1
 14.1602 9.76562 l 1
 28.8086 13.1836 37.1094 16.1133 40.0391 19.043 c 0
 45.4102 21.4844 50.293 25.8789 55.1758 30.7617 c 0
 59.5703 36.1328 64.4531 42.4805 69.8242 49.8047 c 2
 155.762 174.805 l 1
 84.9609 283.203 l 2
 74.2188 298.828 62.5 312.5 49.8047 324.219 c 1
 20.0195 328.125 l 1
 20.0195 339.844 l 1
 175.781 339.844 l 1
 175.781 328.125 l 1
 154.785 328.125 144.043 322.266 144.043 311.035 c 0
 144.043 303.223 159.18 275.879 188.965 229.98 c 1
 205.078 253.418 217.285 271.484 225.586 285.156 c 0
 233.887 298.34 238.281 307.129 238.77 311.035 c 0
 238.77 322.266 229.004 328.125 208.984 328.125 c 1
 208.984 339.844 l 1
 328.125 339.844 l 1
 328.125 328.125 l 1
 301.758 328.125 281.738 317.383 267.09 295.898 c 2
 204.102 205.078 l 1
 301.758 56.1523 l 2
 311.523 42.4805 320.801 32.2266 330.566 23.9258 c 0
 340.332 16.1133 351.074 11.2305 362.793 9.76562 c 1
 362.793 0 l 1
EndSplineSet
EndChar
StartChar: y
Encoding: 121 121 89
OldEncoding: 121
Width: 370
Flags: HW
HStem: -169 80<54.5 65.5> 320 20<11 167 167 167 257 359 359 359>
Fore
206 -13 m 2
 167 -117 122 -169 73 -169 c 0
 36 -169 17 -154 17 -124 c 0
 17 -101 29 -89 54 -89 c 0
 77 -89 96 -104 109 -104 c 0
 126 -104 143 -85 160 -48 c 1
 184 9 l 1
 184 12 184 14 183 15 c 1
 49 305 l 1
 45 318 32 326 11 330 c 1
 11 340 l 1
 167 340 l 1
 167 329 l 1
 137 329 122 322 122 307 c 0
 122 299 125 290 131 280 c 1
 218 88 l 1
 294 308 l 1
 294 322 282 329 257 329 c 1
 257 340 l 1
 359 340 l 1
 359 329 l 1
 343 329 331 318 323 295 c 1
 206 -13 l 2
EndSplineSet
MinimumDistance: x16,-1 
Back
206.055 -13.1836 m 2
 323.242 294.922 l 1
 331.055 317.871 342.773 329.102 358.887 329.102 c 1
 358.887 339.844 l 1
 256.836 339.844 l 1
 256.836 329.102 l 1
 281.738 329.102 293.945 321.777 293.945 308.105 c 1
 217.773 87.8906 l 1
 130.859 279.785 l 1
 125 290.039 122.07 298.828 122.07 307.129 c 0
 122.07 321.777 137.207 329.102 166.992 329.102 c 1
 166.992 339.844 l 1
 11.2305 339.844 l 1
 11.2305 330.078 l 1
 32.2266 326.172 44.9219 317.871 48.8281 305.176 c 1
 183.105 15.1367 l 2
 183.594 13.6719 184.082 11.7188 184.082 8.78906 c 1
 160.156 -47.8516 l 1
 143.555 -85.4492 126.465 -104.004 108.887 -104.004 c 0
 102.539 -104.004 94.2383 -101.562 84.9609 -96.6797 c 0
 75.6836 -91.3086 65.4297 -88.8672 54.1992 -88.8672 c 0
 29.2969 -88.8672 17.0898 -100.586 17.0898 -124.023 c 0
 17.0898 -153.809 35.6445 -168.945 73.2422 -168.945 c 0
 122.559 -168.945 166.504 -117.188 206.055 -13.1836 c 2
EndSplineSet
EndChar
StartChar: z
Encoding: 122 122 90
OldEncoding: 122
Width: 332
Flags: HW
HStem: 0 23<92 196> 316 24<107 213 213 213>
Fore
306 100 m 1
 297 0 l 1
 12 0 l 1
 12 10 l 1
 213 316 l 1
 107 316 l 2
 59 316 48 287 45 250 c 1
 29 250 l 1
 32 340 l 1
 296 340 l 1
 296 328 l 1
 92 23 l 1
 196 23 l 2
 262 23 282 43 293 104 c 1
 306 100 l 1
EndSplineSet
MinimumDistance: x6,-1 
Back
306.152 100.098 m 1
 296.875 0 l 1
 12.207 0 l 1
 12.207 9.76562 l 1
 212.891 315.918 l 1
 106.934 315.918 l 2
 95.2148 315.918 84.9609 314.453 77.6367 311.035 c 0
 69.8242 307.617 63.4766 303.223 59.082 296.875 c 0
 54.1992 291.016 50.7812 284.18 48.8281 275.879 c 0
 46.875 268.066 45.8984 259.277 44.9219 250 c 1
 28.8086 250 l 1
 32.2266 339.844 l 1
 295.898 339.844 l 1
 295.898 328.125 l 1
 91.7969 22.9492 l 1
 195.801 22.9492 l 2
 212.891 22.9492 226.562 24.4141 237.305 26.8555 c 0
 248.535 29.7852 257.812 34.1797 265.137 40.5273 c 0
 272.461 46.875 278.32 55.1758 282.715 65.4297 c 0
 286.621 75.6836 290.527 88.8672 292.969 104.004 c 1
 306.152 100.098 l 1
EndSplineSet
EndChar
StartChar: braceleft
Encoding: 123 123 91
OldEncoding: 123
Width: 240
Flags: HW
HStem: -125 21<197.5 217> 456 20<197.5 217>
VStem: 101 52<-31 -27 -27 85 85 95 265 379>
Fore
217 -125 m 1
 178 -125 149 -119 132 -107 c 0
 111 -92 101 -66 101 -27 c 2
 101 95 l 2
 101 143 87 163 42 175 c 1
 86 187 101 207 101 254 c 2
 101 379 l 2
 101 417 111 443 132 458 c 0
 149 470 178 476 217 476 c 1
 217 468 l 1
 168 457 153 434 153 382 c 2
 153 265 l 2
 153 238 149 217 141 203 c 1
 132 192 115 182 90 175 c 1
 142 159 153 141 153 85 c 2
 153 -31 l 2
 153 -82 169 -104 217 -117 c 1
 217 -125 l 1
EndSplineSet
MinimumDistance: x6,-1 
Back
216.797 -125 m 1
 177.734 -125 149.414 -119.141 131.836 -106.934 c 0
 111.328 -92.2852 101.074 -65.4297 101.074 -26.8555 c 2
 101.074 95.2148 l 2
 101.074 119.141 96.6797 136.719 88.3789 148.438 c 0
 80.0781 160.156 64.4531 168.945 41.9922 174.805 c 1
 63.9648 181.152 79.1016 189.941 87.8906 201.66 c 0
 96.6797 213.379 101.074 230.469 101.074 253.906 c 2
 101.074 378.906 l 2
 101.074 416.992 111.328 443.359 131.836 458.008 c 0
 149.414 470.215 177.734 476.074 216.797 476.074 c 1
 216.797 467.773 l 1
 192.383 462.891 175.293 453.613 166.504 440.43 c 0
 157.715 427.734 152.832 408.203 152.832 381.836 c 2
 152.832 265.137 l 2
 152.832 237.793 148.926 216.797 141.113 203.125 c 1
 132.324 191.895 115.234 182.129 89.8438 174.805 c 1
 103.516 170.898 113.77 166.504 122.07 162.109 c 0
 129.883 157.227 136.23 151.855 141.113 145.02 c 0
 145.508 138.184 148.926 130.371 150.391 120.605 c 0
 152.344 110.84 152.832 99.1211 152.832 84.9609 c 2
 152.832 -30.7617 l 2
 152.832 -56.1523 157.715 -75.1953 166.992 -87.8906 c 0
 176.27 -100.586 192.871 -110.352 216.797 -117.188 c 1
 216.797 -125 l 1
EndSplineSet
EndChar
StartChar: bar
Encoding: 124 124 92
OldEncoding: 124
Width: 155
Flags: HW
HStem: -121 21<62 97 97 97> 453 20<62 97 62 62>
VStem: 62 35<-121 473>
Fore
97 -121 m 1
 62 -121 l 1
 62 473 l 1
 97 473 l 1
 97 -121 l 1
EndSplineSet
MinimumDistance: x0,-1 
Back
97.168 -121.094 m 1
 62.0117 -121.094 l 1
 62.0117 473.145 l 1
 97.168 473.145 l 1
 97.168 -121.094 l 1
EndSplineSet
EndChar
StartChar: braceright
Encoding: 125 125 93
OldEncoding: 125
Width: 240
Flags: HW
HStem: -125 21<26 46> 456 20<26 46.5>
VStem: 90 51<-27 85 254 265 265 378 378 382>
Fore
201 175 m 1
 156 163 141 142 141 95 c 2
 141 -27 l 2
 141 -66 131 -92 111 -107 c 0
 94 -119 66 -125 26 -125 c 1
 26 -117 l 1
 69 -106 90 -78 90 -31 c 2
 90 85 l 2
 90 112 94 132 101 143 c 0
 109 157 126 167 153 174 c 1
 102 189 90 209 90 265 c 2
 90 382 l 2
 90 433 74 456 26 468 c 1
 26 476 l 1
 67 476 95 470 112 458 c 0
 131 444 141 417 141 378 c 2
 141 254 l 2
 141 213 161 186 201 175 c 1
EndSplineSet
MinimumDistance: x0,-1 
Back
201.172 174.805 m 1
 178.223 168.945 162.598 160.156 153.809 147.949 c 0
 145.508 136.23 141.113 118.164 141.113 95.2148 c 2
 141.113 -26.8555 l 2
 141.113 -65.4297 130.859 -92.2852 110.84 -106.934 c 0
 94.2383 -119.141 65.918 -125 25.8789 -125 c 1
 25.8789 -117.188 l 1
 68.8477 -106.445 89.8438 -77.6367 89.8438 -30.7617 c 2
 89.8438 84.9609 l 2
 89.8438 112.305 93.75 131.836 101.074 143.066 c 0
 108.887 157.227 126.465 167.48 152.832 173.828 c 1
 127.441 181.152 110.84 191.406 102.539 204.102 c 0
 94.2383 216.797 89.8438 236.816 89.8438 265.137 c 2
 89.8438 381.836 l 2
 89.8438 407.227 85.4492 426.27 76.1719 439.453 c 0
 66.8945 452.637 49.8047 461.914 25.8789 467.773 c 1
 25.8789 476.074 l 1
 66.8945 476.074 95.2148 470.215 111.816 458.008 c 0
 131.348 443.848 141.113 417.48 141.113 377.93 c 2
 141.113 253.906 l 2
 141.113 212.891 161.133 186.523 201.172 174.805 c 1
EndSplineSet
EndChar
StartChar: asciitilde
Encoding: 126 126 94
OldEncoding: 126
Width: 418
Flags: HW
HStem: 128 21<75 75> 178 45<123 143.5> 206 20<348 348>
Fore
373 191 m 1
 353 165 l 1
 338 150 l 2
 325 137 308 131 286 131 c 0
 271 131 246 139 211 154 c 0
 178 170 153 178 134 178 c 0
 112 178 92 161 75 128 c 1
 50 163 l 1
 71 203 100 223 137 223 c 0
 153 223 178 215 213 200 c 0
 247 185 272 177 287 176 c 0
 306 176 327 193 348 226 c 1
 373 191 l 1
EndSplineSet
Back
373.047 190.918 m 1
 353.027 165.039 l 1
 337.891 149.902 l 2
 325.195 137.207 308.105 130.859 286.133 130.859 c 0
 270.508 130.859 245.605 138.672 210.938 153.809 c 0
 178.223 169.922 152.832 178.223 133.789 178.223 c 0
 111.816 178.223 92.2852 161.133 75.1953 127.93 c 1
 49.8047 163.086 l 1
 71.2891 203.125 100.098 223.145 137.207 223.145 c 0
 152.832 223.145 178.223 215.332 212.891 200.195 c 0
 247.07 185.547 271.484 177.246 287.109 175.781 c 0
 306.152 175.781 326.66 192.871 348.145 226.074 c 1
 373.047 190.918 l 1
EndSplineSet
EndChar
StartChar: uni0E10.descless
Encoding: 128 -1 95
OldEncoding: 63232
Width: 355
Flags: HW
HStem: 0 21<193 245 193 193> 220 59 299 42 325 20<237 254.5> 365 20<99 136.5> 380 21<284 305 305 305>
VStem: 193 52<0 48 161 196 196 196>
Fore
245 197 m 1
 245 0 l 1
 193 0 l 1
 193 96 172 158 140 186 c 1
 143 179 145 171 145 160 c 0
 145 132 128 106 101 106 c 0
 77 106 58 135 58 162 c 0
 58 195 76 220 113 220 c 0
 148 220 178 200 193 161 c 1
 193 196 l 1
 192 233 170 257 128 268 c 0
 102 275 66 279 20 279 c 1
 28 337 71 385 127 385 c 0
 146 385 164 382 183 373 c 0
 199 365 231 345 243 345 c 0
 266 345 275 360 284 380 c 1
 305 380 l 1
 293 337 268 316 231 316 c 0
 220 316 203 319 179 327 c 0
 156 334 137 341 125 341 c 0
 86 341 62 327 53 298 c 1
 60 299 68 300 92 300 c 0
 132 300 166 293 193 278 c 0
 227 259 244 232 245 197 c 1
126 162 m 0
 126 178 117 197 101 197 c 0
 86 197 77 182 77 162 c 0
 77 138 86 125 101 125 c 0
 114 125 126 138 126 162 c 0
EndSplineSet
MinimumDistance: x8,-1 
Back
245.117 196.777 m 1
 244.141 231.445 227.051 258.789 192.871 277.832 c 0
 165.527 292.48 131.836 299.805 91.7969 299.805 c 0
 80.0781 299.805 71.2891 299.805 65.918 299.316 c 0
 60.5469 299.316 56.1523 298.828 53.2227 297.852 c 1
 61.5234 326.66 85.4492 340.82 125 340.82 c 0
 130.859 340.82 138.672 339.355 147.949 336.426 c 0
 157.227 333.496 167.48 330.566 179.199 327.148 c 0
 190.918 323.242 201.172 320.312 209.961 318.359 c 0
 218.75 316.895 225.586 315.918 230.957 315.918 c 0
 268.555 315.918 292.969 337.402 305.176 379.883 c 1
 284.18 379.883 l 1
 279.297 370.117 273.926 361.816 268.555 354.98 c 0
 262.695 348.145 254.395 345.215 243.164 345.215 c 0
 239.746 345.215 235.352 346.191 230.469 348.633 c 0
 225.586 351.074 220.215 353.516 214.355 356.445 c 0
 208.984 359.375 203.125 362.305 197.266 365.723 c 0
 191.895 368.652 187.012 371.094 183.105 373.047 c 0
 173.828 377.441 164.551 380.859 154.785 382.324 c 0
 145.508 384.277 136.23 384.766 126.953 384.766 c 0
 112.793 384.766 100.098 382.324 87.8906 376.465 c 0
 76.1719 370.605 64.9414 363.281 55.6641 353.516 c 0
 45.8984 343.75 38.0859 332.52 32.2266 319.824 c 0
 25.8789 307.129 21.9727 293.457 20.0195 278.809 c 1
 65.918 278.809 102.051 275.391 127.93 268.066 c 0
 169.922 256.836 191.895 232.91 192.871 195.801 c 1
 192.871 161.133 l 1
 185.547 180.176 174.805 194.824 160.645 205.078 c 0
 145.996 214.844 130.371 220.215 112.793 220.215 c 0
 94.2383 220.215 80.5664 214.355 71.2891 203.613 c 0
 62.5 192.383 58.1055 178.711 58.1055 162.109 c 0
 58.1055 148.438 62.0117 136.23 70.3125 124.023 c 0
 78.6133 111.816 88.8672 105.957 101.074 105.957 c 0
 114.258 105.957 125 111.328 132.812 122.559 c 0
 141.113 133.301 145.02 145.996 145.02 160.156 c 0
 145.02 170.898 143.555 179.199 140.137 186.035 c 1
 155.762 171.875 168.945 149.414 178.711 118.652 c 0
 187.988 87.4023 192.871 47.8516 192.871 0 c 1
 245.117 0 l 1
 245.117 196.777 l 1
125.977 162.109 m 0
 125.977 149.902 123.535 140.625 118.652 134.277 c 0
 113.281 127.93 107.91 125 101.074 125 c 0
 93.75 125 87.8906 127.93 83.4961 134.277 c 0
 79.1016 140.625 77.1484 149.902 77.1484 162.109 c 0
 77.1484 171.875 79.1016 180.176 83.4961 187.012 c 0
 87.8906 193.848 93.75 196.777 101.074 196.777 c 0
 108.887 196.777 115.234 193.359 119.629 185.547 c 0
 124.023 177.734 125.977 169.922 125.977 162.109 c 0
EndSplineSet
KernsSLIF: 212 30 0 0 215 30 0 0 214 30 0 0 213 30 0 0
EndChar
StartChar: uni0E34.left
Encoding: 129 -1 96
OldEncoding: 63233
Width: 0
Flags: HW
HStem: 422 21 560 20<-303.5 -255.5>
Fore
-160 456 m 1
 -171 488 -227 545 -285 545 c 0
 -310 545 -346 539 -346 515 c 0
 -346 500 -324 499 -307 499 c 0
 -280 499 -264 496 -241 491 c 0
 -210 484 -185 472 -160 456 c 1
-135 422 m 1
 -160 439 -194 453 -229 462 c 1
 -250 469 -277 473 -304 473 c 2
 -323 473 l 2
 -330 473 -337 473 -342 472 c 0
 -363 472 -379 475 -388 482 c 0
 -395 487 -400 498 -400 505 c 0
 -400 528 -376 552 -359 563 c 0
 -340 574 -317 580 -290 580 c 0
 -221 580 -135 513 -135 422 c 1
EndSplineSet
MinimumDistance: x8,-1 
Back
-160.156 456.055 m 1
 -162.598 463.867 -167.969 473.145 -175.293 483.398 c 0
 -183.105 493.652 -192.871 503.418 -204.59 512.695 c 0
 -216.309 521.484 -229.004 529.297 -242.676 535.645 c 0
 -256.348 541.992 -270.508 544.922 -285.156 544.922 c 0
 -291.016 544.922 -297.852 544.434 -305.176 543.457 c 0
 -312.5 542.48 -318.848 541.016 -325.195 539.062 c 0
 -331.055 537.109 -335.938 534.18 -339.844 529.785 c 0
 -344.238 525.879 -346.191 520.996 -346.191 515.137 c 0
 -346.191 507.812 -341.797 502.93 -333.008 501.465 c 0
 -324.219 500 -315.43 499.023 -307.129 499.023 c 0
 -293.457 499.023 -282.227 498.535 -272.461 497.07 c 0
 -262.695 495.605 -252.441 493.652 -241.211 491.211 c 0
 -225.586 487.793 -211.426 482.91 -198.73 477.051 c 0
 -185.547 471.191 -172.852 463.867 -160.156 456.055 c 1
-134.766 421.875 m 1
 -147.461 430.664 -162.109 438.477 -178.711 444.824 c 0
 -194.824 451.66 -211.426 457.52 -229.004 461.914 c 0
 -239.746 465.332 -251.465 467.773 -264.648 470.215 c 0
 -277.344 472.168 -290.527 473.145 -304.199 473.145 c 0
 -309.57 473.145 -315.43 473.145 -323.242 473.145 c 0
 -330.566 473.145 -336.426 472.656 -341.797 472.168 c 0
 -363.281 472.168 -378.906 475.098 -388.184 481.934 c 0
 -391.113 484.863 -394.043 488.281 -396.484 493.164 c 0
 -398.926 497.559 -399.902 501.465 -399.902 504.883 c 0
 -399.902 516.113 -395.508 527.344 -386.23 538.574 c 0
 -376.465 549.316 -367.676 557.617 -358.887 562.988 c 0
 -340.332 574.219 -317.383 580.078 -290.039 580.078 c 0
 -272.461 580.078 -254.883 576.172 -236.328 567.871 c 0
 -218.262 560.059 -201.66 548.828 -186.523 535.156 c 0
 -171.387 520.996 -159.18 504.395 -149.414 484.863 c 0
 -139.648 465.82 -134.766 444.824 -134.766 421.875 c 1
EndSplineSet
EndChar
StartChar: uni0E35.left
Encoding: 130 -1 97
OldEncoding: 63234
Width: 0
Flags: HW
HStem: 422 21 595 20<-189 -150 -150 -150>
VStem: -189 39<537 615>
Fore
-150 615 m 1
 -150 486 l 1
 -140 466 -135 445 -135 422 c 1
 -160 439 -194 453 -229 462 c 1
 -250 469 -277 473 -304 473 c 2
 -323 473 l 2
 -330 473 -337 473 -342 472 c 0
 -363 472 -379 475 -388 482 c 0
 -395 487 -400 498 -400 505 c 0
 -400 528 -376 552 -359 563 c 0
 -340 574 -317 580 -290 580 c 0
 -255 580 -220 564 -189 537 c 1
 -189 615 l 1
 -150 615 l 1
-160 456 m 1
 -171 488 -227 545 -285 545 c 0
 -310 545 -346 539 -346 515 c 0
 -346 500 -324 499 -307 499 c 0
 -280 499 -264 496 -241 491 c 0
 -210 484 -185 472 -160 456 c 1
EndSplineSet
MinimumDistance: x14,-1 
Back
-149.902 615.234 m 1
 -188.965 615.234 l 1
 -188.965 537.109 l 1
 -204.102 550.293 -220.703 561.035 -237.793 568.359 c 0
 -255.371 576.172 -272.461 580.078 -290.039 580.078 c 0
 -317.383 580.078 -340.332 574.219 -358.887 562.988 c 0
 -367.676 557.617 -376.465 549.316 -386.23 538.574 c 0
 -395.508 527.344 -399.902 516.113 -399.902 504.883 c 0
 -399.902 501.465 -398.926 497.559 -396.484 493.164 c 0
 -394.043 488.281 -391.113 484.863 -388.184 481.934 c 0
 -378.906 475.098 -363.281 472.168 -341.797 472.168 c 0
 -336.426 472.656 -330.566 473.145 -323.242 473.145 c 0
 -315.43 473.145 -309.57 473.145 -304.199 473.145 c 0
 -290.527 473.145 -277.344 472.168 -264.648 470.215 c 0
 -251.465 467.773 -239.746 465.332 -229.004 461.914 c 0
 -211.426 457.52 -194.824 451.66 -178.711 444.824 c 0
 -162.109 438.477 -147.461 430.664 -134.766 421.875 c 1
 -134.766 444.824 -140.137 465.82 -149.902 485.84 c 1
 -149.902 615.234 l 1
-160.156 456.055 m 1
 -172.852 463.867 -185.547 471.191 -198.73 477.051 c 0
 -211.426 482.91 -225.586 487.793 -241.211 491.211 c 0
 -252.441 493.652 -262.695 495.605 -272.461 497.07 c 0
 -282.227 498.535 -293.457 499.023 -307.129 499.023 c 0
 -315.43 499.023 -324.219 500 -333.008 501.465 c 0
 -341.797 502.93 -346.191 507.812 -346.191 515.137 c 0
 -346.191 520.996 -344.238 525.879 -339.844 529.785 c 0
 -335.938 534.18 -331.055 537.109 -325.195 539.062 c 0
 -318.848 541.016 -312.5 542.48 -305.176 543.457 c 0
 -297.852 544.434 -291.016 544.922 -285.156 544.922 c 0
 -270.508 544.922 -256.348 541.992 -242.676 535.645 c 0
 -229.004 529.297 -216.309 521.484 -204.59 512.695 c 0
 -192.871 503.418 -183.105 493.652 -175.293 483.398 c 0
 -167.969 473.145 -162.598 463.867 -160.156 456.055 c 1
EndSplineSet
EndChar
StartChar: uni0E36.left
Encoding: 131 -1 98
OldEncoding: 63235
Width: 0
Flags: HW
HStem: 422 21 595 20<-203.5 -174.5>
Fore
-135 422 m 1
 -160 439 -194 453 -229 462 c 1
 -250 469 -277 473 -304 473 c 2
 -323 473 l 2
 -330 473 -337 473 -342 472 c 0
 -363 472 -379 475 -388 482 c 0
 -395 487 -400 498 -400 505 c 0
 -400 528 -376 552 -359 563 c 0
 -340 574 -317 580 -290 580 c 0
 -275 580 -259 577 -244 571 c 1
 -239 596 -217 615 -190 615 c 0
 -159 615 -135 591 -135 560 c 0
 -135 539 -146 520 -165 511 c 1
 -145 485 -135 455 -135 422 c 1
-160 456 m 1
 -171 488 -227 545 -285 545 c 0
 -310 545 -346 539 -346 515 c 0
 -346 500 -324 499 -307 499 c 0
 -280 499 -264 496 -241 491 c 0
 -210 484 -185 472 -160 456 c 1
-220 560 m 0
 -220 543 -207 530 -190 530 c 0
 -173 530 -160 543 -160 560 c 0
 -160 577 -173 590 -190 590 c 0
 -207 590 -220 577 -220 560 c 0
EndSplineSet
MinimumDistance: x0,-1 
Back
-134.766 421.875 m 1
 -134.766 455.566 -145.02 484.863 -165.039 511.23 c 1
 -155.762 515.625 -148.438 522.461 -143.066 530.762 c 0
 -137.695 539.551 -134.766 549.316 -134.766 560.059 c 0
 -134.766 575.195 -140.137 588.379 -150.879 599.121 c 0
 -161.621 609.863 -174.805 615.234 -189.941 615.234 c 0
 -203.125 615.234 -214.844 610.84 -225.098 602.539 c 0
 -234.863 594.238 -241.211 583.496 -244.141 570.801 c 1
 -259.277 577.148 -274.902 580.078 -290.039 580.078 c 0
 -317.383 580.078 -340.332 574.219 -358.887 562.988 c 0
 -367.676 557.617 -376.465 549.316 -386.23 538.574 c 0
 -395.508 527.344 -399.902 516.113 -399.902 504.883 c 0
 -399.902 501.465 -398.926 497.559 -396.484 493.164 c 0
 -394.043 488.281 -391.113 484.863 -388.184 481.934 c 0
 -378.906 475.098 -363.281 472.168 -341.797 472.168 c 0
 -336.426 472.656 -330.566 473.145 -323.242 473.145 c 0
 -315.43 473.145 -309.57 473.145 -304.199 473.145 c 0
 -290.527 473.145 -277.344 472.168 -264.648 470.215 c 0
 -251.465 467.773 -239.746 465.332 -229.004 461.914 c 0
 -211.426 457.52 -194.824 451.66 -178.711 444.824 c 0
 -162.109 438.477 -147.461 430.664 -134.766 421.875 c 1
-160.156 456.055 m 1
 -172.852 463.867 -185.547 471.191 -198.73 477.051 c 0
 -211.426 482.91 -225.586 487.793 -241.211 491.211 c 0
 -252.441 493.652 -262.695 495.605 -272.461 497.07 c 0
 -282.227 498.535 -293.457 499.023 -307.129 499.023 c 0
 -315.43 499.023 -324.219 500 -333.008 501.465 c 0
 -341.797 502.93 -346.191 507.812 -346.191 515.137 c 0
 -346.191 520.996 -344.238 525.879 -339.844 529.785 c 0
 -335.938 534.18 -331.055 537.109 -325.195 539.062 c 0
 -318.848 541.016 -312.5 542.48 -305.176 543.457 c 0
 -297.852 544.434 -291.016 544.922 -285.156 544.922 c 0
 -270.508 544.922 -256.348 541.992 -242.676 535.645 c 0
 -229.004 529.297 -216.309 521.484 -204.59 512.695 c 0
 -192.871 503.418 -183.105 493.652 -175.293 483.398 c 0
 -167.969 473.145 -162.598 463.867 -160.156 456.055 c 1
-220.215 560.059 m 0
 -220.215 568.848 -217.285 575.684 -211.426 581.543 c 0
 -206.055 587.402 -198.73 589.844 -189.941 589.844 c 0
 -181.152 589.844 -174.316 587.402 -168.457 581.543 c 0
 -162.598 575.684 -160.156 568.848 -160.156 560.059 c 0
 -160.156 551.27 -162.598 543.945 -168.457 538.574 c 0
 -174.316 532.715 -181.152 529.785 -189.941 529.785 c 0
 -198.73 529.785 -206.055 532.715 -211.426 538.574 c 0
 -217.285 543.945 -220.215 551.27 -220.215 560.059 c 0
EndSplineSet
EndChar
StartChar: uni0E37.left
Encoding: 132 -1 99
OldEncoding: 63236
Width: 0
Flags: HW
HStem: 422 21 595 20<-245 -210 -210 -210 -185 -150 -150 -150>
VStem: -185 35<534 615>
Fore
-150 615 m 1
 -150 486 l 1
 -140 466 -135 445 -135 422 c 1
 -160 439 -194 453 -229 462 c 1
 -250 469 -277 473 -304 473 c 2
 -323 473 l 2
 -330 473 -337 473 -342 472 c 0
 -363 472 -379 475 -388 482 c 0
 -395 487 -400 498 -400 505 c 0
 -400 528 -376 552 -359 563 c 0
 -340 574 -317 580 -290 580 c 0
 -275 580 -260 577 -245 571 c 1
 -245 615 l 1
 -210 615 l 1
 -210 553 l 1
 -201 547 -192 541 -185 534 c 1
 -185 615 l 1
 -150 615 l 1
-160 456 m 1
 -171 488 -227 545 -285 545 c 0
 -310 545 -346 539 -346 515 c 0
 -346 500 -324 499 -307 499 c 0
 -280 499 -264 496 -241 491 c 0
 -210 484 -185 472 -160 456 c 1
EndSplineSet
MinimumDistance: x14,-1 
Back
-149.902 615.234 m 1
 -185.059 615.234 l 1
 -185.059 534.18 l 1
 -192.383 540.527 -200.684 546.875 -209.961 553.223 c 1
 -209.961 615.234 l 1
 -245.117 615.234 l 1
 -245.117 570.801 l 1
 -260.254 577.148 -275.391 580.078 -290.039 580.078 c 0
 -317.383 580.078 -340.332 574.219 -358.887 562.988 c 0
 -367.676 557.617 -376.465 549.316 -386.23 538.574 c 0
 -395.508 527.344 -399.902 516.113 -399.902 504.883 c 0
 -399.902 501.465 -398.926 497.559 -396.484 493.164 c 0
 -394.043 488.281 -391.113 484.863 -388.184 481.934 c 0
 -378.906 475.098 -363.281 472.168 -341.797 472.168 c 0
 -336.426 472.656 -330.566 473.145 -323.242 473.145 c 0
 -315.43 473.145 -309.57 473.145 -304.199 473.145 c 0
 -290.527 473.145 -277.344 472.168 -264.648 470.215 c 0
 -251.465 467.773 -239.746 465.332 -229.004 461.914 c 0
 -211.426 457.52 -194.824 451.66 -178.711 444.824 c 0
 -162.109 438.477 -147.461 430.664 -134.766 421.875 c 1
 -134.766 444.824 -140.137 465.82 -149.902 485.84 c 1
 -149.902 615.234 l 1
-160.156 456.055 m 1
 -172.852 463.867 -185.547 471.191 -198.73 477.051 c 0
 -211.426 482.91 -225.586 487.793 -241.211 491.211 c 0
 -252.441 493.652 -262.695 495.605 -272.461 497.07 c 0
 -282.227 498.535 -293.457 499.023 -307.129 499.023 c 0
 -315.43 499.023 -324.219 500 -333.008 501.465 c 0
 -341.797 502.93 -346.191 507.812 -346.191 515.137 c 0
 -346.191 520.996 -344.238 525.879 -339.844 529.785 c 0
 -335.938 534.18 -331.055 537.109 -325.195 539.062 c 0
 -318.848 541.016 -312.5 542.48 -305.176 543.457 c 0
 -297.852 544.434 -291.016 544.922 -285.156 544.922 c 0
 -270.508 544.922 -256.348 541.992 -242.676 535.645 c 0
 -229.004 529.297 -216.309 521.484 -204.59 512.695 c 0
 -192.871 503.418 -183.105 493.652 -175.293 483.398 c 0
 -167.969 473.145 -162.598 463.867 -160.156 456.055 c 1
EndSplineSet
EndChar
StartChar: ellipsis
Encoding: 133 8230 100
OldEncoding: 8230
Width: 531
Flags: HW
HStem: -7 77<97 123 251.5 263 404.5 416>
VStem: 71 78<17.5 43.5>
Fore
455 30 m 0
 455 8 442 -4 416 -7 c 1
 393 -7 380 5 377 30 c 1
 377 57 390 70 416 70 c 0
 427 70 436 66 444 58 c 0
 450 51 454 41 455 30 c 0
302 30 m 0
 302 8 289 -4 263 -7 c 1
 240 -7 227 5 224 30 c 1
 224 57 237 70 263 70 c 0
 274 70 283 66 291 58 c 0
 297 51 301 41 302 30 c 0
149 30 m 0
 149 5 136 -7 110 -7 c 0
 84 -7 71 5 71 30 c 0
 71 57 84 70 110 70 c 0
 136 70 149 57 149 30 c 0
EndSplineSet
MinimumDistance: x6,-1 
Back
455.078 29.7852 m 0
 455.078 7.8125 441.895 -4.39453 416.016 -6.83594 c 1
 392.578 -6.83594 379.883 5.37109 376.953 29.7852 c 1
 376.953 56.6406 390.137 69.8242 416.016 69.8242 c 0
 426.758 69.8242 436.035 65.918 443.848 58.1055 c 0
 450.195 50.7812 453.613 41.5039 455.078 29.7852 c 0
301.758 29.7852 m 0
 301.758 7.8125 289.062 -4.39453 263.184 -6.83594 c 1
 239.746 -6.83594 226.562 5.37109 224.121 29.7852 c 1
 224.121 56.6406 236.816 69.8242 263.184 69.8242 c 0
 273.438 69.8242 283.203 65.918 291.016 58.1055 c 0
 296.875 50.7812 300.781 41.5039 301.758 29.7852 c 0
148.926 29.7852 m 0
 148.926 5.37109 136.23 -6.83594 109.863 -6.83594 c 0
 83.9844 -6.83594 70.8008 5.37109 70.8008 29.7852 c 0
 70.8008 56.6406 83.9844 69.8242 109.863 69.8242 c 0
 136.23 69.8242 148.926 56.6406 148.926 29.7852 c 0
EndSplineSet
EndChar
StartChar: uni0E48.low_left
Encoding: 134 -1 101
OldEncoding: 63237
Width: 0
Flags: HW
HStem: 445 21<-192 -186> 577 20<-213 -163 -213 -213>
Fore
-163 597 m 1
 -167 537 l 1
 -178 454 l 1
 -179 448 -183 445 -189 445 c 0
 -195 445 -199 448 -200 454 c 1
 -210 537 l 1
 -213 597 l 1
 -163 597 l 1
EndSplineSet
Back
-163.086 597.168 m 1
 -166.992 537.109 l 1
 -178.223 454.102 l 1
 -179.199 448.242 -183.105 444.824 -188.965 444.824 c 0
 -194.824 444.824 -198.73 448.242 -200.195 454.102 c 1
 -209.961 537.109 l 1
 -212.891 597.168 l 1
 -163.086 597.168 l 1
EndSplineSet
EndChar
StartChar: uni0E49.low_left
Encoding: 135 -1 102
OldEncoding: 63238
Width: 0
Flags: HW
HStem: 445 23<-305 -303 -303 -285.5> 445 158<-323.5 -303 -303 -299>
VStem: -353 84<532 563.5>
Fore
-145 603 m 1
 -145 552 -163 513 -198 484 c 0
 -229 460 -260 445 -303 445 c 2
 -357 445 l 1
 -357 463 l 1
 -334 465 -317 476 -304 497 c 1
 -311 496 l 2
 -339 496 -353 514 -353 550 c 0
 -353 577 -336 603 -311 603 c 0
 -287 603 -269 578 -269 551 c 0
 -269 513 -281 485 -305 468 c 1
 -266 468 -238 481 -220 508 c 0
 -203 532 -193 563 -193 603 c 1
 -145 603 l 1
-289 550 m 0
 -289 569 -296 583 -311 583 c 0
 -326 583 -334 572 -334 550 c 0
 -334 527 -326 515 -311 515 c 0
 -296 515 -289 527 -289 550 c 0
EndSplineSet
MinimumDistance: x8,-1 
Back
-145.02 603.027 m 1
 -145.02 552.246 -162.598 512.695 -198.242 483.887 c 0
 -213.379 472.168 -229.492 462.402 -246.094 455.566 c 0
 -262.695 448.73 -281.738 444.824 -303.223 444.824 c 2
 -356.934 444.824 l 1
 -356.934 462.891 l 1
 -334.473 464.844 -316.895 476.562 -304.199 497.07 c 1
 -311.035 496.094 l 2
 -338.867 496.094 -353.027 514.16 -353.027 549.805 c 0
 -353.027 563.477 -349.121 575.684 -341.309 586.426 c 0
 -333.984 597.656 -323.73 603.027 -311.035 603.027 c 0
 -298.828 603.027 -289.062 597.656 -280.762 586.914 c 0
 -272.949 576.172 -269.043 564.453 -269.043 550.781 c 0
 -269.043 513.184 -280.762 485.352 -305.176 467.773 c 1
 -266.113 467.773 -237.793 481.445 -220.215 507.812 c 0
 -211.426 520.02 -204.59 533.691 -200.195 549.316 c 0
 -195.312 564.941 -192.871 583.008 -192.871 603.027 c 1
 -145.02 603.027 l 1
-289.062 549.805 m 0
 -289.062 559.57 -291.016 567.383 -294.434 573.73 c 0
 -298.34 579.59 -303.711 583.008 -311.035 583.008 c 0
 -326.172 583.008 -333.984 571.777 -333.984 549.805 c 0
 -333.984 526.855 -326.172 515.137 -311.035 515.137 c 0
 -296.387 515.137 -289.062 526.855 -289.062 549.805 c 0
EndSplineSet
EndChar
StartChar: uni0E4A.low_left
Encoding: 136 -1 103
OldEncoding: 63239
Width: 0
Flags: HW
HStem: 443 136<-266.5 -240.5> 445 134<-348.5 -345> 557 22<-335.5 -323.5 -265.5 -247.5> 562 20<-183 -183>
VStem: -317 88<506.5 511.5> -229 25<507.5 531.5> -204 21<524 539.5> -183 42<535.5 545 545 562>
Fore
-141 582 m 1
 -141 489 -185 443 -272 443 c 1
 -272 463 l 1
 -249 468 -229 494 -229 519 c 0
 -229 544 -238 557 -257 557 c 0
 -274 557 -283 543 -283 514 c 1
 -302 514 l 1
 -302 543 -312 557 -332 557 c 0
 -339 557 -345 554 -351 548 c 1
 -328 548 -317 526 -317 497 c 0
 -317 462 -331 445 -359 445 c 0
 -382 445 -401 472 -401 497 c 0
 -401 512 -398 526 -392 539 c 0
 -381 559 -365 579 -332 579 c 0
 -315 579 -302 570 -293 551 c 1
 -289 567 -274 579 -259 579 c 0
 -222 579 -204 559 -204 520 c 0
 -204 495 -212 477 -229 464 c 1
 -198 476 -183 503 -183 545 c 2
 -183 562 l 1
 -185 582 l 1
 -141 582 l 1
-335 497 m 0
 -335 518 -343 532 -359 532 c 0
 -374 532 -382 514 -382 497 c 0
 -382 477 -374 462 -359 462 c 0
 -343 462 -335 474 -335 497 c 0
EndSplineSet
MinimumDistance: x9,-1 
Back
-141.113 582.031 m 1
 -141.113 489.258 -184.57 442.871 -271.973 442.871 c 1
 -271.973 462.891 l 1
 -260.742 465.82 -250.488 472.656 -242.188 483.398 c 0
 -233.398 494.629 -229.004 506.348 -229.004 519.043 c 0
 -229.004 544.434 -238.281 557.129 -256.836 557.129 c 0
 -274.414 557.129 -283.203 542.48 -283.203 514.16 c 1
 -301.758 514.16 l 1
 -301.758 542.48 -312.012 557.129 -332.031 557.129 c 0
 -338.867 557.129 -345.215 554.199 -351.074 547.852 c 1
 -339.844 547.852 -331.055 542.969 -325.684 533.691 c 0
 -319.824 523.926 -316.895 511.719 -316.895 497.07 c 0
 -316.895 462.402 -331.055 444.824 -358.887 444.824 c 0
 -370.117 444.824 -380.371 450.684 -388.672 461.426 c 0
 -396.973 472.656 -400.879 484.375 -400.879 497.07 c 0
 -400.879 512.207 -397.949 526.367 -392.09 539.062 c 0
 -386.719 548.828 -379.395 558.105 -370.605 566.406 c 0
 -361.328 574.707 -348.633 579.102 -332.031 579.102 c 0
 -314.453 579.102 -301.758 569.824 -292.969 550.781 c 1
 -291.016 559.082 -286.621 565.43 -279.785 570.801 c 0
 -273.438 576.172 -266.113 579.102 -258.789 579.102 c 0
 -222.168 579.102 -204.102 559.57 -204.102 520.02 c 0
 -204.102 495.117 -212.402 476.562 -229.004 463.867 c 1
 -198.242 476.074 -183.105 502.93 -183.105 544.922 c 2
 -183.105 562.012 l 1
 -185.059 582.031 l 1
 -141.113 582.031 l 1
-334.961 497.07 m 0
 -334.961 507.812 -336.914 516.113 -340.82 522.461 c 0
 -345.215 528.809 -351.074 532.227 -358.887 532.227 c 0
 -366.211 532.227 -372.07 528.32 -375.977 520.996 c 0
 -379.883 513.672 -381.836 505.859 -381.836 497.07 c 0
 -381.836 486.816 -379.883 478.516 -375.977 472.168 c 0
 -372.07 465.332 -366.211 461.914 -358.887 461.914 c 0
 -342.773 461.914 -334.961 473.633 -334.961 497.07 c 0
EndSplineSet
EndChar
StartChar: uni0E4B.low_left
Encoding: 137 -1 104
OldEncoding: 63240
Width: 0
Flags: HW
HStem: 445 21<-259 -216 -259 -259> 508 32<-322 -263 -212 -153> 583 20<-266 -209 -209 -209>
Fore
-266 603 m 1
 -209 603 l 1
 -212 540 l 1
 -153 540 l 1
 -153 508 l 1
 -213 508 l 1
 -216 445 l 1
 -259 445 l 1
 -262 508 l 1
 -322 508 l 1
 -322 540 l 1
 -263 540 l 1
 -266 603 l 1
EndSplineSet
Back
-266.113 603.027 m 1
 -263.184 540.039 l 1
 -321.777 540.039 l 1
 -321.777 507.812 l 1
 -262.207 507.812 l 1
 -258.789 444.824 l 1
 -215.82 444.824 l 1
 -212.891 507.812 l 1
 -152.832 507.812 l 1
 -152.832 540.039 l 1
 -211.914 540.039 l 1
 -208.984 603.027 l 1
 -266.113 603.027 l 1
EndSplineSet
EndChar
StartChar: uni0E4C.low_left
Encoding: 138 -1 105
OldEncoding: 63241
Width: 0
Flags: HW
HStem: 445 21<-242.5 -210.5> 640 20<-103 -103>
VStem: -287 40<494 519> -287 112<490 522.5>
Fore
-198 507 m 1
 -198 507 -199 520 -202 529 c 1
 -207 538 -214 543 -223 543 c 0
 -236 543 -247 531 -247 507 c 0
 -247 481 -239 468 -223 468 c 0
 -218 468 -210 472 -203 479 c 1
 -199 487 -198 499 -198 507 c 1
-210 564 m 1
 -187 558 -175 539 -175 506 c 0
 -175 474 -196 445 -225 445 c 0
 -260 445 -287 472 -287 507 c 0
 -287 554 -254 582 -189 601 c 0
 -154 612 -139 622 -146 650 c 1
 -103 660 l 1
 -102 657 -102 652 -102 645 c 0
 -102 624 -113 608 -150 595 c 0
 -173 587 -199 575 -210 564 c 1
EndSplineSet
MinimumDistance: x7,-1 
Back
-198.242 506.836 m 1
 -198.242 506.836 -198.242 509.277 -199.219 514.648 c 0
 -199.707 519.531 -200.684 524.414 -202.148 528.809 c 0
 -207.52 538.574 -214.355 542.969 -223.145 542.969 c 0
 -229.492 542.969 -235.352 540.039 -240.234 534.18 c 0
 -244.629 527.832 -247.07 519.043 -247.07 506.836 c 0
 -247.07 480.957 -238.77 467.773 -223.145 467.773 c 0
 -220.215 467.773 -217.285 469.238 -213.379 471.191 c 0
 -209.961 473.145 -206.543 475.586 -203.125 479.004 c 0
 -201.172 482.91 -199.707 487.793 -199.219 493.164 c 0
 -198.242 498.535 -198.242 502.93 -198.242 506.836 c 1
-209.961 563.965 m 1
 -186.523 558.105 -174.805 538.574 -174.805 505.859 c 0
 -174.805 490.234 -179.688 476.074 -188.965 463.379 c 0
 -198.242 451.172 -210.449 444.824 -225.098 444.824 c 0
 -242.188 444.824 -256.836 451.172 -269.043 462.891 c 0
 -280.762 475.098 -287.109 489.746 -287.109 506.836 c 0
 -287.109 530.273 -278.809 549.316 -262.695 564.453 c 0
 -246.094 579.59 -221.68 591.797 -188.965 601.074 c 0
 -171.875 606.445 -159.18 612.305 -151.855 619.141 c 0
 -144.531 625.488 -142.578 636.23 -145.996 649.902 c 1
 -103.027 660.156 l 1
 -102.539 656.738 -102.051 651.855 -102.051 645.02 c 0
 -102.051 634.277 -105.469 625 -111.816 617.188 c 0
 -118.652 608.887 -131.348 601.562 -149.902 595.215 c 0
 -161.133 590.82 -172.852 585.938 -184.57 580.566 c 0
 -196.289 574.707 -204.59 569.336 -209.961 563.965 c 1
EndSplineSet
EndChar
StartChar: uni0E48.low
Encoding: 139 -1 106
OldEncoding: 63242
Width: 0
Flags: HW
HStem: 445 21<-112 -106> 577 20<-133 -83 -133 -133>
Fore
-83 597 m 1
 -87 537 l 1
 -98 454 l 1
 -99 448 -103 445 -109 445 c 0
 -115 445 -119 448 -120 454 c 1
 -130 537 l 1
 -133 597 l 1
 -83 597 l 1
EndSplineSet
Back
-83.0078 597.168 m 1
 -86.9141 537.109 l 1
 -98.1445 454.102 l 1
 -99.1211 448.242 -103.027 444.824 -108.887 444.824 c 0
 -115.234 444.824 -118.652 448.242 -120.117 454.102 c 1
 -129.883 537.109 l 1
 -132.812 597.168 l 1
 -83.0078 597.168 l 1
EndSplineSet
EndChar
StartChar: uni0E49.low
Encoding: 140 -1 107
OldEncoding: 63243
Width: 0
Flags: HW
HStem: 445 23<-197 -195 -195 -177.5> 445 158<-215.5 -195 -195 -191>
VStem: -245 84<532 563.5>
Fore
-37 603 m 1
 -37 552 -55 513 -90 484 c 0
 -121 460 -152 445 -195 445 c 2
 -249 445 l 1
 -249 463 l 1
 -226 465 -209 476 -196 497 c 1
 -203 496 l 2
 -231 496 -245 514 -245 550 c 0
 -245 577 -228 603 -203 603 c 0
 -179 603 -161 578 -161 551 c 0
 -161 513 -173 485 -197 468 c 1
 -158 468 -130 481 -112 508 c 0
 -95 532 -85 563 -85 603 c 1
 -37 603 l 1
-181 550 m 0
 -181 569 -188 583 -203 583 c 0
 -218 583 -226 572 -226 550 c 0
 -226 527 -218 515 -203 515 c 0
 -188 515 -181 527 -181 550 c 0
EndSplineSet
MinimumDistance: x8,-1 
Back
-37.1094 603.027 m 1
 -37.1094 552.246 -54.6875 512.695 -89.8438 483.887 c 0
 -105.469 472.168 -121.094 462.402 -138.184 455.566 c 0
 -154.785 448.73 -173.828 444.824 -194.824 444.824 c 2
 -249.023 444.824 l 1
 -249.023 462.891 l 1
 -226.562 464.844 -208.496 476.562 -195.801 497.07 c 1
 -203.125 496.094 l 2
 -230.957 496.094 -245.117 514.16 -245.117 549.805 c 0
 -245.117 563.477 -241.211 575.684 -233.398 586.426 c 0
 -226.074 597.656 -215.82 603.027 -203.125 603.027 c 0
 -190.918 603.027 -181.152 597.656 -172.852 586.914 c 0
 -165.039 576.172 -161.133 564.453 -161.133 550.781 c 0
 -161.133 513.184 -172.852 485.352 -196.777 467.773 c 1
 -158.203 467.773 -129.883 481.445 -111.816 507.812 c 0
 -103.516 520.02 -96.6797 533.691 -91.7969 549.316 c 0
 -87.4023 564.941 -84.9609 583.008 -84.9609 603.027 c 1
 -37.1094 603.027 l 1
-181.152 549.805 m 0
 -181.152 559.57 -182.617 567.383 -186.523 573.73 c 0
 -189.941 579.59 -195.801 583.008 -203.125 583.008 c 0
 -218.262 583.008 -226.074 571.777 -226.074 549.805 c 0
 -226.074 526.855 -218.262 515.137 -203.125 515.137 c 0
 -188.477 515.137 -181.152 526.855 -181.152 549.805 c 0
EndSplineSet
EndChar
StartChar: uni0E4A.low
Encoding: 141 -1 108
OldEncoding: 63244
Width: 0
Flags: HW
HStem: 443 136<-156.5 -128.5> 557 22<-153.5 -135.5> 562 20<-71 -71>
VStem: -205 88<506.5 511.5> -117 25<507.5 531.5> -92 21<524 539.5> -71 42<535.5 545 545 562>
Fore
-29 582 m 1
 -29 489 -73 443 -160 443 c 1
 -160 463 l 1
 -137 468 -117 494 -117 519 c 0
 -117 544 -126 557 -145 557 c 0
 -162 557 -171 543 -171 514 c 1
 -190 514 l 1
 -190 543 -200 557 -220 557 c 0
 -227 557 -233 554 -239 548 c 1
 -216 548 -205 526 -205 497 c 0
 -205 462 -219 445 -247 445 c 0
 -270 445 -289 472 -289 497 c 0
 -289 512 -287 526 -280 539 c 0
 -269 562 -253 580 -220 580 c 0
 -203 580 -190 570 -181 551 c 1
 -177 567 -166 579 -147 579 c 0
 -110 579 -92 559 -92 520 c 0
 -92 495 -100 477 -117 464 c 1
 -86 476 -71 503 -71 545 c 2
 -71 562 l 1
 -73 582 l 1
 -29 582 l 1
-223 497 m 0
 -223 518 -231 532 -247 532 c 0
 -262 532 -270 514 -270 497 c 0
 -270 477 -262 462 -247 462 c 0
 -231 462 -223 474 -223 497 c 0
EndSplineSet
MinimumDistance: x9,-1 
Back
-28.8086 582.031 m 1
 -28.8086 489.258 -72.7539 442.871 -160.156 442.871 c 1
 -160.156 462.891 l 1
 -148.438 465.82 -138.672 472.656 -129.883 483.398 c 0
 -121.094 494.629 -117.188 506.348 -117.188 519.043 c 0
 -117.188 544.434 -126.465 557.129 -145.02 557.129 c 0
 -162.109 557.129 -170.898 542.48 -170.898 514.16 c 1
 -189.941 514.16 l 1
 -189.941 542.48 -200.195 557.129 -220.215 557.129 c 0
 -226.562 557.129 -232.91 554.199 -238.77 547.852 c 1
 -227.539 547.852 -219.238 542.969 -213.379 533.691 c 0
 -208.008 523.926 -205.078 511.719 -205.078 497.07 c 0
 -205.078 462.402 -219.238 444.824 -247.07 444.824 c 0
 -258.301 444.824 -268.066 450.684 -276.367 461.426 c 0
 -284.668 472.656 -289.062 484.375 -289.062 497.07 c 0
 -289.062 504.395 -288.574 511.719 -287.109 518.555 c 0
 -285.645 525.391 -283.203 532.227 -279.785 539.062 c 0
 -274.902 550.293 -267.578 560.059 -258.301 567.871 c 0
 -249.512 576.172 -236.816 580.078 -220.215 580.078 c 0
 -203.125 580.078 -190.43 570.312 -181.152 550.781 c 1
 -179.199 559.082 -175.293 565.43 -169.434 570.801 c 0
 -164.062 576.172 -156.25 579.102 -146.973 579.102 c 0
 -110.352 579.102 -91.7969 559.57 -91.7969 520.02 c 0
 -91.7969 495.117 -100.098 476.562 -117.188 463.867 c 1
 -86.4258 476.074 -70.8008 502.93 -70.8008 544.922 c 2
 -70.8008 562.012 l 1
 -73.2422 582.031 l 1
 -28.8086 582.031 l 1
-223.145 497.07 m 0
 -223.145 507.812 -225.098 516.113 -229.004 522.461 c 0
 -232.91 528.809 -238.77 532.227 -247.07 532.227 c 0
 -254.395 532.227 -259.766 528.32 -264.16 520.996 c 0
 -268.066 513.672 -270.02 505.859 -270.02 497.07 c 0
 -270.02 486.816 -268.066 478.516 -264.16 472.168 c 0
 -259.766 465.332 -254.395 461.914 -247.07 461.914 c 0
 -230.957 461.914 -223.145 473.633 -223.145 497.07 c 0
EndSplineSet
EndChar
StartChar: uni0E4B.low
Encoding: 142 -1 109
OldEncoding: 63245
Width: 0
Flags: HW
HStem: 485 21<-157 -114 -157 -157> 548 32<-220 -161 -110 -51> 623 20<-164 -107 -107 -107>
Fore
-164 643 m 1
 -107 643 l 1
 -110 580 l 1
 -51 580 l 1
 -51 548 l 1
 -111 548 l 1
 -114 485 l 1
 -157 485 l 1
 -160 548 l 1
 -220 548 l 1
 -220 580 l 1
 -161 580 l 1
 -164 643 l 1
EndSplineSet
Back
-164.062 643.066 m 1
 -161.133 580.078 l 1
 -220.215 580.078 l 1
 -220.215 547.852 l 1
 -160.156 547.852 l 1
 -157.227 484.863 l 1
 -113.77 484.863 l 1
 -110.84 547.852 l 1
 -50.7812 547.852 l 1
 -50.7812 580.078 l 1
 -109.863 580.078 l 1
 -106.934 643.066 l 1
 -164.062 643.066 l 1
EndSplineSet
EndChar
StartChar: uni0E4C.low
Encoding: 143 -1 110
OldEncoding: 63246
Width: 0
Flags: HW
HStem: 445 21<-220.5 -184.5> 662 20<-66 -66>
VStem: -269 43<499 526.5> -269 124<494.5 530.5>
Fore
-171 513 m 1
 -171 513 -172 528 -176 537 c 0
 -182 548 -190 553 -199 553 c 0
 -214 553 -226 540 -226 513 c 0
 -226 485 -217 471 -199 471 c 0
 -192 471 -184 475 -177 483 c 1
 -172 491 -171 505 -171 513 c 1
-184 576 m 1
 -158 570 -145 549 -145 512 c 0
 -145 477 -168 445 -201 445 c 0
 -240 445 -269 474 -269 513 c 0
 -269 564 -233 599 -161 618 c 0
 -122 629 -106 640 -114 671 c 1
 -66 682 l 1
 -65 679 -65 677 -65 674 c 2
 -65 666 l 2
 -65 643 -76 625 -119 610 c 0
 -143 602 -172 588 -184 576 c 1
EndSplineSet
MinimumDistance: x8,-1 
Back
-170.898 513.184 m 1
 -170.898 513.184 -171.387 515.625 -171.875 521.484 c 0
 -172.852 527.344 -173.828 532.227 -175.781 537.109 c 0
 -182.129 547.852 -189.453 553.223 -199.219 553.223 c 0
 -206.543 553.223 -212.891 549.805 -217.773 542.969 c 0
 -223.145 536.133 -226.074 526.367 -226.074 513.184 c 0
 -226.074 484.863 -216.797 471.191 -199.219 471.191 c 0
 -195.801 471.191 -191.895 472.168 -187.988 474.121 c 0
 -184.082 476.074 -180.176 479.004 -176.758 482.91 c 0
 -174.316 486.816 -172.852 492.188 -171.875 498.047 c 0
 -171.387 503.906 -170.898 508.789 -170.898 513.184 c 1
-184.082 576.172 m 1
 -158.203 569.824 -145.02 548.828 -145.02 512.207 c 0
 -145.02 494.629 -150.391 479.004 -160.645 465.332 c 0
 -170.898 451.66 -184.57 444.824 -201.172 444.824 c 0
 -220.215 444.824 -236.328 451.66 -249.512 464.355 c 0
 -262.695 477.539 -269.043 493.652 -269.043 513.184 c 0
 -269.043 564.453 -232.91 599.121 -161.133 618.164 c 0
 -141.602 623.535 -127.93 629.883 -120.117 637.207 c 0
 -111.816 644.531 -109.863 655.762 -113.77 670.898 c 1
 -65.918 682.129 l 1
 -65.4297 679.199 -64.9414 676.758 -64.9414 673.828 c 0
 -64.9414 671.387 -64.9414 668.457 -64.9414 666.016 c 0
 -64.9414 654.785 -68.8477 644.531 -76.1719 634.766 c 0
 -83.4961 625.488 -97.6562 617.188 -119.141 609.863 c 0
 -130.859 605.957 -143.555 601.074 -155.762 594.727 c 0
 -168.457 588.379 -178.223 582.031 -184.082 576.172 c 1
EndSplineSet
EndChar
StartChar: uni0E0D.descless
Encoding: 144 -1 111
OldEncoding: 63247
Width: 545
Flags: HW
HStem: -6 21<96.5 137.5> 0 21<274 431 431 445.5> 352 33<160.5 203> 378 21<423 475 423 423>
VStem: 53 52<94 194> 53 126<40.5 62 62 70.5> 274 52<19 257> 423 52<55 378>
Fore
475 55 m 2
 475 18 460 0 431 0 c 2
 274 0 l 1
 274 257 l 2
 274 313 231 352 175 352 c 0
 128 352 91 338 65 310 c 1
 99 310 127 295 149 266 c 1
 122 258 105 239 105 207 c 2
 105 94 l 1
 113 105 122 110 137 110 c 0
 160 110 179 90 179 51 c 0
 179 13 158 -6 117 -6 c 0
 76 -6 53 19 53 62 c 2
 53 194 l 2
 53 235 73 261 112 273 c 1
 95 286 67 293 30 293 c 1
 37 320 57 342 89 360 c 0
 116 377 145 385 176 385 c 0
 276 385 326 342 326 257 c 2
 326 19 l 1
 387 19 l 2
 407 19 423 31 423 55 c 2
 423 378 l 1
 475 378 l 1
 475 55 l 2
163 51 m 0
 163 74 150 90 137 90 c 0
 124 90 108 74 108 50 c 0
 108 35 117 13 137 13 c 0
 150 13 163 27 163 51 c 0
EndSplineSet
MinimumDistance: x16,-1 
Back
475.098 55.1758 m 2
 475.098 18.5547 460.449 0 431.152 0 c 2
 273.926 0 l 1
 273.926 256.836 l 2
 273.926 285.156 264.648 307.617 245.605 325.684 c 0
 226.562 343.262 203.125 352.051 174.805 352.051 c 0
 127.441 352.051 90.8203 337.891 64.9414 310.059 c 1
 99.1211 310.059 126.953 295.41 148.926 266.113 c 1
 135.742 262.207 125 255.371 117.188 245.605 c 0
 108.887 235.84 104.98 223.145 104.98 207.031 c 2
 104.98 94.2383 l 1
 108.887 99.1211 113.281 103.516 118.652 105.957 c 0
 123.535 108.887 129.883 109.863 137.207 109.863 c 0
 148.438 109.863 158.203 104.98 166.504 95.2148 c 0
 174.805 84.9609 179.199 70.3125 179.199 50.7812 c 0
 179.199 13.1836 158.203 -5.85938 117.188 -5.85938 c 0
 96.1914 -5.85938 80.5664 0 69.3359 12.207 c 0
 58.5938 23.9258 53.2227 40.5273 53.2227 62.0117 c 2
 53.2227 193.848 l 2
 53.2227 234.863 72.7539 261.23 111.816 272.949 c 1
 94.7266 286.133 67.3828 292.969 29.7852 292.969 c 1
 37.1094 319.824 57.1289 341.797 88.8672 359.863 c 0
 116.211 376.465 145.508 384.766 175.781 384.766 c 0
 275.879 384.766 326.172 342.285 326.172 256.836 c 2
 326.172 19.043 l 1
 387.207 19.043 l 2
 396.973 19.043 405.273 21.9727 412.598 27.832 c 0
 419.434 34.1797 422.852 42.9688 422.852 55.1758 c 2
 422.852 377.93 l 1
 475.098 377.93 l 1
 475.098 55.1758 l 2
163.086 50.7812 m 0
 163.086 62.5 160.156 71.7773 154.785 79.1016 c 0
 149.902 86.4258 143.555 89.8438 137.207 89.8438 c 0
 130.371 89.8438 124.023 86.4258 117.676 79.1016 c 0
 111.328 71.7773 107.91 62.0117 107.91 49.8047 c 0
 107.91 42.4805 110.352 34.668 115.234 25.8789 c 0
 119.629 17.0898 126.953 13.1836 137.207 13.1836 c 0
 143.555 13.1836 149.902 16.1133 154.785 22.9492 c 0
 160.156 29.7852 163.086 39.0625 163.086 50.7812 c 0
EndSplineSet
EndChar
StartChar: quoteleft
Encoding: 145 8216 112
OldEncoding: 8216
Width: 163
Flags: HW
HStem: 303 21<85 91> 379 21<88 102.5> 453 20<112 112>
Fore
131 344 m 0
 131 331 127 321 118 313 c 0
 111 308 102 304 91 303 c 0
 79 303 67 307 56 315 c 0
 41 328 34 346 34 370 c 0
 34 391 45 414 66 437 c 0
 83 456 99 468 112 473 c 1
 119 460 l 1
 80 435 61 411 61 386 c 0
 61 380 64 377 71 376 c 1
 80 377 l 1
 88 379 l 1
 117 379 131 367 131 344 c 0
EndSplineSet
Back
130.859 344.238 m 0
 130.859 331.543 126.465 320.801 118.164 312.988 c 0
 110.84 307.617 101.562 304.199 90.8203 303.223 c 0
 79.1016 303.223 67.3828 307.129 56.1523 314.941 c 1
 41.5039 327.637 34.1797 346.191 34.1797 370.117 c 0
 34.1797 391.113 44.4336 413.574 65.918 437.012 c 0
 83.4961 456.543 98.6328 468.262 111.816 473.145 c 1
 119.141 459.961 l 1
 80.5664 435.547 61.0352 410.645 61.0352 386.23 c 0
 61.0352 379.883 64.4531 376.465 70.8008 375.977 c 2
 80.0781 376.953 l 1
 87.8906 378.906 l 1
 116.699 378.906 130.859 367.188 130.859 344.238 c 0
EndSplineSet
EndChar
StartChar: quoteright
Encoding: 146 8217 113
OldEncoding: 8217
Width: 163
Flags: HW
HStem: 303 21<53 53> 453 20<75 81>
VStem: 34 97
Fore
131 406 m 0
 131 389 122 368 105 345 c 1
 89 326 72 312 53 303 c 1
 47 316 l 1
 85 341 104 366 104 391 c 0
 104 397 101 400 94 400 c 2
 86 399 l 1
 77 398 l 2
 48 398 34 410 34 433 c 0
 34 456 48 470 75 473 c 0
 87 473 98 469 109 461 c 0
 124 448 131 430 131 406 c 0
EndSplineSet
Back
130.859 405.762 m 0
 130.859 388.672 122.559 368.164 104.98 345.215 c 0
 88.8672 325.684 71.7773 311.523 53.2227 303.223 c 1
 46.875 315.918 l 1
 84.9609 341.309 104.004 366.211 104.004 391.113 c 0
 104.004 396.973 100.586 399.902 94.2383 399.902 c 2
 85.9375 398.926 l 1
 77.1484 397.949 l 2
 48.3398 397.949 34.1797 409.668 34.1797 433.105 c 0
 34.1797 456.543 47.8516 469.727 75.1953 473.145 c 1
 86.9141 473.145 98.1445 469.238 108.887 460.938 c 0
 123.535 448.242 130.859 430.176 130.859 405.762 c 0
EndSplineSet
EndChar
StartChar: quotedblleft
Encoding: 147 8220 114
OldEncoding: 8220
Width: 331
Flags: HW
HStem: 299 91 453 20<116 116 261 261>
VStem: 38 94<341.5 360> 183 94<341.5 360>
Fore
277 345 m 0
 277 314 264 299 239 299 c 0
 202 299 183 320 183 363 c 0
 183 408 209 444 261 473 c 1
 268 460 l 1
 230 436 211 411 211 386 c 0
 211 382 213 379 217 378 c 1
 222 385 230 389 240 389 c 0
 265 390 277 375 277 345 c 0
132 345 m 0
 132 314 119 299 94 299 c 0
 57 299 38 320 38 363 c 0
 38 408 64 444 116 473 c 1
 123 460 l 1
 85 436 66 411 66 386 c 0
 66 382 68 379 72 378 c 1
 77 385 85 389 95 389 c 0
 120 390 132 375 132 345 c 0
EndSplineSet
MinimumDistance: x8,-1 
Back
276.855 345.215 m 0
 276.855 314.453 264.16 298.828 238.77 298.828 c 0
 201.66 298.828 183.105 320.312 183.105 362.793 c 0
 183.105 407.715 208.984 444.336 261.23 473.145 c 1
 268.066 459.961 l 1
 229.98 436.035 210.938 411.133 210.938 386.23 c 0
 210.938 381.836 212.891 379.395 216.797 377.93 c 1
 222.168 385.254 229.98 389.16 240.234 389.16 c 0
 264.648 389.648 276.855 375 276.855 345.215 c 0
131.836 345.215 m 0
 131.836 314.453 119.141 298.828 94.2383 298.828 c 0
 56.6406 298.828 38.0859 320.312 38.0859 362.793 c 0
 38.0859 407.715 63.9648 444.336 116.211 473.145 c 1
 123.047 459.961 l 1
 84.9609 436.035 65.918 411.133 65.918 386.23 c 0
 65.918 381.836 67.8711 379.395 71.7773 377.93 c 1
 77.1484 385.254 84.9609 389.16 95.2148 389.16 c 0
 119.629 389.648 131.836 375 131.836 345.215 c 0
EndSplineSet
EndChar
StartChar: quotedblright
Encoding: 148 8221 115
OldEncoding: 8221
Width: 331
Flags: HW
HStem: 303 21<54 54 199 199> 386 91
VStem: 38 94<416 434.5> 183 94<416 434.5>
Fore
277 413 m 0
 277 369 251 332 199 303 c 1
 192 316 l 1
 230 340 249 365 249 390 c 0
 249 395 247 397 243 398 c 1
 238 391 230 387 220 387 c 0
 195 386 183 401 183 431 c 0
 183 462 196 477 221 477 c 0
 258 477 277 456 277 413 c 0
132 413 m 0
 132 369 106 332 54 303 c 1
 47 316 l 1
 85 340 104 365 104 390 c 0
 104 395 102 397 98 398 c 1
 93 391 85 387 75 387 c 0
 50 386 38 401 38 431 c 0
 38 462 51 477 76 477 c 0
 113 477 132 456 132 413 c 0
EndSplineSet
MinimumDistance: x8,-1 
Back
276.855 413.086 m 0
 276.855 369.141 250.977 332.52 199.219 303.223 c 1
 191.895 315.918 l 1
 229.98 339.844 249.023 364.746 249.023 390.137 c 0
 249.023 394.531 247.07 397.461 243.164 397.949 c 1
 237.793 390.625 229.98 387.207 220.215 387.207 c 0
 195.312 386.23 183.105 400.879 183.105 431.152 c 0
 183.105 461.426 195.801 477.051 221.191 477.051 c 0
 258.301 477.051 276.855 455.566 276.855 413.086 c 0
131.836 413.086 m 0
 131.836 369.141 105.957 332.52 54.1992 303.223 c 1
 46.875 315.918 l 1
 84.9609 339.844 104.004 364.746 104.004 390.137 c 0
 104.004 394.531 102.051 397.461 98.1445 397.949 c 1
 92.7734 390.625 84.9609 387.207 75.1953 387.207 c 0
 50.293 386.23 38.0859 400.879 38.0859 431.152 c 0
 38.0859 461.426 50.7812 477.051 76.1719 477.051 c 0
 113.281 477.051 131.836 455.566 131.836 413.086 c 0
EndSplineSet
EndChar
StartChar: bullet
Encoding: 149 8226 116
OldEncoding: 8226
Width: 270
Flags: HW
HStem: 137 21<108 160> 306 20<108 160>
Fore
229 232 m 0
 229 180 186 137 134 137 c 0
 82 137 40 180 40 232 c 0
 40 284 82 326 134 326 c 0
 186 326 229 284 229 232 c 0
EndSplineSet
Back
229.004 231.934 m 0
 229.004 219.238 226.562 207.031 221.68 195.312 c 0
 216.309 183.594 209.473 173.828 201.172 165.039 c 0
 192.383 156.25 182.129 149.414 170.898 144.531 c 0
 159.668 139.648 147.461 137.207 133.789 137.207 c 0
 121.094 137.207 109.375 139.648 97.6562 144.531 c 0
 85.9375 149.414 75.6836 156.25 67.3828 165.039 c 0
 59.082 173.828 52.7344 183.594 47.3633 195.312 c 0
 42.4805 207.031 40.0391 219.238 40.0391 231.934 c 0
 40.0391 245.117 42.4805 257.812 47.3633 269.043 c 0
 52.7344 280.273 59.082 290.039 67.3828 298.34 c 0
 75.6836 306.641 85.9375 313.477 97.6562 318.359 c 0
 109.375 323.73 121.094 326.172 133.789 326.172 c 0
 147.461 326.172 159.668 323.73 170.898 318.359 c 0
 182.129 313.477 192.383 306.641 201.172 298.34 c 0
 209.473 290.039 216.309 280.273 221.68 269.043 c 0
 226.562 257.812 229.004 245.117 229.004 231.934 c 0
EndSplineSet
EndChar
StartChar: endash
Encoding: 150 8211 117
OldEncoding: 8211
Width: 551
Flags: HW
HStem: 171 34<42 501>
Fore
501 171 m 1
 42 171 l 1
 42 205 l 1
 501 205 l 1
 501 171 l 1
EndSplineSet
Back
500.977 170.898 m 1
 41.9922 170.898 l 1
 41.9922 205.078 l 1
 500.977 205.078 l 1
 500.977 170.898 l 1
EndSplineSet
EndChar
StartChar: emdash
Encoding: 151 8212 118
OldEncoding: 8212
Width: 1102
Flags: HW
HStem: 171 34<42 1002>
Fore
1002 171 m 1
 42 171 l 1
 42 205 l 1
 1002 205 l 1
 1002 171 l 1
EndSplineSet
Back
1001.95 170.898 m 1
 41.9922 170.898 l 1
 41.9922 205.078 l 1
 1001.95 205.078 l 1
 1001.95 170.898 l 1
EndSplineSet
EndChar
StartChar: uni0E31.left
Encoding: 152 -1 119
OldEncoding: 63248
Width: 0
Flags: HW
HStem: 413 21<-153.5 -117> 435 20<-202 -188> 550 20<-223.5 -187.5 -22 28 -22 -22>
VStem: -265 39<501 524.5> -265 108<498.5 526.5>
Fore
28 570 m 1
 28 525 15 487 -11 458 c 0
 -38 429 -95 413 -139 413 c 0
 -168 413 -209 421 -230 436 c 0
 -253 453 -265 476 -265 505 c 0
 -265 548 -244 570 -203 570 c 0
 -172 570 -157 551 -157 513 c 0
 -157 484 -174 455 -202 455 c 1
 -211 457 l 1
 -198 442 -163 436 -136 436 c 0
 -105 436 -61 452 -44 483 c 0
 -29 508 -22 537 -22 570 c 1
 28 570 l 1
-178 513 m 0
 -178 533 -186 547 -202 547 c 0
 -218 547 -226 536 -226 513 c 0
 -226 489 -218 477 -202 477 c 0
 -196 477 -190 481 -185 488 c 0
 -181 495 -179 504 -178 513 c 0
EndSplineSet
Back
27.832 569.824 m 1
 27.832 524.902 15.1367 487.305 -11.2305 458.008 c 0
 -17.5781 450.684 -25.8789 444.336 -36.1328 438.477 c 0
 -45.8984 432.617 -56.6406 428.223 -68.3594 424.316 c 0
 -80.0781 420.898 -92.2852 417.969 -104.492 416.016 c 0
 -116.699 414.062 -128.418 413.086 -139.16 413.086 c 0
 -153.809 413.086 -169.922 415.039 -187.5 418.945 c 0
 -205.078 422.852 -219.238 428.711 -229.98 436.035 c 0
 -253.418 453.125 -265.137 476.562 -265.137 504.883 c 0
 -265.137 548.34 -244.141 569.824 -203.125 569.824 c 0
 -172.363 569.824 -157.227 550.781 -157.227 513.184 c 0
 -157.227 498.535 -161.133 484.863 -168.945 473.145 c 0
 -176.758 460.938 -187.988 455.078 -202.148 455.078 c 1
 -210.938 457.031 l 1
 -204.102 449.707 -193.359 444.336 -178.711 440.918 c 0
 -163.574 437.5 -149.414 436.035 -136.23 436.035 c 0
 -120.605 436.035 -103.516 439.941 -84.9609 448.242 c 0
 -66.4062 456.055 -52.7344 467.773 -43.9453 482.91 c 0
 -29.2969 507.812 -21.9727 536.621 -21.9727 569.824 c 1
 27.832 569.824 l 1
-178.223 513.184 m 0
 -178.223 522.949 -180.176 531.25 -184.082 537.598 c 0
 -187.988 543.945 -193.848 546.875 -202.148 546.875 c 0
 -217.773 546.875 -226.074 535.645 -226.074 513.184 c 0
 -226.074 488.77 -217.773 477.051 -202.148 477.051 c 0
 -195.801 477.051 -190.43 480.469 -185.059 487.793 c 0
 -183.105 491.211 -181.641 495.117 -180.664 499.512 c 0
 -179.688 503.906 -178.711 508.301 -178.223 513.184 c 0
EndSplineSet
EndChar
